<?xml version="1.0" encoding="utf-8"?>
<!-- Generator: Adobe Illustrator 22.0.1, SVG Export Plug-In . SVG Version: 6.00 Build 0)  -->
<svg version="1.1" id="Layer_1" xmlns="http://www.w3.org/2000/svg" xmlns:xlink="http://www.w3.org/1999/xlink" x="0px" y="0px"
	 viewBox="0 0 500 500" style="enable-background:new 0 0 500 500;" xml:space="preserve">
<style type="text/css">
	.st0{fill:#E82C2D;}
	.st1{fill:#FFFFFF;}
</style>
<g>
	<g>
		<polygon class="st0" points="406.7,341.5 250,492 93.3,341.5 93.3,0 406.7,0 		"/>
		<polyline class="st1" points="99.1,0 87.5,0 87.5,344 250,500 412.5,344 412.5,0 400.9,0 400.9,339.1 250,484 99.1,339.1 		"/>
	</g>
	<g>
		<path class="st1" d="M253.5,141.2C253.7,139.7,252.7,142.7,253.5,141.2L253.5,141.2z"/>
		<path class="st1" d="M253.1,126.8c-0.3-0.2-0.5,0.2-0.8,0.6C252.5,127.6,253.2,127.2,253.1,126.8z"/>
		<path class="st1" d="M198,111.5c-0.5-0.5-1.7-0.7-1.9-0.1C196.8,111.5,197.7,111.8,198,111.5z"/>
		<path class="st1" d="M252.6,128.6c0.2,0,0.5-0.5,0.2-0.5C252.7,128.1,252.3,128.7,252.6,128.6z"/>
		<path class="st1" d="M198.2,112.8l0.1-0.6l-1.4-0.3C196.8,112.4,197.3,112.7,198.2,112.8z"/>
		<path class="st1" d="M187,111.4C188.6,112.4,188.5,110.4,187,111.4L187,111.4z"/>
		<path class="st1" d="M196.5,111.8c-0.8-0.2-1.2,0-1.5,0.4C195.7,112.2,196.6,112.5,196.5,111.8z"/>
		<path class="st1" d="M278.2,118.7l1.7-0.7C280.1,116.3,277.3,117.9,278.2,118.7z"/>
		<path class="st1" d="M193.7,111.4c-0.8-0.1-1.2,0.1-1.5,0.4C192.9,111.9,193.8,112,193.7,111.4z"/>
		<path class="st1" d="M190.4,110.7c0.1,0.1,0.7-0.1,0.5-0.3C190.8,110.3,190.1,110.5,190.4,110.7z"/>
		<path class="st1" d="M218.4,117.5c-0.5-0.2-0.5-0.7-0.9-0.4C217.4,117.4,218.1,117.8,218.4,117.5z"/>
		<path class="st1" d="M216.2,120.2c0.2-0.3,0.5,0,0.8,0.4C218.2,119.7,214.6,119.1,216.2,120.2z"/>
		<path class="st1" d="M219.1,120.5c-0.1-0.1-0.7-0.2-0.5,0.1C218.6,120.7,219.2,120.8,219.1,120.5z"/>
		<path class="st1" d="M214.9,117.3c-0.1-0.1-0.7-0.1-0.5,0.1C214.5,117.5,215.1,117.5,214.9,117.3z"/>
		<path class="st1" d="M218.7,121.4c0.1,0.1,0.7,0.2,0.5-0.1C219.2,121.2,218.6,121.1,218.7,121.4z"/>
		<path class="st1" d="M211.7,117.9c-0.1-0.1-0.7-0.1-0.5,0.1C211.2,118.1,211.8,118.1,211.7,117.9z"/>
		<path class="st1" d="M207.6,114.1c-0.1-0.1-0.7-0.1-0.5,0.1C207.1,114.3,207.8,114.3,207.6,114.1z"/>
		<path class="st1" d="M202.5,112.9c-0.4,0-0.9-0.2-1,0.1C201.9,112.9,202.4,113.1,202.5,112.9z"/>
		<path class="st1" d="M203.5,112.8c0.2-0.3-0.2-0.9-0.4-0.4C203,112.7,203.3,113.2,203.5,112.8z"/>
		<path class="st1" d="M210.2,115c-0.5-0.2-0.5-0.7-0.9-0.3C209.3,115,210,115.4,210.2,115z"/>
		<path class="st1" d="M150.6,132.3c-0.4,1.3,1.2,0.1,0.8-0.6C151.1,132.1,150.9,132,150.6,132.3z"/>
		<polygon class="st1" points="278,117.1 277.8,116.5 276.9,116.9 277.2,117.5 		"/>
		<polygon class="st1" points="261.3,124.6 260.5,125.1 260.8,125.7 261.6,125.2 		"/>
		<path class="st1" d="M262.9,123.6c-0.1-0.1-0.5-0.1-0.4,0.2C262.6,124,263,124,262.9,123.6z"/>
		<path class="st1" d="M266.7,120.7c0.2,0,0.6-0.5,0.3-0.5C266.8,120.2,266.4,120.7,266.7,120.7z"/>
		<path class="st1" d="M259.9,125.9l-0.3-0.5l-1.2,0.8C258.6,126.7,259.1,126.5,259.9,125.9z"/>
		<path class="st1" d="M267.5,118.2c-0.3,0.2-0.8,0.5-0.7,0.7C267.1,118.7,267.7,118.4,267.5,118.2z"/>
		<path class="st1" d="M257.4,130c-0.3,0.3-0.8,0.5-0.6,0.8C257.1,130.6,257.6,130.3,257.4,130z"/>
		<path class="st1" d="M254.3,126c-0.3,0.3-0.8,0.5-0.6,0.8C253.9,126.5,254.4,126.2,254.3,126z"/>
		<path class="st1" d="M245.1,136.7c-0.1-0.1-0.3-0.2-0.4-0.3h-0.8l-0.1,0.1c0.3,0.2,0.5,0.3,0.7,0.5h0.3l-0.1,0.1
			c0.4,0.2,0.8,0.4,1,0.4c-0.1-0.2-0.3-0.4-0.4-0.5h-0.5L245.1,136.7z"/>
		<path class="st1" d="M220.6,119.6c1-0.5-1.8-1.8-2-1.3C219.7,118.6,219.3,119.2,220.6,119.6z"/>
		<path class="st1" d="M257.7,131.3c0.2-0.1,0.2,0.5,0.7,0.3c0,0-0.3-0.5-0.3-0.5c0.4-0.9,2.8-0.9,3-1.3c0.3-1.1,4.6-3.4,6.1-4.1
			c0,0,0.3,0.4,0.5,0c4.1-3,7.1-4.4,10.5-5.7c-0.5-0.6,2-0.7,0.9-1.4c-1,1.4-2.5,0.8-3.1,1.1c-0.3,0.2-0.1,0.8-1,1.1
			c-0.8,0.3-1.9,0.4-2.7,0.7c-6.2,2.5-12.5,8-17,11.2C255.8,133.6,257,131.7,257.7,131.3z"/>
		<path class="st1" d="M162.2,120.2c0.1,0.1,0.5,0.1,0.4-0.3C162.5,119.8,162.1,119.9,162.2,120.2z"/>
		<path class="st1" d="M266,120.4c-1.7,0.9-6.3,2-6.8,3.4c-0.1,0.3-0.7,0.1-0.5,0c-2.7,1.7-4.1,2.9-5.1,4.5c2.6-0.9,6.6-4.1,9.3-5.7
			C264,121.9,266.2,121.7,266,120.4z"/>
		<path class="st1" d="M185.1,111.5c0.6-0.1,1.3,0,1.4-0.3c-0.7,0.2-1.2-1.2-1.4-0.3C185.7,110.9,185.4,111.2,185.1,111.5z"/>
		<path class="st1" d="M154,128.5c-0.1,0-0.4,0.6-0.1,0.5C154,129,154.3,128.4,154,128.5z"/>
		<path class="st1" d="M148.6,132.5c3.1-5.2,10.7-12.8,18.3-16.5c3.8-1.8,5.1-2.6,5.9-1.7c-0.2-0.5,0.1-0.9,0.7-1.2
			c1.3,0.3,3.1-0.6,4.6-1.1c1.2-0.3,2.1,0.1,2.3-0.6c0,1.1,2-0.3,2.8-0.3c-0.1,0,0.3,0.6,0.5,0.6c0.5,0.1,0.8-0.5,0.9-0.6
			c-5.2-0.5-8.8,0.6-11.8,1.6c-0.8,0.3-1.5,0.2-1.9,0.3c-0.3,0.1-1.3,0.8-1.7,1c-0.4,0.2-0.9,0.1-1,0.1c-0.6,0.2-0.5,0.6-1.2,0.9
			c-1,0.3-2.4,0.7-3.7,1.3c0,0-0.5,0.7-1.1,1c-0.5,0.2-1.2,0.5-1.4,0.6c0,0,0,0.7-0.1,0.8c-1.1,1.4-1.4,0.1-1.9,0.7
			c0,0.3,0.3,0.5,0,0.8c-1,0.4-1.9,1.1-2.8,1.2c0.4,0.4,0.1,0.5-0.3,1.1c-0.8,1-1.6,2.3-2,2.8c0,0-0.8,0-1.1,0.3
			c-0.8,0.9-0.3,1.8-1.6,1.8c0.3,0.4,0.3,0.5-0.2,1.1C149.7,130.1,147.5,131.9,148.6,132.5z"/>
		<path class="st1" d="M174.2,107.9c0.5-1-1.3-0.3-2.2,0c-1,0.2-2.7,0.1-2,0.9C171.1,109,171.9,108.3,174.2,107.9z"/>
		<path class="st1" d="M159.9,121.1c0.2,0,0.5-0.5,0.2-0.5C160,120.6,159.6,121.2,159.9,121.1z"/>
		<path class="st1" d="M253,135.8c0.2-0.3,0.7-0.5,0.6-0.8C253.3,135.3,252.8,135.6,253,135.8z"/>
		<path class="st1" d="M253.7,139.1c0.1,0,0.5-0.5,0.2-0.5C253.7,138.6,253.4,139.2,253.7,139.1z"/>
		<path class="st1" d="M253.9,137.1c-0.2,0-0.5,0.5-0.2,0.5C253.8,137.6,254.1,137.1,253.9,137.1z"/>
		<path class="st1" d="M254,132.5c-0.2,0-0.5,0.5-0.2,0.5C254,133,254.3,132.4,254,132.5z"/>
		<path class="st1" d="M233.5,128.9c0.1-0.1-0.1-0.5-0.4-0.3C233.1,128.8,233.3,129.1,233.5,128.9z"/>
		<path class="st1" d="M245.7,140.5c0-0.1-0.6-0.3-0.5-0.1C245.2,140.6,245.8,140.8,245.7,140.5z"/>
		<path class="st1" d="M246.2,141.3c0-0.1-0.6-0.3-0.5-0.1C245.7,141.4,246.3,141.6,246.2,141.3z"/>
		<path class="st1" d="M251.1,133.1C251.1,133.1,251.1,133.1,251.1,133.1L251,133C251,133.1,251,133.1,251.1,133.1z"/>
		<path class="st1" d="M246.8,138.4c0.1,0,0.2-0.1,0.3-0.1c-0.1-0.1-0.1-0.1-0.2-0.2C246.9,138.2,246.8,138.3,246.8,138.4z"/>
		<path class="st1" d="M242.3,134.2c0-0.1,0.1-0.1,0.1-0.2h-0.9c0.2,0.1,0.4,0.3,0.6,0.4L242.3,134.2z"/>
		<path class="st1" d="M249.2,134.9c-0.3-0.4-0.7-0.7-0.9-0.8c0,0,0,0,0,0c-0.3,0.2-0.5,0.4-0.8,0.5c0.2,0.1,0.3,0.2,0.5,0.3H249.2z
			"/>
		<path class="st1" d="M244.4,134C244.5,134,244.5,134.1,244.4,134c0.1,0,0.1,0,0.2,0h2.2c0,0,0,0,0,0c-0.4,0.3-0.8,0.5-1.3,0.9
			c0,0,0,0,0,0h-0.1c0,0,0,0,0,0C245.2,134.6,244.9,134.4,244.4,134c-0.3,0.4-0.6,0.7-0.9,0.9h0c0,0,0,0,0,0c0,0,0,0,0,0h2
			c-0.3,0.3-0.7,0.5-1,0.8l-0.3,0.3c0.1,0.1,0.3,0.2,0.4,0.3h0.8l-0.4,0.3c0.1,0.1,0.2,0.1,0.2,0.2h2.5c0.1-0.1,0.2-0.1,0.3-0.2
			l-0.2-0.2c-0.1-0.1-0.2-0.2-0.3-0.2h-2.1l0.4-0.3c0.2-0.2,0.4-0.3,0.6-0.5c-0.3-0.2-0.5-0.4-0.8-0.6h1.5c0.1-0.1,0.3-0.2,0.4-0.3
			c0,0-0.1-0.1-0.1-0.1c-0.2-0.2-0.4-0.3-0.5-0.4c0,0,0,0,0,0h0c-0.4-0.3-0.8-0.6-1.2-0.9c-0.3,0.2-0.6,0.5-1.1,0.9H244.4
			c-0.4-0.3-0.7-0.6-1.1-0.9c-0.3,0.3-0.6,0.6-0.9,0.9H244.4z"/>
		<path class="st1" d="M248.1,136.7l0.3,0.2h-0.5c-0.3,0.3-0.6,0.5-0.7,0.8h1c0.2-0.2,0.5-0.3,0.7-0.5l-0.4-0.3h0.6
			c0.1-0.2,0.3-0.3,0.4-0.5c0,0-0.1-0.1-0.1-0.1h-0.6C248.4,136.5,248.2,136.6,248.1,136.7z M247.7,137.1c-0.1-0.3,0.5-0.1,0.6,0.1
			C248.4,137.5,247.8,137.3,247.7,137.1z"/>
		<path class="st1" d="M241.1,133.8l-0.1,0.1l-0.1,0.1l0,0l0,0h0.6C241.4,133.9,241.2,133.9,241.1,133.8z"/>
		<path class="st1" d="M246.4,135.5c0.1,0.1,0.3,0.2,0.4,0.3c0.1-0.1,0.2-0.2,0.2-0.2c0.2,0,0.1,0.2,0,0.4c0.2,0.1,0.4,0.3,0.5,0.4
			h1.1c0.1-0.1,0.2-0.1,0.3-0.2c-0.1-0.1-0.2-0.1-0.3-0.2c0.5-0.6,0-0.7-0.7-1h-0.9C246.9,135.1,246.6,135.3,246.4,135.5z"/>
		<path class="st1" d="M233.6,129.6c0.8,0.7,1.5,1,2.1,1C236.6,129.9,233.6,128.4,233.6,129.6z"/>
		<path class="st1" d="M239,134.9c-0.1-0.1-0.6-0.3-0.5,0C238.5,135,239.1,135.1,239,134.9z"/>
		<path class="st1" d="M245.6,133.2c0,0,0.1-0.1,0.1-0.1c0.2-0.2,0.4-0.3,0.7-0.5c-0.3-0.2-0.6-0.5-0.9-0.7
			c-0.4,0.2-0.8,0.3-1.2,0.5C244.8,132.6,245.2,132.9,245.6,133.2z"/>
		<path class="st1" d="M250.6,132.7l-0.7-0.5l0.5,0.7C250.5,132.8,250.5,132.8,250.6,132.7z"/>
		<path class="st1" d="M251,134.7c-0.1,0-0.2,0.1-0.2,0.2h0.3C251.2,134.8,251.2,134.7,251,134.7z"/>
		<path class="st1" d="M249.4,133.2c-0.4,0.2-0.7,0.5-1.1,0.8h2.3c-0.8-0.8-1.6-1.7-2.4-2.5c0.2-0.1,0.4-0.2,0.5-0.4l-0.8-0.8
			c-0.1,0.1-0.2,0.1-0.4,0.2c0,0.1-0.1,0.1-0.1,0.1c0.3,0.3,0.6,0.5,0.8,0.8c-0.6,0.4-1.2,0.7-1.7,1.1c0.4,0.4,0.9,0.7,1.2,1
			C248.2,133.2,249.3,132.6,249.4,133.2z"/>
		<path class="st1" d="M233.6,131.4l0.3-0.5l-1.1-0.8C232.4,130.6,232.8,131,233.6,131.4z"/>
		<path class="st1" d="M247.6,133.6c-0.1,0.1-0.2,0.1-0.2,0.1c-0.2,0.1-0.4,0.2-0.5,0.3h1.4C248.1,133.9,247.9,133.8,247.6,133.6z"
			/>
		<path class="st1" d="M251,136.2c0.2-0.3,0.7-0.6,0.6-0.8C251.3,135.7,250.8,136,251,136.2z"/>
		<path class="st1" d="M238.4,127.4c-0.1-0.1-0.7-0.3-0.6,0C237.9,127.5,238.5,127.6,238.4,127.4z"/>
		<path class="st1" d="M235,133.5c0.1,0.1,0.7,0.3,0.5,0C235.5,133.3,234.9,133.2,235,133.5z"/>
		<path class="st1" d="M223.9,122.3c-0.2,0.4-0.1,0.7,0,1c-2.2-2.1-1.8-0.8-4-2.4c-0.7,1.2,2.4,1.6,2.7,1.8c0,0-0.2,0.6-0.3,0.5
			c0.9,0.5,1.9,0.1,2.6,1.1C225.5,123.6,223.7,123,223.9,122.3z"/>
		<path class="st1" d="M227,128.3c0.1-0.1-0.2-0.5-0.4-0.2C226.5,128.2,226.7,128.6,227,128.3z"/>
		<path class="st1" d="M229.7,127.1C232.1,129,231.1,126.9,229.7,127.1L229.7,127.1z"/>
		<path class="st1" d="M230.2,123.5c0.1-0.4-0.4-0.4-0.8-0.5C229.2,123.3,229.9,123.8,230.2,123.5z"/>
		<path class="st1" d="M227.9,125.7c-0.1-0.1-0.7-0.2-0.5,0C227.4,125.8,228,125.9,227.9,125.7z"/>
		<path class="st1" d="M252.9,129.9c0-0.2-0.9-0.1-1.1,0.1C250.9,130.9,253,131.2,252.9,129.9z"/>
		<path class="st1" d="M252.3,133.9C252.3,134,252.3,134,252.3,133.9L252.3,133.9C252.4,134,252.4,134,252.3,133.9L252.3,133.9
			L252.3,133.9L252.3,133.9z"/>
		<path class="st1" d="M223,126c0.5,0.2,0.4,0.7,0.8,0.4C224,126.2,223.3,125.7,223,126z"/>
		<path class="st1" d="M243.5,134.9c-0.2,0.2-0.4,0.3-0.4,0.3c-0.2,0.3,0.4,0.3,0,0.8c0.1,0.1,0.3,0.2,0.4,0.3h0.3l0,0l0.3-0.3
			C243.7,135.6,243.3,135.3,243.5,134.9z"/>
		<path class="st1" d="M223.9,121.3c0.4-0.7-0.6-1.3-1.7-1.9C221.7,120.1,223.3,120.6,223.9,121.3z"/>
		<path class="st1" d="M225.9,124.5c-0.1-0.1-0.7-0.2-0.5,0C225.4,124.7,226,124.8,225.9,124.5z"/>
		<path class="st1" d="M251.6,133.9c-0.1,0-0.1,0.1-0.2,0.2h0.3C251.7,133.9,251.7,133.9,251.6,133.9z"/>
		<path class="st1" d="M231.1,129.4c0.1,0.1,0.7,0.3,0.5,0C231.5,129.3,230.9,129.1,231.1,129.4z"/>
		<path class="st1" d="M250.5,136.3L250.5,136.3L250.5,136.3L250.5,136.3C250.5,136.3,250.5,136.3,250.5,136.3c-0.1,0-0.1,0-0.1,0
			L250.5,136.3L250.5,136.3z"/>
		<path class="st1" d="M246.4,129.9c-0.5,0.5-1.1,1-1.6,1.4c0.2,0.2,0.5,0.4,0.7,0.6c0.6-0.3,1.3-0.6,1.8-1.2
			c-0.2-0.1-0.3-0.3-0.5-0.4C246.7,130.1,246.6,130,246.4,129.9z"/>
		<path class="st1" d="M249.4,136.3c0.2-0.2,0.3-0.4,0.5-0.7l0,0c-0.3,0.2-0.6,0.4-0.9,0.5c0.1,0.1,0.2,0.1,0.3,0.2H249.4z"/>
		<path class="st1" d="M252.3,131.5c-0.3-0.2-0.5,0.2-0.8,0.6C251.7,132.3,252.4,131.9,252.3,131.5z"/>
		<path class="st1" d="M248.7,137.2L248.7,137.2l0.5,0.3l0.1,0.1l0.1,0.1l0,0c0.1-0.2,0.3-0.2,0.4-0.1c0.1-0.2,0.1-0.5,0.2-0.7h-1
			C248.9,137,248.8,137.1,248.7,137.2z"/>
		<path class="st1" d="M246.8,136.1c0,0,0.1-0.1,0.2-0.2c-0.1,0-0.1-0.1-0.2-0.2C246.7,135.9,246.7,136.1,246.8,136.1z"/>
		<path class="st1" d="M249.4,137.7L249.4,137.7L249.4,137.7C249.4,137.7,249.4,137.7,249.4,137.7L249.4,137.7z"/>
		<path class="st1" d="M250,136.9L250,136.9L250,136.9C250,136.9,250,136.9,250,136.9c-0.1,0-0.1,0-0.1,0H250z"/>
		<path class="st1" d="M250.4,136.3h-1c0,0,0,0.1-0.1,0.1c0.2,0.1,0.4,0.3,0.6,0.4C250,136.7,250.1,136.5,250.4,136.3z"/>
		<path class="st1" d="M211,117c-0.1-0.1-0.7-0.1-0.5,0.1C210.6,117.2,211.2,117.2,211,117z"/>
		<path class="st1" d="M213.2,197.4c-0.1-0.2-0.3-0.4-0.5-0.6l4.2-2.6c0.6-1.1,0.9-2.5,1-4.1l-12.3,7.8v0.2c0.3,0,2.4,0.1,2.4,0.1
			C210,198.2,211.8,197.9,213.2,197.4z"/>
		<path class="st1" d="M348,186.4c0.3,0.1,0.3-0.4,0.2-0.4C347.9,185.9,347.9,186.3,348,186.4z"/>
		<path class="st1" d="M217.5,186.6c-0.3-1.1-0.9-2.1-1.8-2.8l-10.2,6.5v3.5L217.5,186.6z"/>
		<path class="st1" d="M205.5,197.4l12.3-7.5c0-0.1,0-0.2,0-0.3c0-1.1-0.1-2.1-0.4-3l-12,7.5V197.4z"/>
		<path class="st1" d="M215.2,183.4c-0.9-0.6-2.1-1.1-3.6-1.3l-6.1,3.8v3.3L215.2,183.4z"/>
		<path class="st1" d="M231.6,186.1l-5.5,3.5c0,1.7-0.3,3.2-0.9,4.7l5.6-3.4C231.1,189.3,231.4,187.6,231.6,186.1z"/>
		<path class="st1" d="M255.3,185.4l-11,7c0.5,2.6,1,5.1,1.4,7.4l1.2-0.7l-1.2,0.8c0.2,1.2,0.5,2.4,0.7,3.6l5-3
			C252.6,195.8,254,190.5,255.3,185.4z"/>
		<path class="st1" d="M347.5,168.3c-0.3-0.5-0.9-0.6-1.3-0.4l-65.5,39.8H294l52.7-33.8c0.5-0.3,0.6-0.9,0.3-1.4
			c-0.3-0.5-0.9-0.6-1.3-0.4l-39.4,23.9c-0.1-0.1-0.2-0.2-0.3-0.3l41.2-26.2C347.7,169.4,347.8,168.8,347.5,168.3z M289,206.7
			l12.2-7.7c0,0.1,0.1,0.2,0.1,0.3L289,206.7z"/>
		<path class="st1" d="M347.8,176.9c-0.3,0-0.4,0.3-0.7,0.2l-0.3,0.8C347.3,178.4,347.5,177.6,347.8,176.9z"/>
		<path class="st1" d="M345.5,159.5l-54.2,32.9v0.2h-0.4l-6,3.7c-0.2-0.2-0.5-0.3-0.8-0.4l5-3.2h-7.3l-2.3,1.4v2.4l1.6-1l-1.6,1v2.4
			l0.3-0.2c0,0.2,0,0.5,0,0.7l-0.3,0.2v3.2h-5.2l-7,4.3c0.1,0.4,0.1,0.6,0.1,0.6h8.9l3-1.8l-2.8,1.8h3.7l67.9-43.6
			c0.5-0.3,0.6-0.9,0.3-1.4c-0.3-0.5-0.9-0.6-1.3-0.4l-55.1,33.5l54.7-34.6c0.5-0.3,0.6-0.9,0.3-1.4
			C346.6,159.4,346,159.2,345.5,159.5z"/>
		<polygon class="st1" points="182.7,207.7 197.8,198.6 197.8,195.3 178.3,207.7 		"/>
		<path class="st1" d="M349.2,173c-0.1-0.3-0.5,0.2-0.5,0.3C348.8,173.6,349.2,173.1,349.2,173z"/>
		<path class="st1" d="M225.4,185.3l1.5-0.9L225.4,185.3c0.4,1.1,0.6,2.2,0.7,3.3l5.6-3.4c1-5.8,1.9-11,2.2-13.1l-12.7,8.1
			C223.3,181.5,224.7,183.3,225.4,185.3z"/>
		<path class="st1" d="M228.1,206.5c0.2-1,0.4-2.5,0.7-4.3l-8.5,5.4h5.9L228.1,206.5z"/>
		<path class="st1" d="M236.9,191.8l0.9-0.5c-0.2-1.2-0.4-1.9-0.4-2.2C237.3,189.4,237.2,190.4,236.9,191.8z"/>
		<path class="st1" d="M229,201.3c0.2-1.3,0.5-2.8,0.8-4.4l-16.9,10.8h5.7L229,201.3z"/>
		<path class="st1" d="M228.1,207l-1.1,0.7h1C228,207.6,228,207.4,228.1,207z"/>
		<path class="st1" d="M239.4,199.8l-4.3,2.7c-0.2,1.4-0.5,2.8-0.7,4.1l5.7-3.5C239.9,202.1,239.6,200.9,239.4,199.8z"/>
		<path class="st1" d="M240.8,206.8c-0.2-1.2-0.4-2.3-0.6-3.4l-5.8,3.7c-0.3,1.6-0.5,3-0.7,4.1L240.8,206.8z"/>
		<path class="st1" d="M238.7,196l-2.5,1.6c-0.1-0.2-0.1-0.3-0.2-0.4c-0.3,1.6-0.6,3.4-0.9,5.1l4.3-2.6
			C239.2,198.4,238.9,197.1,238.7,196z"/>
		<path class="st1" d="M211,202.9c-1.4,0.1-3,0.2-4.7,0.2c-0.4,0-0.9,0-1.3,0l-7.2,4.6h5.2L211,202.9z"/>
		<path class="st1" d="M236.8,192.4c-0.2,1.3-0.5,2.9-0.8,4.6l2.6-1.6c-0.3-1.5-0.5-2.7-0.7-3.8L236.8,192.4z"/>
		<path class="st1" d="M202.4,203c-1.9-0.1-3.4-0.2-4.4-0.3l0,0l-7.9,5h4.7L202.4,203z"/>
		<polygon class="st1" points="197.8,202.1 197.8,199.1 184,207.7 188.5,207.7 		"/>
		<path class="st1" d="M229.9,196c0.2-1.5,0.5-3,0.8-4.5l-5.9,3.8c-0.9,1.8-2.3,3.3-4.2,4.5c-2,1.3-4.2,2.2-7.2,2.7l-8.1,5.2h5.4
			L229.9,196z"/>
		<path class="st1" d="M211.5,182.1c-0.8-0.1-1.8-0.2-2.8-0.2c-1.7,0-2.7,0.2-3.2,0.2v3.6L211.5,182.1z"/>
		<path class="st1" d="M355.6,167c0.3-2.3,0.3-3,0.6-4.3C355,162.7,355.1,166.1,355.6,167z"/>
		<polygon class="st1" points="279.8,119 280.6,118.6 280.4,118.1 279.6,118.4 		"/>
		<path class="st1" d="M354.8,169.6c-0.1,0.6-0.3,1.5,0,1.6C354.9,170.6,355.1,169.8,354.8,169.6z"/>
		<path class="st1" d="M354.3,175.2c-0.4,0-0.8,0.3-1.1,1.1C353.7,176.3,354,176,354.3,175.2z"/>
		<path class="st1" d="M353.5,173.8c-0.1,0-0.4,0.3-0.4,0.4c0,0.2,0.2,0.1,0.3-0.1c-0.1,0.6,0,1.1,0.3,1.2c0.1-1.3,0.7-1,0.7-2.6
			C354.1,172.6,353.7,173.2,353.5,173.8z"/>
		<path class="st1" d="M354,138.7c-0.2-0.4-0.5-1.1-0.7-1C353.6,138.1,353.8,138.8,354,138.7z"/>
		<path class="st1" d="M348.7,185.1c0.3,0.1,0.3-0.4,0.2-0.4C348.5,184.6,348.5,185,348.7,185.1z"/>
		<path class="st1" d="M358.6,159.9c0.9,0,0.7-2,0.8-3.5C358.4,156.3,359,159,358.6,159.9z"/>
		<path class="st1" d="M358.5,150.5c-0.4,0.9,0.2,3.1,0.3,4.8C360,155.8,359,150.8,358.5,150.5z"/>
		<path class="st1" d="M354.6,179.9c0,0-0.7,0.2-0.7,0.4c-0.3,0.9,0,1.2-0.2,2.1c-0.3,1.1-2.6,4.9-1.4,5.6c0.3-0.4,0.5-0.8,0.8-1.2
			c0.1-0.1,0.2-0.2,0.2-0.3c0,0,0,0,0,0c1.2-2.5,1.9-5.9,2.9-10.5C355,175.5,355,178.7,354.6,179.9z"/>
		<path class="st1" d="M353.5,190c-0.1,0.1-0.1,0.8,0.1,0.6C353.7,190.5,353.7,189.8,353.5,190z"/>
		<path class="st1" d="M353.4,172.8c-0.1-0.3-0.5,0.2-0.4,0.3C353,173.4,353.4,172.9,353.4,172.8z"/>
		<path class="st1" d="M354.8,142.9c0.1,1.4,1.3,5.6,1.1,8.1c0,0.4-0.4,1.1-0.4,1.8c0,0,0.5,1.3,0.6,2.2c-0.1,1.9,0.2,2.7,0.1,4.5
			c0,1.1-1,2.3,0,2.8c0.6-1.5,0.2-4.7,1.1-5.6c0.3-1.1-0.6-1.3-0.7-2.2c0-0.3,0.6-0.7,0.4-1.8c-0.3-1.7-0.1-0.8-0.1-2.9
			c0-0.9-0.2-1.3-0.4-2.3c-0.3-2,0-6-1.9-6.2C355.7,142.9,354.8,142.3,354.8,142.9z"/>
		<path class="st1" d="M351.5,176.6c0-0.3-0.5,0.2-0.5,0.3C351.1,177.2,351.6,176.7,351.5,176.6z"/>
		<path class="st1" d="M351,168.3c-0.3-0.1-0.4,0.4-0.6,0.7l-0.5,1.3C350.5,170.6,350.6,168.8,351,168.3z"/>
		<path class="st1" d="M350.4,180.7C350.5,182.7,351.9,179.9,350.4,180.7L350.4,180.7z"/>
		<path class="st1" d="M347.8,184.1c0.8,0.4,1.8-2.1,1.7-2.8C348,181.4,349.3,183,347.8,184.1z"/>
		<path class="st1" d="M350.3,179.6c-0.3-0.1-0.4,0.4-0.7,0.7C349.9,180.4,350.1,179.9,350.3,179.6z"/>
		<path class="st1" d="M351.1,182.6c0,0.3,0.5-0.1,0.5-0.3C351.6,182.1,351.1,182.5,351.1,182.6z"/>
		<path class="st1" d="M352.9,176.8c-0.2,0.6-0.5,0.6-0.6,1.4C352.8,179.2,353.5,176.7,352.9,176.8z"/>
		<path class="st1" d="M352.2,184.1c0.2,0,0.4-0.3,0.2-0.5C352.2,183.6,352,183.9,352.2,184.1z"/>
		<path class="st1" d="M352.1,175.3c0-0.3-0.5,0.2-0.5,0.3C351.7,175.9,352.1,175.4,352.1,175.3z"/>
		<path class="st1" d="M352.9,175.6c0.3,0.1,0.3-0.4,0.2-0.4C352.7,175.1,352.7,175.6,352.9,175.6z"/>
		<path class="st1" d="M351.3,167.4c0.5,0,0.1-0.4,0.3-0.9C351.2,166.5,351,167.3,351.3,167.4z"/>
		<path class="st1" d="M355.1,167.3c-0.3-0.1-0.4,0.5-0.6,0.8C354.7,168.2,354.9,167.7,355.1,167.3z"/>
		<path class="st1" d="M254.4,137.1c0.5-0.6,2.3-1.3,2-1.9C255.5,135.2,254.4,136.4,254.4,137.1z"/>
		<path class="st1" d="M255.5,131.4c-0.1,0-0.5,0.5-0.2,0.5C255.5,131.9,255.8,131.4,255.5,131.4z"/>
		<path class="st1" d="M288.7,119.8c0-0.3-0.1-0.5,0.3-0.7c1.4-0.8,4.4-1.4,5.1-1.4c-0.7-1-3-0.1-4.8,0.7c-1.1,0.4-2.1,1.3-3.3,1.4
			C285.9,121.1,288.2,119.3,288.7,119.8z"/>
		<path class="st1" d="M256.5,138.5c0.9-0.4,1.6-1.1,2.5-1.8c5.8-4.5,13.8-9.4,20.2-13.1c-0.7,0.1-1.2,0.1-1.9,0.2
			c-2.8,2.2-6.5,3.5-10.1,5.8c-2.9,1.8-5.5,4.3-8.7,5.6C261,135.7,255.1,137.8,256.5,138.5z"/>
		<path class="st1" d="M280.7,122.5c-0.7,0.3-2.4,0.1-1.5,1c1.6-0.3,4.8-2,6.5-3C284.2,120.3,282,121.9,280.7,122.5z"/>
		<path class="st1" d="M301.9,113.2c-1.1,0.1-2.2,0.2-2.2,0.9C300.5,114.5,301.6,113.9,301.9,113.2z"/>
		<path class="st1" d="M264.1,128.6c-0.2,0-0.5,0.5-0.2,0.5C264,129.1,264.4,128.6,264.1,128.6z"/>
		<path class="st1" d="M295.1,114c-0.5,0.1-1.3,0.2-1.3,0.6C294.3,114.4,295.1,114.4,295.1,114z"/>
		<path class="st1" d="M313.6,111.9c0.8-0.7-1.5-1.1-1.4-0.5C312.8,111.5,312.8,111.9,313.6,111.9z"/>
		<path class="st1" d="M316.1,116.3c-3.4-0.9-6.3-1.7-8.7-0.3C310.3,116.4,314.3,117.8,316.1,116.3z"/>
		<path class="st1" d="M297.4,116.4c0.9-0.3,2.9,0.2,3-1.1c-1.1,0.2-2.6,0.3-3.5,0.6c-1.1,0.3-2.6,0.6-2.4,1.4
			C295.6,117.2,296.4,116.6,297.4,116.4z"/>
		<path class="st1" d="M290.8,114.1c-0.5,0.2-1,0.4-0.7,0.8c2.5-0.4,3.3-1.4,5.8-1.7c0.1,0.3-0.3,0.4-0.3,0.7
			c0.9-0.1,0.8-0.6,1.3-0.9c0.7,0,1.2,0.2,1.9,0.3c-0.4-1.2,1-0.4,1.3-0.5c1.9-0.3,4.3-0.4,5-1.1c-1.6-0.5-3.8-0.1-4.7,0.1
			c-1,0.1-2.9-0.2-3.8,0c-0.1,0-0.2,0.4-0.9,0.5c-0.9,0.1-1.9-0.3-2.9,0c-0.8,0.2-2.2,2-3.1,1.1
			C289.7,114.1,290.5,113.9,290.8,114.1z"/>
		<path class="st1" d="M272.7,125.4c0.1-0.2-0.3-0.2-0.5-0.1C271,126,272.4,126.6,272.7,125.4z"/>
		<path class="st1" d="M284.8,112.1c0.2,0,0.7-0.4,0.4-0.4C285.1,111.6,284.5,112,284.8,112.1z"/>
		<path class="st1" d="M281.9,115.5c0.1,0,0.6-0.4,0.3-0.5C282.1,115,281.7,115.4,281.9,115.5z"/>
		<path class="st1" d="M287.1,111.4c0.1,0,0.7-0.4,0.4-0.4C287.4,110.9,286.9,111.3,287.1,111.4z"/>
		<path class="st1" d="M280.7,117.6c2.4-0.5,5.1-2,6-2.6c-1-0.3-2.4,0.1-3.8,0.4c-0.1,0.4-0.2,0.8-0.6,1.2c-0.1-0.5-0.6-0.6-1.2-0.5
			C281.4,116.7,280.1,116.9,280.7,117.6z"/>
		<path class="st1" d="M281.9,110.9c0.2,0,0.6-0.4,0.4-0.5C282.1,110.4,281.6,110.9,281.9,110.9z"/>
		<path class="st1" d="M276.9,122.6c-1.2,0.6-2.5,1.2-2,2C275.8,124,277.3,123.5,276.9,122.6z"/>
		<path class="st1" d="M273.5,125c-0.1,0-0.5,0.4-0.3,0.5C273.4,125.5,273.8,125,273.5,125z"/>
		<path class="st1" d="M286,118.8c-1.1,0.2-1.5,0.3-3.2,0.5C283,120.2,285.7,119.6,286,118.8z"/>
		<path class="st1" d="M317,111.6c-0.1-0.1-0.7,0-0.5,0.2C316.6,111.9,317.2,111.8,317,111.6z"/>
		<path class="st1" d="M282.4,120.5c0.3-0.6,0.2-0.9-0.7-0.7c0.2,0.4,0,0.7-0.1,1L282.4,120.5z"/>
		<path class="st1" d="M280.7,121.2c-0.8,0.5-3.6,0-3.2,1.7C278.4,122.4,280.6,122,280.7,121.2z"/>
		<path class="st1" d="M248.6,211.1l-0.6,0.4c0.1,0.6,0.2,1,0.2,1.2C248.2,212.5,248.3,211.9,248.6,211.1z"/>
		<path class="st1" d="M271.7,177.8l-8.6,5.2c1,5.8,2,12.1,2.8,16.9l2.5-1.5l-2.5,1.6c0.3,1.6,0.5,3.1,0.7,4.2l5-3v-2.4l-3.3,2
			l3.3-2.1V177.8z"/>
		<path class="st1" d="M250.1,205.2c0.4-1.5,0.8-3.1,1.3-4.8l-4.9,3.1c0.2,1.3,0.5,2.5,0.7,3.5L250.1,205.2z"/>
		<path class="st1" d="M260.3,203.6l-4,2.6c-0.4,1.6-0.9,3.4-1.4,5.2l6.1-3.7C260.8,206.3,260.5,204.9,260.3,203.6z"/>
		<path class="st1" d="M262,213.9c0,0-0.2-1.4-0.6-3.4l-2.2,1.4l2.2-1.4c-0.1-0.7-0.2-1.4-0.4-2.2l-6.5,4.2
			c-0.9,3.2-1.7,6.6-2.6,9.9l13.9-8.5H262z"/>
		<path class="st1" d="M248.7,210.3c0.3-1.2,0.8-2.9,1.3-4.8l-2.9,1.8c0.3,1.5,0.5,2.7,0.7,3.6L248.7,210.3z"/>
		<path class="st1" d="M334.2,132.7c0.5-0.3,0.6-0.9,0.3-1.4c-0.3-0.5-0.9-0.6-1.3-0.4l-71.5,43.5c0.2,1.3,0.4,2.7,0.7,4.1
			L334.2,132.7z"/>
		<path class="st1" d="M256.4,205.7l3.9-2.3c-0.6-3.5-1.1-6.8-1.2-7.6c-0.1,0.4-0.6,2.2-1.3,4.8l0.2-0.1l-0.2,0.1
			C257.4,202.1,256.9,203.8,256.4,205.7z"/>
		<path class="st1" d="M271.7,177.4v-0.2h0.2l64.8-41.3c0.5-0.3,0.6-0.9,0.3-1.4c-0.3-0.5-0.9-0.6-1.3-0.4l-73.4,44.6
			c0.2,1.3,0.5,2.7,0.7,4.2L271.7,177.4z"/>
		<path class="st1" d="M331.2,128.7c-0.3-0.5-0.9-0.6-1.3-0.4l-68.9,41.8c0.2,1.1,0.4,2.5,0.7,4l69.2-44.1
			C331.3,129.8,331.4,129.2,331.2,128.7z"/>
		<polygon class="st1" points="279.4,192.7 279.4,193.8 281.1,192.7 		"/>
		<polygon class="st1" points="283.8,182.4 279.4,185.1 279.4,187.7 281.8,187.7 290.1,182.4 		"/>
		<polygon class="st1" points="279.4,182.4 279.4,185 283.5,182.4 		"/>
		<path class="st1" d="M326.5,120.6c-0.3-0.1-0.7-0.4-0.9-0.2C325.9,120.5,326.4,120.8,326.5,120.6z"/>
		<path class="st1" d="M330.7,123.7l1.4,1l0.4-0.5C331.8,123.8,330.9,122.7,330.7,123.7z"/>
		<path class="st1" d="M331.6,122.4c-0.1-0.1-0.6-0.3-0.5,0C331.1,122.6,331.7,122.7,331.6,122.4z"/>
		<path class="st1" d="M330.9,122.7c-0.1-0.1-0.6-0.3-0.5,0C330.4,122.8,331,122.9,330.9,122.7z"/>
		<path class="st1" d="M334.8,130.6c0.9,0,2.2,3.4,3.4,2.6c-0.3-1.6-1.9-3.6-3.1-5.4c-0.8-0.9-1.4-3.2-2.9-2.6
			C333.4,127.1,334.5,128.8,334.8,130.6z"/>
		<path class="st1" d="M312.8,117.9c1,0.4,1,0.9,1.8,1.5c-0.2-0.1,0.7-0.3,0.3,0.4c2.7,0.7,4.6,0.6,7.3,2c0.5,0.2,0.5-0.3,1-0.2
			c0.5,0.6,1.3,0.8,2.7,1.8c0.4-2.2-3.7-3.7-5.4-5.2C317.8,118.1,315.3,117,312.8,117.9z"/>
		<path class="st1" d="M291.7,177.2l50.2-31.8c0.5-0.3,0.6-0.9,0.3-1.4c-0.3-0.5-0.9-0.6-1.3-0.4l-55.2,33.6H291.7z"/>
		<path class="st1" d="M294.1,177.2v2.6l49.4-31.4c0.5-0.3,0.6-0.9,0.3-1.4c-0.3-0.5-0.9-0.6-1.3-0.4l-50.2,30.5H294.1z"/>
		<path class="st1" d="M294.1,180.4v2h-3.2l-8.7,5.3h6.8l55.8-35.6c0.5-0.3,0.6-0.9,0.3-1.4c-0.3-0.5-0.9-0.6-1.3-0.4L294.1,180.4z"
			/>
		<path class="st1" d="M285.2,177.2l54.8-34.7c0.5-0.3,0.6-0.9,0.3-1.4c-0.3-0.5-0.9-0.6-1.3-0.4l-60,36.5H285.2z"/>
		<path class="st1" d="M337.4,137.8l-64.9,39.4h6.4l59.5-37.6c0.5-0.3,0.6-0.9,0.3-1.4C338.4,137.7,337.8,137.6,337.4,137.8z"/>
		<path class="st1" d="M290,187.7h1.3v3.6l54.6-35.2c0.5-0.3,0.6-0.9,0.3-1.4c-0.3-0.5-0.9-0.6-1.3-0.4L290,187.7z"/>
		<path class="st1" d="M273.3,202.8h-1.7v-1.3l-4.9,3.2c0.2,0.9,0.3,1.6,0.4,2.2L273.3,202.8z"/>
		<path class="st1" d="M169.3,121.3c0.1,0,0.5-0.4,0.3-0.4C169.4,120.8,169,121.2,169.3,121.3z"/>
		<path class="st1" d="M196.2,249.6c0-0.1-0.6-0.4-0.5-0.1C195.7,249.7,196.3,249.9,196.2,249.6z"/>
		<path class="st1" d="M195.6,249c0.1-0.1,0-0.5-0.3-0.3C195.1,248.8,195.3,249.2,195.6,249z"/>
		<path class="st1" d="M170.9,120.9c0.1,0,0.5-0.4,0.3-0.4C171,120.4,170.6,120.9,170.9,120.9z"/>
		<path class="st1" d="M164.3,125.1l1-0.7c-0.8-0.3-0.3-0.9-1-0.8C164.6,124.1,163.6,124.6,164.3,125.1z"/>
		<path class="st1" d="M168.4,121.4c-0.4,1.1-2.6,0.7-2.9,2.4C167,122.7,169.2,121.9,168.4,121.4z"/>
		<path class="st1" d="M221.1,129.8c-0.1-0.1-0.6-0.2-0.5,0.1C220.6,130,221.2,130.1,221.1,129.8z"/>
		<path class="st1" d="M151.8,178.5c0-0.1-0.3-0.6-0.4-0.3C151.3,178.3,151.7,178.8,151.8,178.5z"/>
		<path class="st1" d="M162.1,126.3C164.6,125.2,163.1,124.2,162.1,126.3L162.1,126.3z"/>
		<path class="st1" d="M157.9,185.5c0.2,0.3,0.3,0.8,0.6,0.7C158.3,185.9,158.2,185.4,157.9,185.5z"/>
		<path class="st1" d="M158,185c0-0.1-0.4-0.5-0.4-0.3C157.5,184.8,157.9,185.2,158,185z"/>
		<path class="st1" d="M201.1,254.9c-0.3-0.2-0.7-0.6-0.9-0.4C200.6,254.7,200.9,255.1,201.1,254.9z"/>
		<path class="st1" d="M202.8,126.6c0.1,0.1,0.6,0,0.5-0.2C203.2,126.3,202.6,126.4,202.8,126.6z"/>
		<path class="st1" d="M148.9,144.6c0.2-0.6,0.7-1.4,0.4-1.7C148.7,143.3,148.3,144.3,148.9,144.6z"/>
		<path class="st1" d="M146.2,155.3C145,157,147.2,156.7,146.2,155.3L146.2,155.3z"/>
		<polygon class="st1" points="146.9,152.4 146.3,152.3 146.2,153.2 146.8,153.3 		"/>
		<path class="st1" d="M146.1,167.2c-0.1,0.1,0.2,0.7,0.4,0.4C146.6,167.5,146.2,167,146.1,167.2z"/>
		<path class="st1" d="M147,170.7c0.1-0.1-0.2-0.6-0.4-0.4C146.6,170.4,146.9,170.9,147,170.7z"/>
		<polygon class="st1" points="146.6,165.4 146,165.4 146.1,166.3 146.7,166.2 		"/>
		<path class="st1" d="M160.6,127.7c0.3-0.4,0.9-0.8,0.7-1.1c-0.4,0.6-2.1,1.4-1.7,1.9L160.6,127.7z"/>
		<path class="st1" d="M155.9,132.6c0.4-0.4,0.7-0.2,1.1-0.8C156.9,130.9,155.3,132.3,155.9,132.6z"/>
		<path class="st1" d="M157,131.3c0.1,0,0.3-0.6,0.1-0.5C157,130.8,156.8,131.4,157,131.3z"/>
		<path class="st1" d="M150.7,139.4c-1,1.7-0.6,1.5-1.5,3.1C149.7,143.2,151.6,139.4,150.7,139.4z"/>
		<path class="st1" d="M152.6,137.1c0.1-0.1,0.2-0.6,0-0.5C152.5,136.7,152.4,137.2,152.6,137.1z"/>
		<path class="st1" d="M154.9,133.5C152.4,135.5,154.1,136.5,154.9,133.5L154.9,133.5z"/>
		<path class="st1" d="M327.7,219c1-1.5-1.4,0.6-0.6,0.7C326.8,220.9,327.2,219.5,327.7,219z"/>
		<path class="st1" d="M325,235.4c-0.8,1-2.2,1.8-2.2,2.6c1.6,0,2.4-2.3,3.1-3.7C326,232.8,325.2,235.1,325,235.4z"/>
		<path class="st1" d="M319.2,247.3c0.4,0.1,0.9,0,1.4-0.7C320.4,246,319.8,246.8,319.2,247.3z"/>
		<path class="st1" d="M318.2,243.6c1.9-0.9,3-3.3,3.9-4.3C320.8,238.9,319.9,242.2,318.2,243.6z"/>
		<path class="st1" d="M148.8,135.6c0.1,0.1,0.5-0.1,0.2-0.4C148.9,135.1,148.5,135.3,148.8,135.6z"/>
		<path class="st1" d="M329.2,217.8c0.3,0.6-1.8,2.1-0.7,2.5C329.4,219.2,330.1,218.2,329.2,217.8z"/>
		<path class="st1" d="M147.6,176.5c-0.1,0.1,0.3,0.6,0.4,0.4C148.1,176.7,147.7,176.2,147.6,176.5z"/>
		<path class="st1" d="M327.9,221.6C326.4,222.4,329.4,221.3,327.9,221.6L327.9,221.6z"/>
		<path class="st1" d="M311.7,240.4c0.6,0.4,1.3-0.4,1.5-1.2C312.8,239.1,312.2,240,311.7,240.4z"/>
		<path class="st1" d="M315.1,237.2c-0.4-0.2-1,0.7-1.5,1.2C314,238.6,314.6,237.7,315.1,237.2z"/>
		<path class="st1" d="M314.4,247.2c0.5,1.1,1.6-1.1,2.4-1.7l-0.4-0.4L314.4,247.2z"/>
		<path class="st1" d="M316.9,245c0.3,0.2,0.8-0.5,1.2-0.9C317.8,243.9,317.3,244.6,316.9,245z"/>
		<path class="st1" d="M313.5,249.1c0.5-0.2,0.4-0.8,0.5-0.9C314.8,246.3,313.1,249.2,313.5,249.1z"/>
		<path class="st1" d="M207.2,256c0.2-0.2-0.3-0.8-0.6-0.6C207,255.7,206.8,256.2,207.2,256z"/>
		<path class="st1" d="M193.7,240.1c0-0.2-0.5-0.4-0.5-0.1C193.2,240.1,193.8,240.3,193.7,240.1z"/>
		<path class="st1" d="M185.8,229.4c-0.3-0.4-0.1-0.8-0.6-0.7C185,229,185.4,229.6,185.8,229.4z"/>
		<path class="st1" d="M187.2,227.8C186.7,227.8,187.2,228,187.2,227.8L187.2,227.8z"/>
		<path class="st1" d="M176,239.2c0.1-0.1,0-0.5-0.3-0.4C175.6,239,175.7,239.4,176,239.2z"/>
		<path class="st1" d="M184.3,229.5c0-0.2-0.5-0.4-0.5-0.2C183.8,229.5,184.3,229.8,184.3,229.5z"/>
		<path class="st1" d="M298.4,260.6c1.1,0.1,3-1.8,3.7-3.2c2.4-1.9,5-4.4,7.6-6.7c1.3-1.3,2.8-3.4,4.3-5.2c0.7-0.9,2.9-2.5,2.2-3.2
			c0,0.2,0,0.4-0.1,0.5c-0.4,0.7-1,0.5-1.5,1.2c-0.3,0.3-0.3,0.8-0.8,1.3C309.8,249.3,303.7,255.2,298.4,260.6z"/>
		<path class="st1" d="M286.5,128.1c0.1,0,0.5-0.3,0.3-0.4C286.7,127.6,286.3,128,286.5,128.1z"/>
		<path class="st1" d="M264.6,137.3c0.2,0.3,0.8-0.1,0.7-0.5C265,137.1,264.5,136.8,264.6,137.3z"/>
		<path class="st1" d="M269.4,134.2c1.3-1,3.9-1.8,4.4-2.8C272.6,131.9,269.8,132.8,269.4,134.2z"/>
		<path class="st1" d="M268.9,134.2c-0.1,0-0.5,0.5-0.2,0.5C268.8,134.7,269.1,134.2,268.9,134.2z"/>
		<path class="st1" d="M152.2,179.8c0-0.1-0.3-0.6-0.4-0.3C151.7,179.6,152.1,180,152.2,179.8z"/>
		<path class="st1" d="M177.8,220c0.2-0.2-0.2-0.9-0.5-0.7C177.1,219.6,177.4,219.8,177.8,220z"/>
		<path class="st1" d="M341.1,187.9l-32.7,19.8h5.4l28.2-18.1c0.5-0.3,0.6-0.9,0.3-1.4C342.2,187.8,341.6,187.6,341.1,187.9z"/>
		<path class="st1" d="M340.8,192.5c0.1-0.3,0.2-0.6,0.2-0.9c-0.6,0-0.8,0.6-0.9,1.2l-24.7,15h5l18.7-12c0.1,0,0.1,0.1,0.2,0.1
			c0-0.1,0-0.2,0.1-0.2l2-1.3c0.5-0.3,0.6-0.9,0.3-1.4C341.5,192.6,341.1,192.4,340.8,192.5z"/>
		<path class="st1" d="M344.8,183.5c-0.3-0.5-0.9-0.6-1.3-0.4l-26,15.8c0-0.5-0.1-0.9-0.3-1.3l28.8-18.5c0.5-0.3,0.6-0.9,0.3-1.4
			c-0.3-0.5-0.9-0.6-1.3-0.4l-50,30.4h6.5l12.1-7.8c0.2,0.4,0.5,0.7,0.8,0.9l-11.4,6.9h5.4l35.4-22.4c-0.1,0.2-0.3,0.4-0.5,0.6
			c0.5,0.6,1-0.3,1.2-1.1C344.9,184.5,345,184,344.8,183.5z"/>
		<path class="st1" d="M332.7,213.4c0.5,0.1,0.2-0.4,0.5-0.8C332.9,212.5,332.5,213.2,332.7,213.4z"/>
		<path class="st1" d="M150.3,185.6c0,0.2,0.4,0.6,0.4,0.3C150.8,185.8,150.4,185.3,150.3,185.6z"/>
		<path class="st1" d="M347.9,187.4c-0.8-0.9-1.4,1.8-2.1,2.6C346.5,190.8,348.1,187.2,347.9,187.4z"/>
		<path class="st1" d="M344.5,196.3c0.5,0,0.2-0.4,0.5-0.8C344.5,195.4,344.2,196.1,344.5,196.3z"/>
		<path class="st1" d="M341.1,199.8c0,0.3,0.5-0.1,0.5-0.3C341.6,199.2,341.1,199.6,341.1,199.8z"/>
		<path class="st1" d="M334,210.9c1.3,0.2,2.6-3.2,3.4-4.5C336.3,206.8,335.2,209.5,334,210.9z"/>
		<path class="st1" d="M334.5,212.4c0,0.3,0.5-0.1,0.5-0.2C335,211.9,334.5,212.2,334.5,212.4z"/>
		<path class="st1" d="M336.7,202.1l-12.2,7.4v2.8l13.2-8.4c0.5-0.3,0.6-0.9,0.3-1.4C337.8,202,337.2,201.8,336.7,202.1z"/>
		<path class="st1" d="M338.9,204.5c0.4-0.9,0.1-1.8,1-2.2C340.3,201,337.3,204.3,338.9,204.5z"/>
		<path class="st1" d="M341.8,198c0,0.3,0.5-0.1,0.5-0.3C342.3,197.4,341.8,197.8,341.8,198z"/>
		<path class="st1" d="M359,168.8c-0.1,0.6,0,1.1,0.5,1.2C359.6,169.4,359.5,168.9,359,168.8z"/>
		<path class="st1" d="M362.6,172.8c0.3,0.1,0.4-0.5,0.6-0.8C362.9,171.8,362.7,172.4,362.6,172.8z"/>
		<path class="st1" d="M359.2,161.7c-0.3,0-0.4-0.5-0.6-0.6c0,0.8-0.2,1.3-0.3,1.7l0.9,0L359.2,161.7z"/>
		<path class="st1" d="M346.8,209.2c1.1-0.5,2.3-3.4,3.3-4.9C348.9,204.2,347.5,207.5,346.8,209.2z"/>
		<path class="st1" d="M363.2,169.2c0.1,0.3,0.5-0.2,0.4-0.4C363.6,168.6,363.2,169.1,363.2,169.2z"/>
		<path class="st1" d="M364.6,167.6C363.4,168.8,365.9,166.6,364.6,167.6L364.6,167.6z"/>
		<path class="st1" d="M350.4,203.9c0.7-2.3,2.2-4.5,3.4-6.6c0,0-0.3-0.2-0.3-0.2C352.7,199,349.3,201.9,350.4,203.9z"/>
		<path class="st1" d="M355.3,179.9c0.3,0.1,0.4-0.5,0.6-0.8C355.7,179,355.5,179.5,355.3,179.9z"/>
		<path class="st1" d="M357.4,144.6c0.2,0.8-0.2,0.9,0.2,1.8C358.5,147.2,357.9,144.2,357.4,144.6z"/>
		<path class="st1" d="M356.1,169.7c-0.1,0.3-0.3,0.6-0.4,0.9c0.1,0,0.2-0.1,0.3-0.2c-0.1,1.7-0.2,3.3,0.1,4.9
			c1.8-5.8,2.1-12.8,1.5-17.7C357.4,162.4,356.5,166.2,356.1,169.7z"/>
		<path class="st1" d="M356.1,178.6c-0.1,0.6,0.2,0.4,0.6,0.1C356.8,178.2,356.3,178,356.1,178.6z"/>
		<path class="st1" d="M345.1,190.1c0.7,0.3,0.8-1.4,0.9-1.7C345.1,188.3,345.8,189.5,345.1,190.1z"/>
		<path class="st1" d="M160.9,209.4c-0.1,0.4,0.9,3.2,1.6,2.2C161.5,210.9,162,209.7,160.9,209.4z"/>
		<path class="st1" d="M168.6,222.5c0,0.2,0.5,0.5,0.5,0.2C169.1,222.6,168.6,222.2,168.6,222.5z"/>
		<path class="st1" d="M167,219.1c0.1,0.2,0.5,0.3,0.2-0.2c-1.1,0.7-0.8-1.9-2-1.9c0.1,1.2,1.8,2.9,2.1,4.2
			C168.6,220.4,166.7,219.9,167,219.1z"/>
		<path class="st1" d="M169.1,223.3c0,0.2,0.5,0.5,0.5,0.2C169.6,223.3,169.1,223,169.1,223.3z"/>
		<path class="st1" d="M195.9,254c0-0.1-0.6-0.4-0.5-0.1C195.4,254,196,254.2,195.9,254z"/>
		<path class="st1" d="M198,256.4c-0.2,0.2,0.3,0.8,0.7,0.6C198.2,256.7,198.4,256.2,198,256.4z"/>
		<path class="st1" d="M191.3,250.2c0.8,0.3,1.9,2.2,2.5,1.3C192.9,250.8,191.9,249.5,191.3,250.2z"/>
		<path class="st1" d="M152.8,192c-0.2,0.1-0.2,0.5,0.2,0.4C153.1,192.3,153.1,191.9,152.8,192z"/>
		<path class="st1" d="M157.4,203c0.4,0.6,0.7,1.4,1.1,0.9l-0.4-0.8C157.8,203.2,157.6,202.9,157.4,203z"/>
		<path class="st1" d="M152.9,192.9c0.2,0.5-0.1,0.8,0.4,0.8C153.5,193.6,153.3,192.9,152.9,192.9z"/>
		<path class="st1" d="M155.8,199.2c0,0.1,0.4,0.6,0.5,0.3C156.3,199.3,155.8,198.9,155.8,199.2z"/>
		<path class="st1" d="M153.7,194.6c0.4,0.5,0.7,2.3,1.2,2l-0.6-1.2C154.1,195,153.9,194.5,153.7,194.6z"/>
		<path class="st1" d="M241.7,142.7c0.3-0.2,1,0,0.5-0.7C242,142.2,241.2,142,241.7,142.7z"/>
		<path class="st1" d="M204.4,252.5c-0.3-0.2-0.6-0.6-0.8-0.4C203.8,252.4,204.2,252.8,204.4,252.5z"/>
		<path class="st1" d="M195.3,243.5c-0.1,0.1,0,0.5,0.3,0.3C195.7,243.7,195.6,243.3,195.3,243.5z"/>
		<path class="st1" d="M337.1,198.3c0,0.3,0.5-0.1,0.5-0.2C337.6,197.8,337.1,198.2,337.1,198.3z"/>
		<path class="st1" d="M324.5,207.7v1.3l14.6-9.3c0.5-0.3,0.6-0.9,0.3-1.4c-0.3-0.5-0.9-0.6-1.3-0.4l-16,9.7H324.5z"/>
		<path class="st1" d="M338.1,197.3c0-0.3-0.5,0.1-0.5,0.2C337.6,197.8,338.1,197.5,338.1,197.3z"/>
		<path class="st1" d="M164.9,223.5c0-0.2-0.5-0.5-0.5-0.2C164.4,223.4,165,223.8,164.9,223.5z"/>
		<path class="st1" d="M251.5,140.8c1-0.7,0.4-1,1.4-1.1l-0.5-0.7C251.5,139.6,251.6,140.2,251.5,140.8z"/>
		<path class="st1" d="M203.8,262.2C202.3,262.3,205.4,262.7,203.8,262.2L203.8,262.2z"/>
		<path class="st1" d="M334.6,209.2c0.5-0.3,0.6-0.9,0.3-1.4c-0.3-0.5-0.9-0.6-1.3-0.4l-9.1,5.5v0.9H323l-22.1,13.4l21-13.4h-4.7
			l-10.9,6.6l10.5-6.6h-4.9l-5.4,3.3c0-0.2-0.1-0.3-0.2-0.5l4.4-2.8h-26l-8.3,5l7.8-5h-13.8l-1.9,1.2l1.8-1.2h-3.7l-14.9,9.6
			c-0.5,1.7-0.9,3.4-1.3,5l10.7-6.5l-10.8,6.8c-0.4,1.6-0.8,3-1.2,4.4l25.8-15.7l-26.1,16.7c-0.5,2-0.9,3.6-1.2,4.6l31.6-19.2
			l-62.4,40.1c-0.5-0.4-1-0.9-1.5-1.3l31.5-19.2c-0.1-0.6-0.3-1.8-0.6-3.4l-32.7,20.9c-0.4-0.4-0.9-0.8-1.3-1.3l33.8-20.5
			c-0.2-0.9-0.4-2-0.6-3.2l-34.5,21.9c-0.1-0.2-0.3-0.3-0.4-0.5c-0.2,0.1-0.4,0.4-0.7,0.2c0-0.1-0.1-0.2-0.2-0.3l35.7-21.7
			c-0.2-1.1-0.4-2.3-0.7-3.5l-36.4,23.4c-0.6-0.6-1.3-0.9-1.9-0.6c0.3,0.4,0.7,0.7,1,1.1l-3.2,2.1c-0.6-0.6-1.1-1.1-1.6-1.6
			l41.9-25.5c-0.2-1-0.4-2.1-0.6-3.2l-42.8,27c-0.1-0.1-0.2-0.2-0.3-0.3c-0.2-0.2-0.3-0.3-0.4-0.5l43.4-26.4
			c-0.2-1.2-0.5-2.5-0.7-3.7l-44.4,28.6c-0.1-0.1-0.1-0.1-0.2-0.1c-0.5-0.6-0.9-1.3-1.3-2l45.6-27.7c-0.2-1.2-0.4-2.3-0.7-3.5
			L197,244c-0.2-0.1-0.4-0.2-0.4,0c0,0,0.1,0.1,0.1,0.1l-0.8,0.5c-0.6-0.6-1.1-1.1-1.4-1.4l47.5-28.9c-0.2-1.2-0.4-2.3-0.6-3.4
			l-5.7,3.7c0-0.2-0.1-0.3-0.2-0.5l5.9-3.6c-0.2-1.1-0.4-2.3-0.6-3.4l-7.3,4.6c-0.2,1.4-0.4,2.2-0.4,2.2H230l-37.9,24
			c-0.2-0.4-0.4-0.8-0.8-0.5c-0.1,0.2,0.1,0.5,0.3,0.8l-0.9,0.6c-0.4-0.3-0.7-0.6-1-1l39.3-23.9h-5.6l-3,1.9
			c-0.1-0.2-0.1-0.4-0.2-0.5l2.2-1.3h-11.9l-3,1.9c0-0.4-0.1-0.7-0.2-1.1c0-0.1,0-0.2-0.1-0.3l1-0.6h-7.2c-0.2,0.5-0.2,0.9-0.2,1.4
			l-17,10.9c-0.1-0.3-0.2-0.5-0.4-0.6c-0.3-0.1,0,0.4,0.2,0.7l-1.8,1.1c-0.4-0.6-0.8-1.1-1.2-1.5l19.8-12h-4.9l-13.9,8.8
			c0,0,0-0.1-0.1-0.1c-0.1-0.2-0.5,0.1-0.7-0.5c-0.1-0.3,0-0.5-0.1-0.8l12.1-7.3h-4.7l-7.4,4.8c-0.6-0.8-1.2-0.5-0.4,0.2l-0.7,0.5
			c-0.4-0.6-0.9-1.1-1.3-1.7l6.2-3.8h-4.3l-1.8,1.1c-0.3-0.3-0.6-0.5-0.9-0.7l0.7-0.4h-5.1c0.1,0.1,0.2,0.3,0.4,0.4l-0.7,0.5
			c-0.1-0.3-0.3-0.5-0.5-0.8l0.1-0.1h-1.8v-2.6c-0.2-0.2-0.3-0.4-0.5-0.7l0.5-0.3v-2.7c-0.1-0.2-0.3-0.4-0.4-0.6l0.9-0.6
			c0.2,0.3,0.3,0.6,0.4,0.8l-0.6,0.4h4.1l22.7-13.8v-3.2l-10.8,6.8c-0.1-0.2-0.2-0.3-0.3-0.5l11.1-6.7v-3.5l-23.1,14.8
			c0.4-0.6,0.6-1.4,0.5-2.1l22.5-13.7v-3.8l-23.4,15.1c-0.3-0.6-0.8-1.1-1.4-1.4l24.8-15.1v-3.1l0.2,0c1.7-0.2,3.7-0.4,5.9-0.5
			l27.5-16.7L205.6,177c0.8,0,1.5,0,2.3,0c1.6,0,3,0.1,4.2,0.2l18.3-11.1l-17.5,11.2c3.2,0.4,5.3,1.1,7.5,2.4
			c0.2,0.1,0.3,0.2,0.5,0.3l13.1-8c0.1-0.5,0.1-0.7,0.1-0.7l1.9-10.9l-13.6,8.2l13.7-8.8l0.7-4.1h0.4c0,0,0.2,1.1,0.6,3l10.2-6.6
			h1.7l-11.8,7.2c0.2,1.1,0.5,2.5,0.8,4l59-37.7c0.2,0,0.3,0.3,0.8,0.1c0.4-0.2,0.3-0.6,1-0.8c1.1-0.3,2.2-0.3,3.3-0.4l-64.1,38.9
			c0.8,4.3,1.9,10,3,16l13.6-8.3l-13.6,8.7c0.3,1.4,0.5,2.8,0.8,4.2l7.9-4.8l-7.9,5c0.2,1.3,0.5,2.6,0.7,3.9l12.5-7.6l-12.4,7.9
			c0.2,1.3,0.5,2.6,0.7,3.9l11-6.7c0.2-0.9,0.5-1.9,0.7-2.8l-0.2,0.1l0.2-0.1c0.5-2,1-3.9,1.5-5.6l-3,1.8l3-1.9
			c0.5-2.1,1-3.9,1.4-5.4l-13.9,8.4l14-9c0.6-2.2,0.9-3.5,0.9-3.5l0.4,0c0,0,0.1,0.9,0.4,2.3l66.7-42.8c0.2-0.1,0.3-0.3,0.4-0.5
			c0.2,0.1,0.3,0.3,0.5,0.4c1.2,0,3,0.9,3.7,2.4c0.9-0.8,0.5-1.8-0.9-2.8c0.2-1.2-2.1-3.9-3.8-4.2c0.8,1.2,2.1,2.7,1.9,3.9
			c-0.8,0-1.5-1.4-2.6-1.9c-0.8-0.3-1,0.4-1.7-0.3c0-0.5-0.5-0.9-1.1-1.3c-0.2,0.9-0.6-0.1-0.8-0.1c-0.5,0-0.5,0.3-1.3,0.1
			c-0.2-0.1-0.4-0.2-0.5-0.3c0,0,0-0.1,0-0.1c-0.1-0.3-0.4-0.4-0.6-0.5c0,0-0.1-0.1-0.1-0.1c-0.4-0.2-1.2-0.1-1.6-0.2
			c-0.4-0.1-0.8-0.6-1-0.6c-0.8-0.2-1.5,0.6-2.3,0c0,0,0-0.1-0.1-0.1c0.1-0.3,0-0.7-0.3-0.3c0,0.1,0,0.1,0,0.1
			c-0.3-0.1-0.6-0.1-0.8,0.1l-3.7,2.3c-0.5,0.1-0.8,0.2-0.7,0.4l-47.8,29.1l48.4-30.6c0.2-0.1,0.3-0.3,0.4-0.4
			c1,0.1,1.9,0.1,2.4-0.7c-1-0.3-1.8-0.5-2.5-0.4c-0.3-0.4-0.8-0.5-1.2-0.2l-0.4,0.2c-1.7-0.4-3.1,0.4-4.2,0.6c-0.1,0-0.3,0-0.4,0
			l0.1-0.1c0.3-0.2,0.4-0.5,0.5-0.9c0.1,0,0.1,0,0.2,0c0.4,0,0.7-0.3,0.8-0.4c0.4,0,0.7,0.3,0.8,0.3c1.4,0.1,3.4-0.5,5.2-0.3
			c0.1-1.2-1.4-1.5-2.3-2.1c-1.5,0.2-3.2,0.4-3.8,0.2c-0.4-0.1-0.7,0.3-0.8,0.4c-0.7,0.1-0.5-0.1-1.2,0.1c-1.2,0.2-2.3,0.7-3.7,1
			c-1.8,0.3-3.6,0.4-5.4,1c-0.9,0.3-1.6,0.9-2.5,1.2c-0.3-0.2-0.7-0.2-1,0l-0.2,0.1c0,0-0.1,0-0.1,0.1l-0.9,0.6
			c-2,0.7-3.6,1.4-5,2.1c0,0-1.3,0.5-1.2,0.5c-0.5,0.3-0.5,0.8-1,1.1c-0.6,0.3-1.5,0.2-2.1,0.6c-0.8,0.4-1.3,1.2-2.1,1.6
			c-0.3,0.1-0.5,0.2-0.7,0.2l0.9-0.5c0.4-0.2,0.5-0.6,0.5-1c0,0,0,0,0.1,0c0.4-0.1,0.4-0.5,0.7-0.6c10.1-5.3,17.3-7.7,27.1-8.8
			c0.3-1.3-1.8-0.8-2.6-0.9c-1.2-0.2-0.8-0.6-1.7-0.2c-0.9,0.4-3.4,0.8-3.9,0.8c-0.4,0-0.5,0.4-0.8,0.4c-1.6,0.4-4.3,1.2-4.6,1.3
			c-0.5,0.2-0.7-0.2-1.3,0c-0.8,0.3-1.6,1-2.4,1.3c-1.6,0.7-3.2,1.3-4.9,2c-3.3,1.4-4.9,2.3-7.1,3.4c-0.9,0.5-1.9,0.5-2.9,1.1
			c-0.7,0.4-1.3,1.3-2.1,1.8c-0.8,0.5-1.7,0.5-2.5,1c-1.8,1.2-3.4,2.8-5,3.7c-1.1,0.5-1.9,0.9-2.9,1.2c-0.1,0.2,0,0.5,0,0.7
			l-6.9,4.2c0,0,0,0,0,0c-0.7,0.5-0.9-0.3-1.8,0.6c0.2,0.2,0.4,0.7,0.7,0.8c0,0.2,0,0.4,0.1,0.6c-1.2,1.1-2.4,2.2-3.5,3.2l-1,0.8
			l-0.1,0.1l0,0l0,0l0,0v0h-2.7c-0.1,0-0.2,0-0.3,0h-3.8v0l0,0l0,0l-0.2-0.2l-0.1-0.1l0.8-0.6c0.4-0.3,0.6-0.9,0.3-1.4
			c-0.3-0.5-0.9-0.6-1.3-0.4l-1.5,0.9c-0.1-0.1-0.3-0.2-0.4-0.3c-0.2-0.1-0.4-0.3-0.7-0.4l1.2-0.8c0.5-0.3,0.6-0.9,0.3-1.4
			c-0.3-0.5-0.9-0.6-1.3-0.4l-0.5,0.3c-0.3-0.2-0.5-0.4-0.8-0.6l0.2-0.2c0.3-0.2,0.4-0.5,0.4-0.8c0.9,0.6,2,1.3,3,2l1.6,1.1l0.8,0.6
			l0.1,0.1l0,0l0,0v0c1.2,0-2.7,0,2.7,0l0,0l0,0l0,0l0.2-0.2l0.3-0.3c0.8-0.8,1.9-1.5,2.8-2.3c0.6-0.6,2.2-2,1.6-2.4
			c-0.6,0.2-0.8,0.9-1.3,1.4c-0.4,0.4-0.8,0-1.3,0.6c-0.2,0.2,0.1,0.7-0.3,1c0,0-0.8,0.3-1.2,0.6c-0.3,0.2-0.5,0.5-0.7,0.8l-0.2,0.4
			l-0.1,0.1l0,0l0,0v0h-2.3l0,0l0,0l0,0l0,0c-0.4-0.4-0.8-1.4-1.3-1.9c-0.4-0.4-0.7-0.2-1.2-0.6c-1.8-1.4-3.3-3.1-5.2-3.6
			c0-1.1-1.8-1.6-3-2.1c0.3-0.5-1.1-1-0.6-1.5c-1.2-1.1-1.5,0.3-2.7-0.7c-0.2-0.8-2.6-1.4-4.1-1.9c0.3-1-2.1-1.6-2.2-1.6
			c-0.2-0.1-0.1-0.7-0.5-1c0,0-0.6,0.3-0.7,0.3c-0.4-0.1-0.7-0.7-0.6-0.7c-3-1.2-4-1.6-5.8-2.4c-3.9-1.7-6.5-2.6-8.1-3.9
			c-0.7-0.2-0.6,0.6-1.5,0.1c-1.6-1-3.3-1.3-5-1.7c-4.1-0.8-8-1.9-12.4-2.1c-2,0-3.9,0.4-5.6,0.5c-2-0.1-4.2,0.1-6.2,0.6
			c-0.3,0-0.5,0.1-0.5-0.2c0.5-0.1,0.3-0.6,0.7-0.8c1.2-0.7,2.5-0.3,3-0.4c0.5-0.1,0.6-0.4,1.3-0.4c3.9-0.2,6.8,0.2,10,0.4
			c1.5,0,2.3,0.4,3.4,0.6c2.9,0.4,5.4,0.6,7.4,1.2c0.7,0.2,1.7,0.9,2.5,1.1c0.8,0.2,1.9,0.1,2.7,0.4c0.9,0.3,1.8,0.9,2.8,1.4
			c0.1,0,1.8,0.6,1.9,1.2c0.2-0.2,0.2-0.5,0.6-0.4c0.2,0.7,1.6,1.1,2.2,1.7c1.5-0.1,3.5,1,4.9,2.2c0.4-1.1-1.8-1.5-2.5-2
			c-1-0.7-1.7-1.5-2.6-1.9c-0.6-0.3-1-0.1-1.4-0.3c-0.8-0.3-0.8-0.7-1.5-1c-2.5-1.1-7.5-2.8-9.8-3.6c-0.7-0.3-1.5-0.1-2.2-0.3
			c-3.1-1-7.4-1.6-10.5-2.3c-1-0.2-1.4-0.4-2.2-0.7c-1,0.4,0.5,0.8-0.5,0.9c-4.6-0.9-10,0.2-13.7,1.2c-1.1,0.3-2.5,0.5-3.5,0.8
			c-1,0.5-3.1,2.1-3.5,2.2c-0.2,0.1-0.1-0.3-0.5-0.1c-1.4,0.9-2.7,2.3-3.5,2.8c0,0-0.6-0.3-0.7-0.2c-1,0.4-2.2,1.9-2.7,2.4
			c-1.6,1.6-2.8,2.4-3.9,3.7c-0.6,0.6-0.9,0.5-1.4,1.1c-0.4,0.4-0.3,0.7-0.7,1.2c-0.5,0.6-1.4,1.3-1.9,2c-0.3,0.5-0.5,1.2-0.6,1.3
			c-0.3,0.5-0.6,0.3-1.1,0.9c-0.9,1.6-3.6,5.9-4.2,7.7c-0.3,0.7,0.2,0.9-0.5,1.3c-0.3,0.1,0.1,0.6,0.1,0.5c-0.7,1.9-1.6,4.7-1.9,5.2
			c-0.2,0.4,0.2,0.5,0.2,0.5c-0.5,3.3-1.4,5.4-1.4,8.2c0,0.2,0,0.4,0.1,0.6c-0.3,1-0.6,2.1-0.7,3.2c-0.1-4.1,0.5-8.7,1.2-12.2
			c0.3-1.3,1.5-3.6,0.5-4.3c-0.9,2.7-1.7,7.8-2.2,11.7c-0.1,0.6-0.2,1.6-0.6,1.9c0.2,1,0.4,1,0.5,2.4c0.1,1-0.2,2.7,0.3,3.2
			c0,0.2,0,0.4,0,0.6l-0.1,0l0.1,1.1c0,1,0,1.9,0,2.8c0-0.2,0.1-0.4,0.2-0.5c0,0.9,0.2,1.7,0.8,1.7c-0.3-0.7-0.2-2.2-0.4-2.9
			c0.1-0.2,0.1-0.3,0.2-0.5c0.1-1.5,0-2.3-0.1-2.3c-0.1,0-0.2,0.2-0.3,0.5l0,0c0.3-1.2,0.5-2.3,0.8-3.5c-0.1,3-0.3,6,0.2,9
			c0.3,2.2,0.9,4.2,1.5,6.4c1.9,7.9,5.6,17.4,8.3,23.5c-1.5-2.7-2.8-5.4-4.1-8.4c-0.9-2.1-1.3-4.1-1.7-6.2c0.4,2.3,1,4.6,1.7,7.1
			c-0.1-0.1-0.1-0.1-0.2-0.1c0.1,0.2,0.2,0.5,0.4,0.7c0.1,0.3,0.1,0.5,0.2,0.8c0.8,2.9,2.9,5.8,5.2,9.2c0.8,1.6,1.7,3.4,2.7,5.2
			c-0.1,0.4-0.2,1,0.5,1.8c0,0,0,0.1,0.1,0.1c-1.4-1-0.4-2.7-1.8-2.6c0,0.7,1.1,3.1,1.8,2.7c1,1.6,2.1,3,3.1,4.4
			c0.3,1.4-0.3,3.3,1.3,3.4c-0.4-0.6-0.9-1.4-0.2-1.5c0.9,1.9,1.5,3,3.1,4.7c-0.7,0.4,0,1.3-0.2,1.9c0.5-0.2,0.2-1,0.7-0.5
			c0.8,1.1,1.5,2,2.1,2.9c0.3,0.7,0.7,1.3,1.1,1.7c0.2,0.3,0.5,0.6,0.7,0.9c0.8,1.1,1.4,2,2,2.8c0.5,0.7,1.4,2.6,2.5,2.2
			c-0.2-0.8-0.9-0.9-1.4-1.8c0-0.1,0-0.1,0-0.1c1.9,1.8,3.8,3.5,4.6,4c0.2,0.6,1.1,1.5,0.7,1.9c2.6,2.9,5.1,5.9,7.6,8.9l-0.3-0.2
			c-1.8-1.6-3.7-3.3-5.5-5.1c0,0,0-0.1-0.1-0.1c-0.5-1.6-1.9-2.3-2.7-3.2c-1-1.3-1.2-3-2.6-3.8c-0.6,0.4,0.4,1.9,0.7,2.4
			c-0.1-0.1,1,0.8,1.4,1.3c0.4,0.4,0.6,0.8,0.9,1.1c-3.8-3.8-7.5-8-10.9-12.2l0,0.2c0.4,0.5,0.7,1,1.1,1.4c-0.3-0.2-0.4-0.2-0.3,0.2
			c0.9,0.3,0.7,1.2,1.1,2.1c0.4-0.1,0.5-0.3,0.4-0.6c0.8,1.1,1.5,2.1,2.3,3.2c-0.4-0.5-0.8-0.8-1.1-0.9c0.8,1.2,2.1,4,3.4,4.2
			c0.7,1.1,1.4,2.1,2.1,3.2c-0.2-0.3-0.3-0.6-0.4-0.8c0,0,0.1,0,0.1,0c0.1-0.1,0.1-0.2,0-0.3c0.3,0.2,0.8,0.6,1.5,1.4l0.2,0.6
			c-0.1,0-0.2,0-0.2,0c-0.1,0.2,0,0.4,0.1,0.7c-3.1-3.1-6.1-6.4-7.9-10.4c0,0-1.4-1.5-2.1-2.2c-0.7-1.4-0.4-1.6-0.3-2l-0.7-0.9
			c0,0,0-0.1-0.1-0.1l-1.1-1.5c0.7,2.2,4.1,8.5,4.2,8.5c3.7,4.9,7.6,9.5,11.5,13.8c-0.2,0-0.1,0.1,0.1,0.1c2.3,2.6,4.7,5.1,7,7.5
			c0.1,0.5,0.3,0.9,0.6,1.4c0.3-0.1,0.8,0.2,1.2,0.4c0.3,0.3,0.6,0.6,0.9,0.9c0.1,0.3,0.8,1.1,1.5,1.5c1,0.9,1.9,1.9,2.9,2.8
			c0,0-0.1,0-0.1,0c0.5,0.4,1.2,1.3,1.6,1c-0.2-0.1-0.3-0.3-0.5-0.4c0.5,0.3,1.1,0.6,1.7,1.2c0.4,0.5,0.8,1,1.2,1.5
			c-0.5,1.2,3.4,3.1,3.6,4.4c0.3-0.3,0.2-0.7-0.1-1.1l1.2,1l0.1,0.1c-0.2,0-0.3,0-0.4,0.3c1,0.8,2.2,2.2,2.8,1.7
			c2.6,2.1,5.3,4.2,8,6.1c0.8,0.5,1.5,1,2.2,1.3c2.6,1.5,5.2,2.8,6.5,4.3l1.9,1.1l-0.3-0.3l0.7,0.5c0.5,0.3,1,0.5,1.5,0.7
			c0,0.1,0,0.1,0,0.2c0.2,0.1,0.4,0.1,0.5,0.1c0.1,0.1,0.3,0.1,0.4,0.2c0,0.1,0.1,0.2,0.3,0.3c0.1,0,0.2,0,0.4,0
			c0.4,0.2,0.8,0.4,1.2,0.6c0.8,0.6,1.4,1.3,2.5,1.8c2,0.9,3.6,1.3,5,1.7c0,0,0.4,0.4,0.8,0.6c0.5,0.2,1,0,1.4,0.2
			c1.2,0.5,5,2.2,6.3,0.8c-0.9-1.2-3-0.9-3.7-1.2c-0.1,0-0.3-0.2-0.4-0.3c1.1,0.1,2.2,0.2,3.4,0.1c1.4-0.1,2.8-0.3,4.2-0.6
			c0.2,0.2,0.4,0.3,0.6,0.3c0.2,0,0.3,0,0.5-0.1l1.8-1.1c0.2-0.1,0.3-0.1,0.5-0.2l2.7-1.6c-0.6,0.4-1.3,0.7-1.9,1l1.5-0.9
			c0.1,0,0.2-0.1,0.4-0.1l0-0.2l18.9-11.5l-14.2,10.2c-0.4,0.3-0.6,0.9-0.3,1.4c0.3,0.5,0.9,0.6,1.3,0.3l20.4-12.4
			c0.5-0.3,0.6-0.9,0.4-1.4c-0.2-0.3-0.5-0.5-0.8-0.5l15.7-11.3c0.4-0.3,0.6-0.9,0.3-1.4c-0.3-0.5-0.9-0.6-1.3-0.3l-3.9,2.3
			c0.4-0.4,0.8-0.8,1.2-1.2l11.4-7.7c0.4-0.3,0.6-0.9,0.3-1.4c-0.2-0.3-0.4-0.4-0.7-0.5c0.5-0.4,0.8-0.9,1-1.5
			c-0.3-0.5-0.7-0.2-0.5,0.1c-0.9,0.9-1.9,1.7-2.8,2.5l-22.1,13.4l26.6-18c-0.3,0.4-0.7,0.8-1,1c0.6,0.6,1.8-1,2.7-1.9
			c0-0.1-0.1-0.1-0.1-0.2l0.9-0.6c0,0.1,0,0.2,0.1,0.3c0-0.2,0.1-0.4,0.2-0.6l3.7-2.5c0.4-0.3,0.6-0.9,0.3-1.4
			c-0.2-0.4-0.7-0.6-1.1-0.4c0,0,0,0,0,0c0,0,0,0,0,0.1c0,0-0.1,0-0.1,0l-23.1,14l29.7-19.5c0.4-0.3,0.5-0.7,0.4-1.2
			c0.6-0.5,1.1-1.2,1.1-1.4c-0.4-0.3-1,0.2-1.6,0.9c-0.3-0.2-0.6-0.2-0.9,0l-40.1,24.4l46.2-30.8c-1.1,1.4-2.5,3.6-3.5,5
			c0.6-0.1,1.3-1,1.9-0.8c0.6-0.9,0.5-1.6,0.8-2.4c0.9-1.4,2-1.9,2.3-2.7l0.6-0.4c0.3-0.2,0.5-0.6,0.4-1c0.9-0.4,1.5-2.4,2.3-3.5
			c-1.4,0.7-0.8,0.9-1.2-0.4c-0.5,1.1-0.1,2-1.3,3.3c-0.3-0.4-0.8-0.5-1.2-0.2l-1.2,0.7c0.1-0.1,0.1-0.1,0.2-0.2
			c-0.2-0.1-0.5,0.2-0.8,0.6l-48.5,29.5l52-34.5c-0.4,0.5-0.7,1.1-0.9,1.7c1.1-0.3,1.7-1.6,2.5-2.7l2.9-1.9c-0.1,1.3,2-1,1.6-1.8
			c-0.1-0.1-0.3-0.1-0.4,0c0-0.1,0-0.1-0.1-0.2c-0.2-0.4-0.7-0.6-1.1-0.4c0.3-0.6,0.7-1.4,1.4-2.4c0.3-0.5,1.3-1.5,1.3-1.4
			c0.1-0.1,0.2-0.3,0.3-0.6L334.6,209.2z M321,123.7c0.3-0.2,0.4-0.5,0.5-0.8c0.4,0.1,0.7,0.2,0.7,0.2c0.2,0.1-0.3,0.6,0.1,0.7
			c0,0,0.4-0.5,0.6-0.4c1.2,0.3,2.5,1,3.7,1.9l-59.7,36.3l56.7-35.9c0.1-0.1,0.2-0.2,0.3-0.3c0.1,0,0.1,0,0.2,0
			c0.7-0.2,0.2-0.2-0.1-0.1c0.1-0.3,0.2-0.7,0-1c-0.3-0.5-0.9-0.6-1.3-0.4l-0.7,0.4c-0.4-0.2-0.8-0.3-1.1-0.5L321,123.7z
			 M321.1,124.8l-50.3,30.6l49.1-31C320.4,124.5,320.8,124.7,321.1,124.8z M315.4,122.5c0.3-0.2,0.5-0.6,0.5-1
			c0.2,0.2,0.5,0.3,0.6,0.5c0.7,0.1,1.7,0,2.7,0.2c0.1,0,0.2,0,0.2,0l-1.1,0.7c-0.8-0.3-1.5-0.4-2-0.3c0.2,0,0.4,0.4-0.1,0.3
			C316,122.7,315.7,122.6,315.4,122.5L315.4,122.5z M313.5,123.7c0.7,0.1,1.4,0.3,2.1,0.3c0.3,0,0.6,0,0.9,0l-72.7,44.2L313.5,123.7
			z M302.9,122.1c1.5-0.3,3.1-0.6,4.7-0.7l-1.8,1.1c-1.5,0.1-2.9,0.3-4.2,0.5L302.9,122.1z M292.5,123.2c0.2-0.1,0.3-0.3,0.4-0.5
			c0.2-0.1,0.4-0.1,0.6-0.2c2.1-0.7,4.3-1.7,6.3-2c0.4-0.1,1,0,1.5,0l-1.4,0.9c-1.3,0.2-2.5,0.4-3,1.2c-0.5-0.5-1.8-0.2-2.5,0
			c-0.6,0.2-0.8,0.8-1.4,1c0,0-0.6,0-1.1,0L292.5,123.2z M284.2,129c1.1-0.6,2.6-1.8,3.9-2.5c2.1-1.1,3.2-1.3,4.7-1.2
			c0.8-0.9,2.5-1.5,4-1.9l-3,1.8c-0.3,0-0.5,0-0.6,0c-0.2,0.1-0.5,0.6-1,0.9l-0.5,0.3c-0.2,0.1-0.4,0.1-0.7,0.1
			c-0.5,0.1-0.3-0.2-0.2-0.6c-3.7,2.3-7.9,4.3-11.5,5.8l3-1.9C283,129.5,283.6,129.3,284.2,129z M283.4,126.4l-5.8,3.5
			C279.1,128.8,281.8,127,283.4,126.4z M259.3,140.2c0.5-0.4,1.4-0.6,1.9-1c0.4-0.3,0.4-0.6,0.9-1c0.7-0.5,1-0.3,1.6-0.7
			c0.3-0.2,0.6-0.6,0.9-1l10.3-6.3c-0.3,0.3-0.6,0.6-0.8,0.9c1.2-0.9,1.9-0.7,2.8-0.8l-20,12.2C257.6,141.7,258.4,140.9,259.3,140.2
			z M287.3,263.2c-0.1,0.1-0.3,0.3-0.4,0.4l-2,1.2L287.3,263.2z M303,219.4l-14.5,8.8l14.3-9.1C302.8,219.1,302.9,219.3,303,219.4z
			 M301.2,216.3l-14.9,9.1l14.8-9.5C301.1,216.1,301.2,216.2,301.2,216.3z M288,216.4c0,0.1,0.1,0.3,0.1,0.4l-12.9,7.8L288,216.4z
			 M227.3,268.4c-0.2-0.1-0.4-0.3-0.6-0.4l26.2-15.9L227.3,268.4z M229.1,270.8l-3.8,2.4c-0.3-0.2-0.5-0.4-0.8-0.5l3.9-2.4
			C228.6,270.5,228.8,270.6,229.1,270.8z M223.2,266.1c0.3,0.3,0.6,0.6,1,0.9l-3.7,2.4c-0.4-0.3-0.7-0.6-1.1-0.9L223.2,266.1z
			 M217.7,266.9c-0.4-0.3-0.8-0.7-1.2-1l3.5-2.1c0.1,0.1,0.1,0.1,0.2,0.2c0.4,0.3,0.8,0.4,1.1,0.6L217.7,266.9z M223.7,265.8
			l45.4-27.6l-44.4,28.4C224.4,266.3,224,266.1,223.7,265.8z M259.2,251.6L230,270.2c-0.2-0.2-0.5-0.3-0.7-0.5L259.2,251.6z
			 M281,241.8l-47.5,31c-0.5-0.4-1-0.8-1.5-1.2L281,241.8z M221.9,264.2c-0.3-0.3-0.7-0.6-1-0.9l48.8-29.7L221.9,264.2z
			 M249.2,242.8l-30,19c-0.1-0.1-0.2-0.2-0.3-0.3c-0.1-0.1-0.1-0.1-0.2-0.2L249.2,242.8z M218.1,261.7c0.2,0.2,0.3,0.3,0.5,0.5
			l-3.8,2.4c-0.2-0.2-0.4-0.3-0.6-0.5L218.1,261.7z M214.8,258.8c0.5,0.4,1,0.9,1.5,1.3l-3.9,2.5c-0.3-0.3-0.6-0.5-0.8-0.8
			c-0.2-0.3-0.4-0.5-0.5-0.8L214.8,258.8z M211.7,256c0.5,0.4,0.9,0.8,1.4,1.2l-3.5,2.2c-0.5-0.4-0.9-0.9-1.3-1.4L211.7,256z
			 M209.4,262.1c0.5,0.5,1.1,1,1.7,1.4l-2.5,1.6c-0.1,0.1-0.2,0.1-0.2,0.2c-0.7-0.5-1.4-0.9-2.1-1.3L209.4,262.1z M207.1,261
			l0.5-0.6c0.1,0.1,0.1,0.1,0.2,0.2L207.1,261z M209.1,253.6c0.3,0.3,0.6,0.6,0.9,0.9l-3.2,2.1c-0.1-0.1-0.2-0.2-0.3-0.3
			c-0.2-0.2-0.4-0.4-0.6-0.6L209.1,253.6z M229.4,217.8c0.1,0.2,0.2,0.4,0.3,0.6L193,241.7c-0.1-0.4-0.3-1.1-0.4-1.2
			c-0.1-0.1-0.2-0.2-0.2-0.3L229.4,217.8z M192.2,244.7l0.5-0.3c0.1,0.2,0.1,0.3,0.1,0.3c0.5,0.6,0.9,0.5,1.4,1l-0.6,0.4
			c-0.3-0.3-0.7-0.5-1.4-0.8C192.3,245.2,192.3,245,192.2,244.7z M190.3,241.5c0.1,0.1,0.1,0.3,0.2,0.4c0.2,0.3,0.6,0.6,0.9,0.8
			L191,243c-0.8-0.3-1.2-0.6-1.4-1L190.3,241.5z M182.5,235.8l-0.9,0.6c0,0,0,0,0,0c-0.3-0.2-0.6-0.5-0.8-0.8
			c-0.1-0.1-0.1-0.2-0.2-0.3c0.1,0,0.2-0.1,0.3-0.1l1.5-0.9c0.3,0.3,0.6,0.7,0.9,1L182.5,235.8C181.8,233.7,181.1,235.6,182.5,235.8
			z M184.6,237c0.3,0.4,0.6,0.7,0.9,1.1l-1.8,1.1c-0.2-0.4-0.4-0.8-0.7-1.2L184.6,237z M183.7,233.6l0.6-0.3
			c0.2,0.2,0.5,0.3,0.8,0.4c0,0.2,0.1,0.4,0.1,0.5l-0.9,0.5C184.1,234.3,183.9,233.9,183.7,233.6z M186.9,239.6
			c0.4,0.4,0.8,0.7,1.2,0.9l-1.1,0.7c-0.5,0.3-0.6,0.9-0.3,1.4c0.3,0.5,0.9,0.6,1.3,0.4l1.2-0.7c0.1,0.1,0.1,0.1,0.2,0.2
			c0.2,0.3,0.4,0.8,0.6,1.2l-1.6,1c-0.1,0.1-0.2,0.1-0.2,0.2c-1.2-1.5-2.5-3-3.6-3.9L186.9,239.6z M187.1,237l-0.6,0.4
			c-0.3-0.4-0.5-0.7-0.6-0.8c-0.1-0.1-0.1-0.1-0.2-0.2l0.9-0.5c0.2,0,0.3,0.1,0.5,0.3C186.9,236.4,187,236.7,187.1,237z M187.8,239
			l0.6-0.4c0.4,0.4,0.8,0.7,1,1l-0.7,0.5C188.4,239.8,188.1,239.4,187.8,239z M188.5,236.1c-0.1-0.2-0.2-0.3-0.3-0.5
			c-0.1-0.2-0.3-0.4-0.4-0.5l1.3-0.8c0.3,0.3,0.5,0.7,0.8,1L188.5,236.1z M217,218.1l-26.9,17l-0.6-0.7c-0.1-0.1-0.2-0.1-0.2-0.2
			l27.4-16.6C216.7,217.7,216.8,217.9,217,218.1z M215.4,214.3c0,0.1,0,0.1,0,0.2c0,0.1,0.1,0.3,0.2,0.4l-27.5,17.4l-0.1-0.2
			l-0.4,0.4l0.1,0.1l-1.2,0.8c-0.3-0.3-0.5-0.7-0.8-1l1.4-0.9c0.2,0.3,0.4,0.7,0.3,0.7c0.7,0.2,0.5-0.4,0.1-0.9L215.4,214.3z
			 M184.8,228.2c0.2,0.1,0.4,0.2,0.4,0c0,0-0.1-0.1-0.1-0.2l17.2-10.5c0.5,0.3,1,0.6,1.6,0.6l-19.6,12.5c-0.4-0.5-0.8-1-1.2-1.5
			L184.8,228.2z M181.9,229.9c0.3,0.5,0.6,1.1,1,1.7l-0.7,0.5c-0.1-0.1-0.2-0.2-0.4-0.4c-0.2-0.3-0.5-0.7-0.8-1.2L181.9,229.9z
			 M181.2,232.7l-0.4,0.3c0-0.1-0.1-0.1-0.3-0.1c-0.1,0.1-0.1,0.2,0,0.3l-0.5,0.3c0,0-0.1,0.1-0.1,0.1c0,0,0-0.1-0.1-0.1
			c-0.3-0.5-1-1-1.4-1.4c0.1,0,0.2,0,0.3-0.1l1.4-0.9C180.4,231.6,180.8,232.2,181.2,232.7z M177.8,230.1l-0.2,0.1
			c-0.2,0.1-0.3,0.3-0.3,0.4c-0.4-0.6-0.8-1.2-1.2-1.9l0.5-0.3c0,0.2,0.5,0.4,0.5,0.2c0-0.1-0.2-0.2-0.3-0.3l0.7-0.4
			c0.2,0.2,0.5,0.3,0.6,0.5c0.3,0.3,0.5,0.7,0.8,1l-0.7,0.4c-0.1-0.3-0.1-0.6-0.5-1.1C177,228.8,177.3,229.5,177.8,230.1z
			 M175,224.8c0.2,0.5,0.5,1,0.7,1.5c0.3-0.3,0.5-0.3,0.7-0.1L175,227c-0.4-0.6-0.8-1.1-1.2-1.6c0.1,0,0.2,0,0.3-0.1L175,224.8z
			 M174.2,220.2l0.6-0.4c0.1,0.2,0.2,0.4,0.3,0.6c0.3,0.4,0.8,0.7,1.2,1.1l-0.9,0.6C175,221.4,174.7,220.8,174.2,220.2z
			 M176.6,223.8l0.8-0.5c0.3,0.5,0.6,1,0.9,1.6l-1,0.6c0,0,0,0,0,0c-0.3-0.1-0.1-0.6,0-0.5C177,224.5,176.8,224.2,176.6,223.8z
			 M178.8,227.1l0.6-0.4c0.1,0.1,0.1,0.2,0.2,0.4c0.1,0.2,0.5,0.6,1,1.2l-0.8,0.5C179.5,228.2,179.2,227.6,178.8,227.1z
			 M180.2,221.6c0.2,0.5,0.5,1.1,0.9,1.5l-0.6,0.4c-0.3-0.8,0-1.7-1-1.4c0.1,0.3,0.4,1.8,1,1.4l-1.2,0.8c-0.1-0.1-0.1-0.1-0.2-0.2
			c0,0,0.5-0.3,0.5-0.4c0-0.5-0.5-0.8-1-1.1L180.2,221.6z M177.5,214.4c0.1,0.4,0.3,0.7,0.4,0.9l-0.8,0.5c-0.1-0.3-0.2-0.7-0.3-1
			L177.5,214.4z M177.6,218.1c0.3,0.3,0.6,0.3,0.9,0.8c0.2,0.3,0.1,0.7,0.2,1l-1.5,1c-0.4-0.6-0.8-1.3-1.2-1.9l0.6-0.4
			c0.2,0.2,0.3,0.3,0.5,0.2c-0.1-0.1-0.2-0.2-0.3-0.3L177.6,218.1z M176.2,215.2c0.1,0.1,0.2,0.2,0.3,0.4c0.1,0.2,0.2,0.4,0.2,0.6
			l-0.8,0.5c-0.1-0.3-0.3-0.5-0.7-0.8L176.2,215.2z M174.6,216.2c0.3,0.3,0.7,0.4,0.9,0.8l-0.9,0.6c-0.2-0.2-0.4-0.4-0.7-0.6
			c0-0.1-0.1-0.2-0.1-0.2L174.6,216.2z M173.4,216.9c0.1,0.1,0.1,0.1,0.2,0.2c0.1,0.2,0.3,0.5,0.4,0.7l-0.8,0.5
			c-0.2-0.3-0.4-0.7-0.6-1L173.4,216.9z M172.6,221.1c0.1,0.1,0.2,0.3,0.3,0.4c0.4,0.5,0.7,1,1,1.5l-1,0.6c-0.1,0-0.1,0.1-0.2,0.2
			c-0.2-0.1-0.5-0.1-0.8-0.5c-0.1-0.2,0.2-0.8-0.3-1.5c0,0-0.1-0.1-0.1-0.1L172.6,221.1z M171.6,214.5c0.1,0.3,0.3,0.5,0.5,0.8
			l-0.5,0.3c-0.2-0.3-0.3-0.5-0.5-0.8L171.6,214.5z M171,218.4c0.1,0.4,0.2,0.8,0.3,1.2l-1.1,0.7c0,0,0,0,0,0
			c-0.2-0.3-0.3-0.7-0.5-1.1c0,0,0,0,0,0L171,218.4z M159.9,192.7c-0.2-0.3-0.4-0.7-0.6-0.9l1.6-1c0.1,0.3,0.3,0.6,0.4,1
			L159.9,192.7z M160.4,201.1l-0.4,0.3c-0.1-0.3-0.3-0.6-0.4-0.8c0,0,0,0,0,0l0.5-0.3C160.2,200.5,160.3,200.8,160.4,201.1z
			 M153.2,184.7c-0.1,0.1-0.2,0.2-0.3,0.3c-0.1-0.3-0.2-0.5-0.3-0.8c-0.2-0.7-0.4-1.3-0.7-1.9c0.1,0,0.2,0,0.2-0.1l0.4-0.2
			c0.1,0.2,0.3,0.4,0.4,0.2c0-0.1-0.1-0.2-0.2-0.3l0.7-0.4c0.2,0.8,0.5,1.7,0.7,2.6l-0.5,0.3l-0.2-0.5l-0.6,0.2L153.2,184.7z
			 M150.3,177.6c0.1-1.1-0.3-1.1,0.1-2.3c-0.1-0.1-0.1-0.2-0.2-0.3c0.3,0.2,0.7,0.3,1.1,0.1l0.7-0.4c0,0.3,0.1,0.5,0.2,0.8l-0.3,0.2
			c-0.5,0.3-0.6,0.9-0.3,1.4c0.2,0.4,0.6,0.6,1,0.5c0.1,0.4,0.1,0.8,0.3,1.2c0.1,0.2,0.1,0.5,0.2,0.7l-1.6,1.1
			c-0.1-0.4,0-0.7,0.1-0.9C151.3,178.2,150.4,179,150.3,177.6z M149.8,174.3c-0.6-1.3-0.7-2.9-0.9-4.5c-0.1-0.7-0.5-1.3-0.6-1.7
			c0-0.1,0.4-0.7,0.4-0.9c0,0.1-0.4-0.7-0.1-1.3c-0.8-1.4-0.6-2.5-0.6-4.2c0.1-2,0.3-3.8,0.1-5.4c-0.1-0.4-0.4-1.4-0.4-1.7
			c0,0,0.5,0.1,0.6,0.1c0.1-0.1,0.1-1.1,0.2-1.2c0.3-1.7,0.1-2.4,0.7-3.6c0.5-1.1,0.9-2.8,1.5-4.2c0.5-1,0.3-3.9,2-3.4
			c-1.2,0.1-0.5,1.4-0.7,1.8c-0.2,0.3-0.7,1-1,1.7c-0.7,1.7-0.8,3.3-1.3,4.6c-0.3,0.8,0,1.6-0.7,1.9c0.3,3.1-0.3,5-0.4,9
			c0,0.8,0.5,0.8,0.7,1.2c-0.5,0.4-0.6,1-0.5,1.6c-0.2,0.3-0.3,0.8-0.1,1.1c0.1,0.2,0.2,0.3,0.4,0.4c0.1,0.4,0.2,0.8,0.2,1
			c0.3,1.4,0,3.3,0.9,3.7c0-0.7-0.1-1.5-0.1-2.2c0.2,0.1,0.3,0.1,0.5,0.1c0,0.4,0.1,0.9,0.1,1.3l0,0c-0.4,0.3-0.6,0.9-0.3,1.4
			c0.2,0.3,0.5,0.5,0.8,0.5c0.1,0.2,0.2,0.4,0.3,0.8c0,0,0,0.1,0,0.1l-1,0.6c0-0.6,0.2-1.7-0.7-1.7c0.1,0.7,0.3,1.4,0.4,1.9
			C149.9,173.6,149.8,174,149.8,174.3z M152.8,146.9c0.1,0.1,0.2,0.1,0.3,0.2c0,0,0,0,0,0c-0.3,0.6-0.5,0.7-0.7,1.3
			c0,0.2-0.1,0.4-0.1,0.5l-0.3,0.2c-0.1,0-0.1,0.1-0.1,0.2C152.1,148,151.7,146.9,152.8,146.9C152.8,146.9,152.8,146.9,152.8,146.9z
			 M217.2,138.8c0.5,0.2,1.1,0.4,1.7,0.6l-27.9,17L217.2,138.8z M216.3,132.5l0.9-0.6c0.3,0.1,0.5,0.2,0.8,0.3l-1,0.6
			C216.7,132.7,216.5,132.6,216.3,132.5z M220.1,133.5c0.2,0.1,0.4,0.2,0.6,0.3l-1.1,0.7c-0.1-0.1-0.2-0.1-0.3-0.2
			c-0.1-0.1-0.2-0.1-0.2-0.2L220.1,133.5z M219.4,130.5l1.3-0.9c0.3,0.1,0.5,0.3,0.8,0.4l-1.3,0.8
			C220,130.7,219.7,130.5,219.4,130.5z M220.9,141.2c0.1,0.1,0.1,0.1,0.2,0.2c0.7,0.2,1.4,0.5,2.1,0.8L187.3,164L220.9,141.2z
			 M162.9,186.9c-0.1-0.2-0.2-0.4-0.3-0.7l19.6-11.9L162.9,186.9z M163.1,190.6l-0.6,0.4c-0.1-0.3-0.2-0.7-0.3-1l0.5-0.3
			C162.9,190,163,190.3,163.1,190.6z M164.8,194.6l-0.7,0.5c-0.2-0.7-0.5-1.7-0.5-2.1l0.8-0.5c0.1,0.1,0.1,0.1,0.2,0.2
			C164.4,193.3,164.6,193.9,164.8,194.6z M164,190c-0.1-0.5,0.1-0.8,0.2-1.2l24-14.6L164,190z M162,183.8c0-0.1-0.1-0.3-0.1-0.4
			c-0.1-0.4-0.3-0.9-0.5-1.3l33.7-20.5L162,183.8z M156.2,181.6c-0.1-0.4-0.4-0.8-0.6-1.3l1.1-0.6c0.3,0.7,0.5,1.5,0.8,2.3l-1.5,1
			C155.9,182.4,156.3,182.1,156.2,181.6z M153.8,142.9c0.8-1.2,1.5-1.4,1.3-2.3c-0.1-0.3,0.5-0.2,0.4-0.2c0.1-0.1,0.1-0.2,0.2-0.4
			c0.2,0.1,0.3,0.2,0.5,0.2c0,0,0,0.1-0.1,0.1c0.7,0.6,1.1-0.2,1.7-0.9l3.9-2.3c-0.9,1.2-2.2,2.4-2.9,3.4l-3.2,2.4
			c0.2-0.6,0.5-1.3,1.1-1.8c-0.8-0.4-2.2,1.5-2.4,2.7l-1.3,1c0.2-0.4,0.4-0.7,0.5-0.9C153.9,143.7,153.7,143,153.8,142.9z
			 M188.4,130.4c0.6,0,1.2,0,1.7,0.1l-13.3,8.1L188.4,130.4z M182.8,125.3l0.4-0.3c0.1,0.1,0.1,0.1,0.1,0.2
			C183.1,125.3,183,125.3,182.8,125.3z M183.6,124.7l0.1-0.1c1-0.3,2.5-0.2,3.6-0.4l-1.7,1C184.8,125.3,184,125.2,183.6,124.7z
			 M191.6,124.3l1.6-1.1c0.1,0,0.1-0.1,0.2-0.1l1.4-1c0.5,0,0.9,0.1,1.4,0.2L195,123c-0.4,0-0.7,0.1-0.9,0.5c0,0,0,0,0,0l-1.5,0.9
			c-0.1,0-0.2,0-0.2,0c-0.6,0-0.5,0.1-0.1,0.2l-1.2,0.7c-0.2-0.1-0.5-0.1-0.7-0.2l0.7-0.5C191.4,124.6,191.5,124.5,191.6,124.3
			C191.6,124.3,191.6,124.3,191.6,124.3z M207.2,134.8c0.1,0,0.1,0.1,0.2,0.1c0.2,0,0.4,0.1,0.6,0.1l-13.9,8.4L207.2,134.8z
			 M206.2,128.6l1.6-1.1c0.2,0.1,0.5,0.2,0.7,0.3l-1.6,1C206.7,128.7,206.4,128.7,206.2,128.6z M204.4,133.2c0.1,0,0.2,0.1,0.3,0.1
			l-5.7,3.4L204.4,133.2z M203,127.3c0.2,0.1,0.5,0.1,0.7,0.2l-0.2,0.1C203.3,127.5,203.1,127.4,203,127.3z M204.3,127.1
			C204.3,127.1,204.3,127.1,204.3,127.1c-1-0.6-1,0.3-1.7,0.1c-0.5-0.2-1-0.3-1.6-0.5l1.5-1c0.2,0,0.4,0,0.6,0.1
			c0.7,0.2,1.2,0.7,1.8,0.9c0,0,0.1,0,0.1,0L204.3,127.1z M201.2,132.3l-7.3,4.4l6.9-4.5C200.9,132.2,201,132.3,201.2,132.3z
			 M198.9,125.1c-0.6-0.4-1.7,0-2.2-0.2c-0.1,0-0.1-0.1-0.2-0.2l0.9-0.6c0.7,0,1.4,0,1.9,0.2c0,0,0.1,0.3,0.2,0.5L198.9,125.1z
			 M198.3,125.5l-0.8,0.5c-0.4-0.1-0.7-0.1-1.1-0.2c-0.5-0.1-0.9-0.1-1.4-0.1l0.7-0.5C196.7,125.5,197.5,125.3,198.3,125.5z
			 M195.3,130.7c0.2,0.1,0.5,0.2,0.8,0.3c0.4,0.1,0.8,0.2,1.3,0.3l-21.7,13.2L195.3,130.7z M158.1,164.6c0-0.2-0.1-0.4-0.1-0.5
			l16.7-10.2l-16.6,11C158.1,164.8,158.1,164.7,158.1,164.6z M166.5,152.5l-8.4,5.5c0-0.2,0-0.3,0-0.5L166.5,152.5z M158.7,154
			c0.1-0.8,0.2-1.5,0.2-2.2l21.7-13.2L158.7,154z M165.6,156.3l-8,5.2c0-0.1,0-0.3,0-0.4L165.6,156.3z M169.7,160.6l-11.7,7.6
			c0-0.2,0-0.4,0-0.5L169.7,160.6z M171,163.1l-12.4,8.1c0-0.2-0.1-0.3-0.1-0.5L171,163.1z M187.1,156.5L159.4,175c0,0,0,0,0-0.1
			c-0.1-0.5-0.2-0.9-0.3-1.4L187.1,156.5z M182.3,130.7l0.2-0.2c0,0,0,0,0,0L182.3,130.7z M179.6,124.1c-1.5,0.2-3.1,0.6-4.6,1.1
			l1.5-1.2c1.2-0.4,2.2-0.9,2.9-1.2c0.5-0.1,0.4,0.5,0.8,0.4c0.7-0.7,1.6-1,2.6-1L179.6,124.1z M177.1,125.6l-4,2.4
			c-1.1,0.3-2.2,0.7-3.3,1.6c-0.2,0.2-0.4,0.4-0.6,0.7l-1.7,1l5-4.1c0.4,0.2,1,0.2,1.6-0.2C174.8,126.2,176,125.8,177.1,125.6z
			 M173.7,138.3l-13,9.1c0.2-0.4,0.3-0.8,0.5-1.3c0.1-0.1,0.2-0.3,0.3-0.4L173.7,138.3z M160.4,134.7c0,0,0.1-0.1,0.1-0.1
			c0.6-0.6,0.9-1.5,1.6-2.2c0.4-0.4,0.8-0.3,1-0.5c0.4-0.4,0.9-0.9,1.3-1.3c0.2,0.2,0.5,0.2,0.8,0.2L160.4,134.7z M156.5,145.3
			c-0.1,0.2-0.1,0.5-0.2,0.8l0,0c-0.2-0.2-0.3-0.3-0.4-0.4L156.5,145.3z M155.5,146c-0.1,0.3-0.1,0.6-0.1,0.8l-0.7,0.5c0,0,0,0,0,0
			c0,0,0,0.1,0,0.1l-0.8,0.6c0.1-0.2,0.1-0.4,0.2-0.6c0.1-0.2,0.2-0.4,0.3-0.6L155.5,146z M154.5,149.9c0.3,0.4-0.3,1.4-0.4,2.1
			l-1.4,1c0.1-0.7,0.2-1.5,0.3-2.2L154.5,149.9z M153.5,155.1c0,0.3,0.1,0.6,0.1,1c-0.6,0.6-0.5,1.2-0.4,1.9l-0.7,0.5
			c0-0.9,0.1-1.9,0.2-2.8L153.5,155.1z M153,160.6c0,0.2,0,0.4,0,0.7l-0.8,0.6c0-0.1,0-0.1,0-0.2c0-0.2,0-0.4,0-0.6L153,160.6z
			 M153.4,163.7c0,0.2,0,0.4,0,0.6l-1.1,0.7c0-0.2,0-0.4,0-0.6L153.4,163.7z M153.7,166.6c0.1,0.1,0.2,0.3,0.2,0.8
			c-0.2,0-0.2,0.2-0.2,0.4l-0.9,0.6c-0.1-0.4-0.1-0.7-0.2-1.1L153.7,166.6z M154.3,170c0,0.3-0.1,0.6-0.1,0.6c0,0.1,0,0.1,0,0.2
			l-0.7,0.5c-0.1-0.2-0.1-0.4-0.2-0.7L154.3,170z M154.9,172.9c0.1,0.2,0.1,0.4,0.1,0.6l-0.8,0.5c-0.1-0.2-0.1-0.4-0.2-0.6
			L154.9,172.9z M155.4,175.8c0,0.1,0,0.2,0,0.3c0.1,0.4,0.3,0.9,0.4,1.3L155,178c0-0.1,0-0.3-0.1-0.4c-0.1-0.4-0.3-0.8-0.4-1.2
			L155.4,175.8z M158.2,184c0.2,0.6,0.5,1.2,0.7,1.8l-1.5,1c-0.2-0.7-0.2-1.2-0.4-1.9c0,0,0-0.1-0.1-0.1L158.2,184z M159,188.5
			l0.2,0.6l0.5-0.2l-0.3-0.6l0.2-0.1c0.1,0.2,0.2,0.5,0.3,0.7l-1.4,0.9c0-0.3,0-0.5-0.1-0.8c0,0,0-0.1-0.1-0.1L159,188.5z
			 M160,178.1c0-0.1-0.1-0.3-0.1-0.5l36.1-21.9l-35.4,24C160.4,179.1,160.2,178.5,160,178.1z M205.4,143.1l8.8-5.7
			c0.1,0.1,0.2,0.1,0.3,0.2L205.4,143.1z M213.8,130.4c0.3,0.2,0.6,0.3,1,0.5l-1.1,0.6c-0.4-0.1-0.7-0.3-1-0.4L213.8,130.4z
			 M212.9,127.7l1.7-1.1c0,0,0.1-0.1,0.1-0.1c0.2,0.1,0.5,0.3,0.7,0.4l-1.3,0.8c0,0-0.1-0.1-0.1-0.1c0,0.1,0,0.1-0.1,0.2l-0.5,0.3
			C213.2,127.9,213.1,127.7,212.9,127.7z M211.7,125.9c0-0.1-0.1-0.1-0.2-0.2c-0.2,0.3-0.7,0.3-0.5,0.6l-0.7,0.4
			c-0.2-0.1-0.5-0.3-0.7-0.4l1.7-1.1c0.1-0.1,0.2-0.2,0.3-0.4c0.1,0,0.2,0,0.2,0c0.3,0.1,0.6,0.3,0.9,0.4L211.7,125.9z M210.9,129.4
			c-0.1-0.1-0.6-0.1-0.5,0.1c0,0.1,0.3,0.1,0.4,0l-0.5,0.3c-0.1-0.1-0.3-0.2-0.4-0.2c0,0,0,0-0.1,0l1.1-0.7c0.2,0.1,0.4,0.2,0.5,0.3
			l-0.6,0.3C210.9,129.5,210.9,129.5,210.9,129.4z M211.2,135.9c0.1,0.1,0.3,0.1,0.4,0.2l-10.2,6.2L211.2,135.9z M208.5,124.6
			c-0.6-0.2-1.3-0.3-1.9-0.5c-0.5-0.1-0.8-0.3-1.2-0.5l0.8-0.5c1.3,0.5,2,0.7,3.1,1.1L208.5,124.6z M205.4,125
			c0.9-0.2,1.6-0.1,2.3,0.1l-0.8,0.5c-0.6,0-1,0.2-1.7,0c-0.6-0.2-1.3-0.3-1.9-0.5l1-0.7C204.7,124.5,205.1,124.7,205.4,125z
			 M202.8,122.8c-0.4-0.1-0.8-0.3-0.9-0.6c-0.5,0.2-1.3,0.1-2-0.1c0.1-0.3,0.1-0.6-0.1-0.9c0,0,0,0-0.1-0.1c0.6,0.2,1.2,0.4,1.8,0.6
			c0.1,0,1.1-0.3,1.4-0.2c0.2,0.1,0.6,0.3,1,0.5L202.8,122.8z M201.7,123.4l-1.3,0.8c-0.9-0.2-1.7-0.4-2.4-0.6l1-0.7
			C200,123.1,200.8,123.2,201.7,123.4z M198.5,120.9l-0.8,0.5c-0.5-0.2-1-0.4-1.4-0.6c-0.3,0.2-0.6,0.2-0.9,0.2
			c0-0.1-0.1-0.3-0.1-0.4c-0.3-0.5-0.9-0.6-1.3-0.3l-0.3,0.2c-0.1-0.1-0.2-0.1-0.2-0.2c-1.5,0.5-2.9,0.4-4.4,0.2
			c0.1-0.2,0.1-0.5-0.1-0.7c0.8-0.1,1.6-0.4,2.5-0.3c1,0.1,1.9,0.6,2.8,0.7c0.7,0.1,1.4,0,2.1,0.1c0.8,0.1,1.6,0.3,2.4,0.6
			C198.6,120.8,198.5,120.8,198.5,120.9z M191.2,121.9l-2.5,1.5c-1.1,0-2.3,0-3.5,0.1l2.1-1.6C188.4,121.9,189.7,121.9,191.2,121.9z
			 M186.3,120c-0.3,0-0.6,0-1,0c-0.5,0-1.4,0.3-2,0.4c-5.3,0.6-9.4,2-11.8,3.2c-0.3,0.2-0.6-0.1-0.8,0c-0.5,0.1-2.1,1.5-2.2,1.5
			c-0.2,0.1-0.2-0.6-0.6-0.3c0,0,0.2,0.5,0,0.7c-0.1,0-0.7-0.4-1-0.1c0,0,0,0.6,0,0.7c-1.1,1.6-3.4,2.1-4.4,3.1
			c-1,0.9-1.6,1.8-2.3,2.7c-0.5,0.6-0.8,0.5-1.3,1c-0.4,0.4-0.1,0.6-0.6,1.1c-0.4,0.4-0.6,0.2-1,0.8c-0.5,0.7-0.8,1.6-1.2,2.2
			c-0.8,0.9-2.3,2.5-2.4,2.7c-0.1,0.3,0.3,1.9-0.5,1.5c-0.3-0.6,0.1-1.4,0.2-2.2c2-2,3.7-4.8,5.4-6.8c1.6-2.1,3.8-3.5,5.7-5
			c2.4-2,5.4-3.7,7.2-4.6c0.5-0.3,0.9-0.1,1.2-0.2c1-0.6,1.6-1.2,2.8-1.6c0.7-0.3,1.6-0.1,2.4-0.3c2.5-0.5,5.1-1.1,7.8-1.2
			c0.5,0,0.9,0.1,1.4,0.2L186.3,120z M151.1,154.2L151.1,154.2c-0.5,0.4-0.7,1-0.4,1.5c0,0,0,0,0.1,0.1c-0.1,0.3-0.2,0.6-0.2,0.9
			c0,1.1,0.1,2.1,0.2,3.1l-0.7,0.5c-0.1,0.1-0.1,0.1-0.2,0.2c0-0.2,0-0.4,0-0.6c0.2-1.8,0-3.8,0.4-5.6c0.2-1.5,0.8-2.9,1.3-4.1
			c0,0.2,0,0.3,0.1,0.5c0.1,0.1,0.1,0.2,0.2,0.3c-0.3,0.5-0.8,1-0.8,1.6C151,152.8,151.1,153.6,151.1,154.2z M149.8,163.5
			c0-0.7,0-1.3,0-1.9c0.2,0.3,0.6,0.5,0.9,0.4c0,0.3,0,0.6,0,1L149.8,163.5z M150.6,165.4c0,0.2,0,0.5,0,0.7l-0.6,0.4l0,0
			c0-0.3,0-0.5-0.1-0.8c0,0,0,0,0.1,0L150.6,165.4z M154.2,186.5l0.6-0.4c0.2,0.7,0.5,1.4,0.7,2l-1.3,0.8c-0.3-0.8-0.6-1.6-0.8-2.4
			C153.7,186.6,153.9,186.6,154.2,186.5z M156.4,190c0,0.1,0.1,0.2,0.1,0.2c0.2,0.2,0.2,0.5,0.1,0.7l-0.7,0.4
			c-0.3,0.2-0.4,0.5-0.4,0.8c-0.2-0.2-0.3-0.5-0.4-0.8c-0.1-0.1-0.1-0.3-0.2-0.5L156.4,190z M157,193.1l0.6-0.4
			c0.1,0.1,0.2,0.2,0.2,0.3c0.1,0.3,0.1,0.6,0.1,0.9l-1,0.6c-0.1,0.1-0.2,0.2-0.3,0.3c-0.1-0.4-0.1-0.8-0.4-1.5c0,0,0,0,0-0.1
			C156.5,193.3,156.8,193.3,157,193.1z M158,196.3l0.5-0.3c0.3,0.6,0.6,1.2,0.9,1.7c0.1,0.1,0.1,0.3,0.1,0.4l-0.9,0.6
			c-0.4-0.8-0.8-1.6-1.2-2.3C157.6,196.5,157.8,196.4,158,196.3z M162.2,193.7c0.3,0.7,0.6,1.3,0.9,2l-1.6,1.1
			c-0.4-0.6-0.7-1.4-0.9-2.1L162.2,193.7z M161.5,202.8c0.3,0.4,0.5,0.7,0.7,1c0.2,0.3,0.3,0.6,0.5,0.9l-0.7,0.5
			c-0.4-0.7-0.7-1.4-1.1-2.1L161.5,202.8z M162.4,198.8l1.7-1.1c0.1,0.2,0.2,0.5,0.3,0.7l-1.7,1.1
			C162.6,199.3,162.5,199.1,162.4,198.8z M163.7,206.6c0.3,0.5,0.6,1,0.9,1.6l-0.8,0.5c-0.3-0.5-0.6-1.1-0.9-1.6L163.7,206.6z
			 M163.8,201.4l1.7-1c0.3,0.5,0.8,0.8,1.1,1.4c0.1,0.1,0.1,0.3,0.1,0.4l-1.9,1.2C164.4,202.8,164.1,202.1,163.8,201.4z
			 M165.1,197.2l0.7-0.5c0.1,0.2,0.2,0.4,0.4,0.6l-0.8,0.5C165.3,197.6,165.2,197.4,165.1,197.2z M166.5,199.8l0.8-0.5
			c0.3,0.6,0.5,1.2,0.5,1.7c0.2,0,0.3-0.1,0.5-0.1c0,0.1,0.1,0.1,0.1,0.2l-0.7,0.4c-0.1-0.2-0.1-0.3-0.1-0.4
			C167.4,200.8,166.9,200.4,166.5,199.8z M165.6,209.9c0.1,0.3,0.2,0.6,0.4,1l-0.7,0.4c0,0,0,0,0,0c-0.2-0.3-0.3-0.6-0.5-0.9
			L165.6,209.9z M165.7,205.4l1.7-1c0.2,0.3,0.6,0.8,1,1.4l-0.6,0.4c-0.5-0.7-0.9-1.1-0.7-0.6c0.2,0.3,0.3,0.5,0.4,0.7l-1,0.6
			C166.2,206.4,165.9,205.9,165.7,205.4z M166.3,213.1l1-0.6c0.2,0.3,0.2,0.8,0.3,1.3c0.2,0.2,0.3,0.3,0.5,0.5l-0.2,0.1
			c-0.3,0.2-0.4,0.5-0.5,0.9c0-0.1-0.1-0.1-0.1-0.2C166.8,214.4,166.5,213.7,166.3,213.1C166.2,213.1,166.2,213.1,166.3,213.1z
			 M167.5,208.8l0.8-0.5c0.1,0.2,0.1,0.3,0.2,0.5c0.3,0,0.3-0.3,0.2-0.7l0.8-0.5c0,0,0,0,0,0c0.1,0.3,0.3,0.5,0.4,0.8l-2,1.3
			C167.8,209.3,167.6,209.1,167.5,208.8z M168.8,216.2l0.6-0.3c0.2,0.3,0.4,0.5,0.6,0.8l-1,0.6c0,0,0,0,0-0.1
			c-0.1-0.3-0.4-0.6-0.7-0.9C168.4,216.3,168.6,216.3,168.8,216.2z M170.6,212.6l-0.8,0.5c-0.2-0.3-0.1-0.7-0.2-0.8
			c-0.2-0.3-0.4-0.6-0.6-0.9l0.8-0.5C170.1,211.4,170.4,212,170.6,212.6z M169.2,205.2c-0.2-0.5-0.4-1-0.7-1.6l0.8-0.5
			c0.1,0.2,0.3,0.2,0.5,0.2c0-0.1-0.1-0.3-0.1-0.4l0.3-0.2c0.5,0.3,1,0.4,1.6,0.4c0,0-0.1,0-0.1,0.1c0,0.1,0.1,0.2,0.3,0.3
			L169.2,205.2z M171.6,203.2c0.3,0,0.6,0,0.8-0.1l-0.5,0.3C171.9,203.3,171.7,203.2,171.6,203.2z M183,199.4
			c0.1,0.2,0.2,0.4,0.3,0.6l-11,6.9c-0.1-0.2-0.3-0.5-0.4-0.8L183,199.4z M167.1,196.8c-0.1-0.2-0.2-0.4-0.3-0.6l20.6-12.5
			L167.1,196.8z M165.8,194c-0.3-0.6-0.6-1.2-0.9-1.8l39.4-23.9L165.8,194z M235.1,150c0.2,0.1,0.4,0.3,0.6,0.4
			c0.2,0.1,0.3,0.2,0.5,0.3c-0.2,0.5-0.9,0.2-0.5,0.7c0.4-0.2,0.7-0.3,1.1-0.2l0.1,0.1l-38.8,23.6L235.1,150z M226.4,137.5
			c0.1,0.1,0.2,0.2,0.2,0.2c0.8,0.1,1.7,0.5,2.5,0.9l-0.7,0.4c-0.1,0-0.2,0.1-0.2,0.1l0,0c-0.8-0.5-1.6-1-2.3-1.4L226.4,137.5z
			 M225.3,133.4l1.1-0.7c0.6,0.5,1.3,0.8,2,1l-1.1,0.7C226.6,134,225.9,133.7,225.3,133.4z M229.5,146c0.2,0.1,0.4,0.2,0.5,0.4
			l-17,10.3L229.5,146z M232.7,136.3c0,0,0,0.1,0.1,0.1l-1,0.6c-0.1-0.1-0.2-0.2-0.3-0.5c-0.1-0.3-0.6,0-0.5,0l-1.5-1
			c-0.1,0-0.1,0-0.1-0.1l0.8-0.5C230.6,135.6,232.7,136.4,232.7,136.3z M233.2,141.1l-1,0.6c-0.7-0.4-1.3-0.8-1.9-1.2l1-0.7
			c0.4,0.3,0.8,0.5,1.2,0.8C232.7,140.7,232.9,140.9,233.2,141.1z M232.1,147.9c0.3,0.2,0.5,0.4,0.8,0.5l-22.8,13.8L232.1,147.9z
			 M235.9,139.4c-0.2-0.2-0.5-0.4-0.7-0.6c-0.5-0.4-1.1-0.4-1.6-0.6l0.7-0.4c0.1-0.1,0.2-0.2,0.3-0.3c1,0.3,1.6,0.8,2.1,1.4
			L235.9,139.4z M237.7,144.3c0.3,0.2,0.6,0.5,0.9,0.7l-1.2,0.7c-0.3-0.2-0.6-0.5-0.8-0.7L237.7,144.3z M235.8,142.9l-0.8,0.5
			c-0.2-0.1-0.5-0.3-0.7-0.4l0.9-0.6C235.4,142.6,235.6,142.7,235.8,142.9z M220.2,164.8l19.9-12.9h1.3L220.2,164.8z M247.5,147.1
			h1.8l-1.5,0.9h-1.7L247.5,147.1z M240.3,146.5c0.3,0.3,0.6,0.6,0.9,0.9l0.3-0.3l0.1,0l0,0l0,0h2.1l-1.5,0.9h-1.3l0,0l0,0l0,0l0,0
			l-0.1-0.1l-0.3-0.2c-0.2-0.2-0.5-0.3-0.8-0.5L240.3,146.5z M239.2,140.9l-0.9,0.6c-0.3-0.2-0.5-0.4-0.8-0.6l0.8-0.5
			C238.6,140.5,238.9,140.7,239.2,140.9z M225,129.6c2.2,1.4,5.3,2.7,5.5,3.4c0,0,4.5,2.4,4.8,2.5c0.1,0.1,0.3,0.7,0.9,1
			c0.8,0.5,1.6,0.5,2.5,1.1c0,0,0,0.1,0.1,0.1c-0.2,0-0.3,0-0.5,0.1l-1,0.6c-0.9-0.6-1.7-1.2-2.6-1.8c0-0.1-0.1-0.2-0.1-0.3
			c-0.2-0.4-0.7-0.6-1.1-0.4c-0.7-0.4-1.3-0.8-2-1.2c-0.4-0.2-0.3-0.6-0.6-0.7c-0.1-0.1-0.3-0.1-0.4-0.2c0-0.1,0-0.2-0.1-0.2
			c-0.3-0.4-0.8-0.6-1.2-0.4c-0.1,0-0.2-0.1-0.3-0.1c-0.2-0.1-0.7-0.8-1-1c-0.2-0.1-0.5-0.3-0.7-0.4c0-0.2,0-0.5-0.1-0.7
			c-0.3-0.5-0.9-0.6-1.3-0.4l-0.2,0.1c-0.3-0.1-0.5-0.3-0.8-0.4C224.9,130.2,225,129.9,225,129.6z M225.7,143.5
			c0.6,0.3,1.1,0.7,1.7,1l-34.7,21.1L225.7,143.5z M223.6,136.6c-0.6-0.3-1.1-0.6-1.7-0.8l0.5-0.3c0.4,0.2,0.8,0.5,1,0.3
			c-0.3-0.1-0.6-0.3-0.8-0.4l0.4-0.3c0.6,0.3,1.1,0.6,1.6,1L223.6,136.6z M223.6,131.2c0.3,0.1,0.6,0.2,0.9,0.3l-1.4,0.9
			c-0.2-0.1-0.5-0.2-0.7-0.3L223.6,131.2z M219.7,126.6c0.5,0.2,0.4,0.6,1,0.9c0.7,0.3,1.7,0.5,2.1,0.8c0.2,0.2,0.3,0.4,0.4,0.6
			l-0.6,0.4c-0.5-0.2-0.9-0.5-1.4-0.7c0-0.2,0-0.3-0.1-0.5c-0.3-0.5-0.9-0.6-1.3-0.4l0,0c-0.5-0.2-0.9-0.5-1.4-0.7
			c0.1-0.3,0.2-0.7,0-1C219.1,126.4,219.6,126.6,219.7,126.6z M217.7,127.8c0.4,0.3,0.7,0.5,1.1,0.7l-1.5,0.9
			c-0.3-0.2-0.7-0.4-1.1-0.6L217.7,127.8z M204.3,267.9C204.3,267.8,204.3,267.8,204.3,267.9C204.3,267.8,204.3,267.8,204.3,267.9
			C204.3,267.9,204.3,267.9,204.3,267.9z M202.6,261.9l-0.8-0.8c-0.3-0.3-0.4-0.1-0.4,0c-0.4-0.2-0.8-0.5-1.1-0.7
			c0-0.4,0.2-0.7-0.5-1.2c-0.8,0.9-2.3-1.7-2.2-1.6c0.1-0.2,0.4-0.4,0.1-0.8c-0.3,0.2-0.5,0.7-0.9,0.4c0.4-0.4,0.3-0.8,0-1.3
			c-1-0.4-0.8-0.7-2-1.2l0.4-0.4c-0.5-0.5-1.1-0.4-1.7-0.9c-0.7-0.5-0.5-0.9-1.1-1.5c-0.3-0.3-0.6-0.3-0.8-0.5
			c-0.1-0.1-0.2-0.2-0.3-0.3c-0.4-0.6-0.3-1.1-0.8-1.7c-1-1.2-2.6-2.1-3.3-3.1c-0.1-0.1-1-1.2-0.9-1c-0.1-0.4,0.5-0.3,0.1-0.8
			c0,0-0.5,0.3-0.7,0.1c-0.3-0.3-0.5-0.9-1-1.6c-3-3.9-6-8-8.6-11.4c-1.1-1.4-3.6-3.1-2.5-3.8c-0.7-1.4-1.2-0.3-1.8-0.9
			c0.8-0.7-0.3-0.6-0.6-1.9c-0.3,0.4-0.2,0.8-0.1,1.3c-0.8-1.1-1.7-2.1-2.4-3.2c0-0.1,0-0.1-0.1-0.2c-0.1-0.2-0.4-0.5-0.7-0.8
			c-0.6-0.9-1.3-1.7-1.9-2.6c-0.6-1.1-1.1-2.1-1.5-2.7c-0.3-0.4-0.9-0.8-1-1c-0.4-0.8-0.5-1.8-1-2.7c-1.1-1.9-2.4-4-3.5-6
			c-0.6-1-1.2-2.7-1.3-3c-1.7-2.6-2.6-5.4-3.6-8c-0.5-1.2-1.4-2.1-1.8-3.2c-0.2-0.6-0.1-0.9-0.4-1.8c-0.4-1.1-1.1-1.9-1.4-2.9
			c0-0.1,0.1-1.4,0.1-1.5c-0.2-0.8-0.7-0.8-0.9-1.6c-0.4-1.1-0.2-2.6-0.5-3.7c0,0-0.6-1-0.8-1.6c-0.6-2.4-0.5-3.3-1.2-4.9
			c0.3-0.1,0.6,0.5,0.6-0.1c-1.2-0.5-0.5-2.1-0.6-2.6c-0.1-0.6-0.5-0.7-0.6-1.7c-0.2-2.1-0.6-3.2-0.6-4.9c-0.3-3.3-0.4-7.9,0.6-10.6
			c-0.8-0.8-0.3-1.5,0-2.7c0.2-0.5,0.4-1.1,0.7-1.6c0.4,0.1,1-0.5,0.6-1.1l1.2-2.8l-0.1,0.1l-1.2,2.6c0,0,0,0,0,0
			c-0.1-0.1-0.4,0.2-0.6,0.4c-0.1,0-0.2,0.1-0.3,0.1c0.1-0.8,0.2-1.3,0.8-1.4c-1-0.7,0.3-2.3,0.5-3c0.8-1.8,1.2-4.1,1.9-5.3
			c0.2-0.3,0.4-0.2,0.5-0.2c0.3-0.3,0.1-2,0.9-1c0.3-0.5,0.1-1.2,0.4-1.8c0.4-1.2,2-2.4,3-3.8c2-3,3.9-5.2,6.6-7.5
			c2.3-2.1,5.3-4,6.6-4.6c0.9-0.6,1.8-0.9,2.7-1.3c2.3-1.3,4.4-1.6,6.2-2.8c0.2,1.6,1.1-1.1,1.7-0.1c0.2,1.1-1.9,0.9-2.8,1.3
			c-1.2,0.5-1.9,1.2-3.1,1.3c-0.1,1,1.3,0.2,1.8,0.1c2.1-0.5,4.2-1.1,6.4-1.5c6.3-0.8,9.7-0.4,13.8-0.1c2.9,0.3,5.6,1.8,8,1.5
			c0.6,0.3,0.6,0.7,1.1,1c2.8,0,6.4,1.8,7.9,2.5c0.6,0.3,1,0.1,1.3,0.2c0.6,0.2,0.6,0.6,1.5,1c0.6,0.2,2.1,0.8,3.4,1.2
			c-0.1,0-0.1,0-0.2,0.1l-0.6,0.4c-0.5-0.2-1-0.4-1.5-0.7c0-0.1-0.1-0.2-0.1-0.3c-0.3-0.5-0.9-0.6-1.3-0.4l-0.1,0.1
			c-0.6-0.2-1.1-0.5-1.7-0.7c0-0.1-0.1-0.2-0.1-0.4c-0.3-0.5-0.9-0.6-1.3-0.4l-0.3,0.2c-0.6-0.2-1.1-0.4-1.7-0.5
			c0.2-0.3,0.8-0.4-0.2-0.7c-0.5,0.1-0.7-0.3-0.8-0.3c-0.2-0.1-0.4-0.1-0.7-0.2c0-0.1,0-0.2-0.1-0.3c-0.3-0.5-0.9-0.6-1.3-0.3
			l-0.5,0.3c-1.1-0.2-2.1-0.4-2.4-0.9c-0.2-0.3-0.6,0.1-0.5,0.2c-2.1-0.3-3.2-1.2-4.9-1.5c-0.5-0.1-0.9,0.2-1.7,0
			c-0.8-0.2-0.9-0.5-1.6-0.6c-0.5-0.1-1.2,0.4-1.7,0.4c0,0-1-0.5-1.6-0.5c-1.8,0-1.7-0.1-2.9-0.2c-0.6-0.1-0.9,0.3-1.2,0.3
			c-0.5,0-0.6-0.3-1.2-0.3c-5.3,0-12,1.7-16.2,4.5c-2.3,1.5-4.7,2.5-6.8,4.4c-1.1,1.1-2.1,3.1-3.2,2.6c0.3,1.6-1.5,2.2-2.3,3
			c-0.4,0.5-0.3,0.9-0.5,1.2c-0.3,0.4-0.6,0.3-1,0.8c-2.2,2.7-4.7,8.1-6,11.7c-0.2,0.8,0.1,1-0.1,1.7c-0.2,0.6-0.6,1.3-0.8,1.9
			c-0.3,1.2-0.4,2.6-0.6,3.7c-0.5,2.7,0,5.5-0.9,7.7c0.6-0.5,0.6,0.8,0.7,1.3c0.3,2.8,0,5.8,0.6,7.9c0,0.3,0,0.5-0.2,0.5l-0.1-0.4
			c-0.3,0-0.7,0.4-0.2,0.5c0.4,0,0.5,0.9,0.8,1.2c0,1.8,1.3,4.5,0.7,5.4c1.2,1.7,1.6,3.8,2,5.5c0.3,1.4,1.4,2.9,1.1,3.9
			c-0.1,0.3,0.5,0.4,0.4,0.3c0.3,0.9,0.7,1.9,1,2.8c0,0.1,0,0.1,0.1,0.2c0,0,0,0,0,0c1.6,4.2,3.7,8.6,6.7,14.3
			c0.7,1.3,1.6,2.8,2.5,4.4c-0.3,0.3-0.4,0.8-0.2,1.2c0.2,0.4,0.7,0.6,1.1,0.4c1.8,3,3.7,6.1,5.1,8.5c0.5,0.9,0.8,2.1,1.3,3
			c0.3,0.5,0.9,0.8,1,0.9c0.4,0.5,0.3,1,0.6,1.3c0.5,0.7,1.3,1.3,1.9,2c0.2,0.3,0.4,0.7,0.6,1c-0.1,0.3-0.1,0.6,0,0.9
			c0.2,0.3,0.4,0.4,0.7,0.5c0.3,0.6,0.6,1.1,1,1.6c0.4,0.6,1.1,1,1.6,1.6c0.4,0.4,0.6,1.2,0.6,1.3c0.4,0.5,0.6,0.3,1.1,0.9
			c0.3,0.3,0,0.5,0.1,0.5c0.2,0.3,1.4,1.2,2,1.9c0.1,0.1,0.1,0.2,0.2,0.3c0,0.1,0,0.2,0.1,0.3c0.1,0.2,0.3,0.3,0.4,0.4
			c0.4,0.5,0.8,1,1.2,1.5c-0.3,0.3-0.3,0.8-0.1,1.2c0.3,0.5,0.8,0.6,1.3,0.4c1.6,2,3.1,4,4.9,6c1-0.4,0.9,1.2,2,1.2
			c-0.5-0.6-1.1-1.3-1.7-2.1c0,0,0,0,0,0l2.1-1.3c0.3,0.4,0.8,1.1,1.3,1.6l-0.8,0.5c-0.5,0.3-0.6,0.9-0.3,1.4
			c0.3,0.5,0.9,0.6,1.3,0.4l2.3-1.4c0.3,0.5,0.6,1,1,1.3c0.3,0.2,0.5,0.5,0.7,0.7l-2.8,1.8c-0.5,0.3-0.6,0.9-0.3,1.4
			c0.3,0.5,0.9,0.6,1.3,0.4l3.3-2c0.3,0.3,0.5,0.5,0.8,0.8l-3.1,2c-0.5,0.3-0.6,0.9-0.3,1.4c0.2,0.4,0.6,0.6,1,0.5
			c0.1,0.1,0.2,0.2,0.3,0.1c0,0,0-0.1,0-0.2l3.6-2.2c0.5,0.5,1.1,1.1,1.6,1.7l-2.8,1.8c-0.5,0.3-0.6,0.9-0.3,1.4
			c0.1,0.2,0.4,0.4,0.6,0.5c0.4,0.3,0.7,0.7,0.9,0.5c-0.2-0.1-0.4-0.3-0.5-0.5c0.1,0,0.2-0.1,0.3-0.1l3.3-2c0.3,0.3,0.6,0.6,1,1
			l-2.2,1.4c-0.5,0.3-0.6,0.9-0.3,1.4c0.3,0.5,0.9,0.6,1.3,0.4l2-1.2c0.1,0.1,0.2,0.2,0.4,0.4c0.5-0.3,0-1,0.6-0.7l1,0.9
			c-0.2,0.1-1.5,0.2-0.8,0.9l-2.3,1.5c-0.2,0.1-0.3,0.3-0.4,0.5C203.8,262.6,203.2,262.3,202.6,261.9z M205.1,269.6
			C205.1,269.6,205.1,269.6,205.1,269.6c0.8,0.6,1.6,1.3,2.4,1.9C206.7,270.9,205.9,270.3,205.1,269.6z M207.5,271.3
			c-0.1-0.1-0.2-0.1-0.3-0.2C207.3,271.1,207.4,271.2,207.5,271.3c-0.1-0.1-0.2-0.2-0.3-0.3l-2.5-1.7l-0.1-0.1c0,0,0,0-0.1-0.1
			l0.2,0.1l0,0c0.3,0.2,0.5,0.3,0.6,0.2c0.2,0,0.1-0.3-0.2-0.7c-0.2-0.3-0.4-0.6-0.6-0.8c0,0,0,0,0,0c0.2,0.3,0.4,0.6,0.6,0.9
			c0.5,0.7,1.2,1.4,2.1,2.1c0.7,0.4,1.3,0.9,2,1.4C208.6,272,208,271.6,207.5,271.3z M212.7,264.9c0.2,0.2,0.4,0.4,0.6,0.5l-2.5,1.6
			c-0.2,0.1-0.3,0.3-0.4,0.5c-0.1-0.4-0.1-0.8-0.4-1L212.7,264.9z M210.3,273.6c1,0.8,2,1.5,3.1,2.3c0,0,0,0,0,0
			C212.3,275.2,211.3,274.4,210.3,273.6z M213.5,270c-0.6-0.4-1.3-0.7-1.9-1.1c0.1,0,0.1,0,0.2-0.1l2.8-1.7c0.1,0.2,0.2,0.4,0.4,0.5
			c0.2,0.2,0.4,0.4,0.7,0.6l-1.7,1.1C213.7,269.5,213.6,269.7,213.5,270z M216.7,271.7c-0.5-0.3-1-0.5-1.5-0.8l1-0.6
			c0.5,0.3,0.9,0.6,1.4,0.9L216.7,271.7z M217.8,271.1c-0.5-0.3-1-0.6-1.4-0.8l1.1-0.6c0.4,0.3,0.8,0.6,1.2,0.9L217.8,271.1z
			 M220.1,273c-0.1,0.1-0.3,0.2-0.3,0.4c-0.3-0.2-0.6-0.3-1-0.5l0.8-0.5c0.2,0.2,0.5,0.3,0.7,0.4L220.1,273z M220.6,272.7
			c-0.3-0.1-0.5-0.3-0.8-0.4l0.7-0.4c0.2,0.2,0.5,0.3,0.7,0.4L220.6,272.7z M222.5,275c-0.3-0.2-0.6-0.4-0.9-0.5l0.8-0.5
			c0.1,0.1,0.3,0.2,0.4,0.2c0,0,0,0.1,0.1,0.1c0,0,0,0,0.1,0c0.1,0.1,0.3,0.1,0.4,0.2L222.5,275z M223.6,274.3
			c-0.1-0.1-0.2-0.1-0.3-0.2c0.1,0,0.3,0,0.4,0.1L223.6,274.3z M222.5,271.5c-0.1-0.1-0.2-0.1-0.3-0.2c0-0.1-0.1-0.2-0.2-0.3l4-2.4
			c0.2,0.1,0.4,0.3,0.5,0.4L222.5,271.5z M226,277.7c-0.5-0.5-1.1-1-1.6-1.5l1-0.6c0.5,0.5,1,1,1.6,1.4L226,277.7z M227.1,274.6
			l4-2.4c0.6,0.4,1.2,0.7,1.8,1.1l-4.1,2.7c-0.1-0.1-0.1-0.1-0.2-0.2C228.1,275.4,227.6,275,227.1,274.6z M231.2,280.1
			c-1.1-0.3-2.2-0.6-3-1c-0.1,0-0.2-0.1-0.3-0.1l1.2-0.7c0.6,0.2,1.2,0.4,1.8,0.5c-0.2,0.5-0.1,0.6,0.5,1c0.1,0,0.1,0.1,0.2,0.1
			L231.2,280.1z M232.2,278.3c-0.2-0.1-0.3-0.2-0.4-0.4c0,0.1-0.1,0.2-0.2,0.2c-0.3-0.1-0.5-0.2-0.7-0.3c0.4-0.8,0-0.5-0.4-0.4
			l4.7-2.9c0.7,0.3,1.4,0.7,2.1,1l-0.2,0.6c0.1,0,0.1,0,0.2,0l-4,2.6C232.9,278.6,232.5,278.4,232.2,278.3z M238,281.1
			c-0.4,0-0.9,0-1.5-0.1c-0.4-0.4-0.9-0.7-1.4-0.9l0.4-0.3c0.4,0.1,0.9,0.3,1.3,0.4c0.8,0.2,1.3,0.4,1.6,0.5L238,281.1z
			 M238.8,280.5c-0.4-0.1-0.9-0.2-1.3-0.4c-0.5-0.2-1.1-0.3-1.6-0.5l4.1-2.5c0.7,0.4,1.5,0.8,2.2,1.1L238.8,280.5z M243.6,281.1
			c-0.5,0-1,0-1.4,0l3.6-2.2c0,0,0,0,0,0c0.3,0.3,0.6,0.4,0.9,0.6l-2.4,1.6C244,281,243.8,281.1,243.6,281.1z M248.1,288
			c-0.3,0-0.6,0.1-0.8,0.1c-0.8,0-1.6,0-2.4-0.1c1-0.2,2.2-0.4,3.3-0.7C248.1,287.5,248.1,287.8,248.1,288z M247.9,278.6
			c-0.2-0.2-0.5-0.3-0.5-0.3c-0.4,0-0.7,0.2-1.1,0.3l22.9-13.9L247.9,278.6z M254.8,282.7l0-0.4c0,0,0.1,0.1,0.1,0.1
			c0.3-0.2,0.6-0.3,0.9-0.4L254.8,282.7z M255.2,278.5l0-0.3c0.1-0.1,0.2-0.2,0.3-0.2c0.2-0.1,0.4-0.1,0.6-0.1L255.2,278.5z
			 M258.7,280.1c-0.1-0.1-0.1-0.1-0.2-0.1c-0.7,0.3-0.7,0.7-1.4,1c-0.3,0.1-0.7,0.1-1,0.1l11.1-6.7L258.7,280.1z M277.1,263.6
			l-18.4,12.4c-0.3,0.1-0.7,0.2-1,0.3c-0.9,0.4-0.9,0.9-1.6,1.4c-0.2-0.2-0.6-0.3-1-0.2l0-0.3c-0.3,0.2-0.5,0.3-0.8,0.4
			c-0.1,0-0.2,0-0.3,0L277.1,263.6z M283.8,250.5l-40.5,27c-0.5-0.2-1.3-0.2-1.9-0.5c-0.2-0.1-0.4-0.2-0.7-0.3L283.8,250.5z
			 M238.4,275.3c-0.7-0.5-1.4-0.9-2.1-1.3c0,0-0.1,0-0.1-0.1l51.5-31.3L238.4,275.3z M330.1,216.9c-0.1,0.2-0.2,0.3-0.3,0.2
			L330.1,216.9z M330.8,212.5c-0.6,0.9-1.7,1.6-2.2,2.9L279,245.5l52.4-34.2C331.2,211.8,331,212.2,330.8,212.5z"/>
		<path class="st1" d="M200.5,260.5c0,0.1,0.6,0.4,0.5,0.1C201,260.4,200.4,260.2,200.5,260.5z"/>
		<path class="st1" d="M310.1,240.8c0.3,0.2,0.8-0.5,0.6-0.7C310.3,240,310.5,240.5,310.1,240.8z"/>
		<path class="st1" d="M331.9,214.5c0.3,0.1,0.4-0.3,0.3-0.4C331.9,214,331.8,214.4,331.9,214.5z"/>
		<path class="st1" d="M141.7,199.2c0.2,0.3,0.4,0.9,0.7,0.8C142.2,199.7,142,199.1,141.7,199.2z"/>
		<path class="st1" d="M141.1,196.2c0,0.2,0.4,0.7,0.5,0.3C141.5,196.4,141.1,195.9,141.1,196.2z"/>
		<path class="st1" d="M140,195C138.6,194.1,141.3,196.1,140,195L140,195z"/>
		<path class="st1" d="M140.8,181.9l-0.4-1.4C139.7,177.7,140,182.3,140.8,181.9z"/>
		<path class="st1" d="M142.7,170c0.1,0.5-0.3,0.8,0.2,0.9C143.1,170.9,143.1,170.1,142.7,170z"/>
		<path class="st1" d="M135,177.2c0,0.2,0.3,0.7,0.4,0.4C135.5,177.4,135.1,176.9,135,177.2z"/>
		<path class="st1" d="M143.5,177.1c0-0.1-0.3-0.7-0.4-0.4C143.1,176.9,143.4,177.4,143.5,177.1z"/>
		<path class="st1" d="M137.5,161.2c-0.4,0.4,0,2.7,0.5,4C137.7,163.9,138.7,161.3,137.5,161.2z"/>
		<path class="st1" d="M138.7,171.2C137.6,168.7,138.2,173,138.7,171.2L138.7,171.2z"/>
		<path class="st1" d="M139.9,178.5C139.4,175.8,138.7,178.1,139.9,178.5L139.9,178.5z"/>
		<path class="st1" d="M139.6,153.7l-0.6-0.1c-0.1,0.9-0.6,2.5,0.3,2.1L139.6,153.7z"/>
		<path class="st1" d="M138.9,150c0.1-0.1,0-0.8-0.2-0.6C138.6,149.6,138.7,150.2,138.9,150z"/>
		<path class="st1" d="M141.6,168.7c-0.1-0.8-0.4-1.2-0.8-1.4c-0.4,2,0.4,4.5,0.7,6.3c0.4,1.7,0.5,4.3,1.4,4.6
			c-0.3-3.4-1.4-5.4-1.6-8C141.2,169.5,141.7,169.8,141.6,168.7z"/>
		<path class="st1" d="M143.2,173.3C142.9,175.8,144.6,174.8,143.2,173.3L143.2,173.3z"/>
		<path class="st1" d="M147.9,190.1c0.3-0.1,0-0.9-0.3-0.9C147.8,189.7,147.4,190,147.9,190.1z"/>
		<path class="st1" d="M145.9,194.9c0.6,1.9,1.4,3.8,2.2,5.6c-0.3-1-0.6-2-0.7-3C147,196.3,146.5,195.7,145.9,194.9z"/>
		<path class="st1" d="M147.7,194.3c0,0.2,0.4,0.6,0.5,0.3C148.2,194.5,147.7,194,147.7,194.3z"/>
		<path class="st1" d="M147.7,188.6c-0.5-0.7-0.7-2.7-1.3-2.5c0.4,0.9-0.1,1-0.1,1.5C146.9,187.3,147.1,188.8,147.7,188.6z"/>
		<path class="st1" d="M145.9,189.8c0,0.2,0.4,0.6,0.4,0.3C146.4,190,146,189.6,145.9,189.8z"/>
		<path class="st1" d="M144.3,176.4c0-0.1-0.3-0.7-0.4-0.4C143.8,176.2,144.2,176.7,144.3,176.4z"/>
		<path class="st1" d="M144.8,178.7c-0.2-0.3-0.2-0.9-0.5-0.8C144.5,178.2,144.5,178.8,144.8,178.7z"/>
		<path class="st1" d="M143.5,183.6c0.5-0.1,0.6,1.1,1.1,0.6C144.5,183.2,143.2,182.4,143.5,183.6z"/>
		<path class="st1" d="M145.3,197c0.5-0.2,0.5-0.7,0.4-1.3C145.2,195.9,145.2,196.4,145.3,197z"/>
		<path class="st1" d="M146.1,182.2c-0.8,0.2-1-1.7-1.2-3.1c-1.3,0.7,0.1,3.3,0.9,4.1c-0.3,0.4-0.2,1.1,0,2
			C146.7,184.9,146.2,183.4,146.1,182.2z"/>
		<path class="st1" d="M140.8,155.8c-0.3,0-0.4,0.8,0,1C140.8,156.2,141.3,156,140.8,155.8z"/>
		<path class="st1" d="M140.5,143.5c-0.7,1.5-0.3,1.3-0.9,2.4C140.2,146.9,141,143.6,140.5,143.5z"/>
		<path class="st1" d="M144.9,126.5c0.2-0.1,0.4-0.7,0.1-0.6C144.8,125.9,144.6,126.6,144.9,126.5z"/>
		<path class="st1" d="M145.7,142.3c-0.7-0.4-1.2,0.7-1.7,1.9C144.8,144.7,145.1,143,145.7,142.3z"/>
		<path class="st1" d="M143.5,137c0.1-0.4,0.5-0.9,0.2-1C143.6,136.3,143.2,136.8,143.5,137z"/>
		<path class="st1" d="M143.4,128c0.2-0.1,0.4-0.7,0.1-0.6C143.3,127.5,143.1,128.1,143.4,128z"/>
		<path class="st1" d="M144.7,139.3c0.2-0.5,0.7-0.5,0.4-0.9C144.8,138.2,144.4,139,144.7,139.3z"/>
		<path class="st1" d="M146.1,136.7c0.1-0.1,0.2-0.7,0-0.6C145.9,136.2,145.8,136.8,146.1,136.7z"/>
		<path class="st1" d="M148.1,137.3c0.1-0.1,0.2-0.7,0-0.6C147.9,136.8,147.8,137.5,148.1,137.3z"/>
		<path class="st1" d="M147,134.4c-0.1-0.1-0.5,0.2-0.2,0.4C146.9,134.9,147.3,134.7,147,134.4z"/>
		<path class="st1" d="M143.2,141.3c-0.2-0.1-0.5,0.2-0.2,0.5C143.2,141.8,143.5,141.5,143.2,141.3z"/>
		<path class="st1" d="M145.5,136.9c-0.4-0.1-0.4,0.4-0.5,0.8C145.3,137.9,145.8,137.2,145.5,136.9z"/>
		<path class="st1" d="M147.6,138.1c0.3-0.5-1.3-1.4-0.8-0.4c0.5,0.2,0.4,0.8-0.2,0.4c-0.8,1.2-0.9,2.5-0.8,3.3
			C146.3,140.1,146.8,138.5,147.6,138.1z"/>
		<path class="st1" d="M144.8,134.7c0.1-0.1,0.3-0.7,0-0.6C144.6,134.2,144.5,134.9,144.8,134.7z"/>
		<path class="st1" d="M140.9,146.8c0-0.4,0.2-1,0-1.1C140.8,146.1,140.6,146.7,140.9,146.8z"/>
		<path class="st1" d="M142.4,145.7c0.1-0.1,0.1-0.8-0.2-0.6C142.1,145.2,142.2,145.9,142.4,145.7z"/>
		<path class="st1" d="M140.4,150.3c-0.3-0.2-0.1-0.6,0.2-1C139.4,148.3,139.8,152.3,140.4,150.3z"/>
		<path class="st1" d="M140.4,147.2c0,0.4-0.2,1,0,1C140.5,147.9,140.7,147.3,140.4,147.2z"/>
		<path class="st1" d="M148.2,196.2c0.3,0.5,0.5,1.3,0.9,1.2C148.8,196.8,148.5,196.1,148.2,196.2z"/>
		<path class="st1" d="M140.2,155.7c0-0.6,0.5-0.6,0.5-1.4C140.1,153.5,139.6,155.9,140.2,155.7z"/>
		<path class="st1" d="M141.6,130.8c0.1-0.1,0.3-0.8,0-0.7C141.4,130.2,141.3,130.9,141.6,130.8z"/>
		<path class="st1" d="M141.6,147.5c0.1-0.1,0.1-0.8-0.2-0.6C141.3,147.1,141.4,147.7,141.6,147.5z"/>
		<path class="st1" d="M141,152.4c0.2,0,0.4-0.3,0.1-0.5C140.9,151.9,140.7,152.2,141,152.4z"/>
		<path class="st1" d="M140.9,164.5c-0.4-1.2,0.3-4.1-0.8-3.8C140.3,161.8,139.8,164.9,140.9,164.5z"/>
		<path class="st1" d="M140.5,166.5c0.2,0,0.3-0.4,0-0.5C140.3,166,140.1,166.4,140.5,166.5z"/>
		<path class="st1" d="M215.8,284.9c-0.3-0.3-0.3-0.5-0.1-0.8c-1.1-0.8-2.1-1.3-2.7-1.1C213.1,283.4,215.2,285.3,215.8,284.9z
			 M214.2,283.8c-0.1-0.3,0.5-0.1,0.6,0C214.9,284.1,214.2,283.9,214.2,283.8z"/>
		<path class="st1" d="M316.2,242.2C316.2,242.2,316.2,242.2,316.2,242.2C316.2,242.2,316.2,242.2,316.2,242.2
			C316.2,242.2,316.2,242.2,316.2,242.2z"/>
		<path class="st1" d="M196.3,271.3c0.1,0.1,0,0.7,0.5,0.9C197.2,272.2,195.4,269.5,196.3,271.3z"/>
		<path class="st1" d="M209.7,282.5c-0.5-0.4-0.9-1-1-1.1c-0.7-0.6-1.1-0.3-1.7-0.9c-0.4-0.4-0.6-1.1-0.8-1.4
			c-0.6-0.5-1.8-1.1-2.4-1.6c-1.9-1.6-3.5-3.9-5.8-4.4c6.1,5.8,9.5,8.1,15.1,12.5C213.6,284.1,210.9,283.5,209.7,282.5z"/>
		<path class="st1" d="M218.1,280.2c-0.8-1.3-3.3-2.5-4.4-2.7C215.4,278.8,216.5,280.5,218.1,280.2z"/>
		<path class="st1" d="M217.2,287.3c-1.6,0.2-2.6-2-3.8-1.4c1.5,1.1,3.1,1.6,4.3,2.5c0.4,0.3,0.9,1.2,1.4,1.6
			c0.8,0.5,1.1,0.3,1.9,0.8c1.2,0.7,3.2,2.3,3.9,1.4c-3-0.7-3.5-2.7-6.3-3.2C218.5,288.3,218,287.8,217.2,287.3z"/>
		<path class="st1" d="M226.3,285.9c-2-1.2-4-3.5-5.3-4.1c-0.7-0.4-1.5,0.3-1.9-0.5c0.8-0.7-0.5-0.9-0.8-0.5c2.6,3,5.9,3.6,8.5,6.2
			c0.2-0.5,0.6-0.4,1,0.2C228.8,286.3,226.9,286.3,226.3,285.9z"/>
		<path class="st1" d="M193.6,265.6C193.6,265.6,193.6,265.6,193.6,265.6C193.6,265.6,193.6,265.6,193.6,265.6
			C193.6,265.6,193.6,265.6,193.6,265.6z"/>
		<path class="st1" d="M193.3,268.9c0.8,0.5,2.2,2.7,2.5,1.5l-2.1-2L193.3,268.9z"/>
		<polygon class="st1" points="240.3,291.6 241.3,291.8 241.4,291.2 240.4,291 		"/>
		<path class="st1" d="M198,263.4c-0.5-0.4-1.2-1.3-1.6-1C196.6,263.1,197.4,263.9,198,263.4z"/>
		<path class="st1" d="M206.1,271.3c0.6,1.6,2.7,2.2,4,3.2c1.1,0.8,2.4,3,3.6,2.3c-2.3-1.9-4.6-3.4-7-5.4
			C206.8,271,206.3,270.8,206.1,271.3z"/>
		<path class="st1" d="M200.7,273.5c2.8,2.1,5.5,4.4,8.1,6.1c0.8,1.3,2.8,3.1,3.9,2.9c-5.7-5-12.2-10.4-16.5-14.1
			c-0.5-0.5-0.6-0.9-0.9-1.2c-0.6-0.6-1.1-0.5-1.6-1.1c-0.1-0.2-0.1-0.3-0.2-0.5c-0.7,0.8,1.7,2.2,2.4,3
			C197.7,270.3,199.3,272.4,200.7,273.5z"/>
		<path class="st1" d="M251.5,293.5c-0.2,0-0.8,0.3-0.5,0.4C251.1,294,251.8,293.6,251.5,293.5z"/>
		<path class="st1" d="M270,283.2c-3,1.5-5.3,2.6-8.2,3.7c-1,0.4-2,0.3-2.8,0.6c-0.8,0.3-0.9,0.7-1.7,0.9c-1.6,0.5-2.9,0.2-4.2,1
			c-0.3,0.6,1.3,0.5,1.6,0.5c0.6,0,1.5,0,2,0c-0.1,0,2-0.7,2.3-0.8c2.2-1,3.4-2,5.4-2.1c0.2,0.2,0.5,0.1,1-0.2
			c1.5-2,4.4-2.7,7.3-4.5C272.2,281,271,282.7,270,283.2z"/>
		<path class="st1" d="M294.3,265.8c-0.7,0.6-1.2,1.1-1.3,1.7c-2.8,0.7-3.1,2.7-6.1,3.7c0.7,0.9,2.6-1,3.8-1.7
			c0.7-0.5,1-0.3,1.8-0.9c0.5-0.4,0.9-1.3,1.3-1.7c1.1-0.9,2.7-1.6,4.1-2.8C296.7,263.6,295.9,265.9,294.3,265.8z"/>
		<path class="st1" d="M256.8,289.8C256.8,289.8,256.8,289.8,256.8,289.8C256.8,289.8,256.8,289.8,256.8,289.8z"/>
		<path class="st1" d="M298.2,261.1c-0.7-0.1-1.6,0.4-2.7,1.3c0.3,0.2,0.2,0.5,0,0.8C296.1,263.6,298,261.6,298.2,261.1z
			 M296.5,262.1c0.1-0.2,0.7-0.3,0.6-0.1C297,262.2,296.4,262.4,296.5,262.1z"/>
		<path class="st1" d="M307,255c-0.6,0.6-1.8,1.2-2.3,1.8c-0.3,0.3-0.3,1-0.7,1.4c-0.6,0.6-1,0.4-1.7,1.1c-0.1,0.1-0.5,0.8-0.9,1.2
			c-1.1,1.1-3.8,1.9-3.1,3.3c5.2-4.8,8.5-7.4,14.1-13.6C310.2,250.8,308.8,253.2,307,255z"/>
		<path class="st1" d="M254,292.9c1.2-0.4,1.3,0.3,2.6-0.4C256.5,291.7,253.8,292.1,254,292.9z"/>
		<path class="st1" d="M254,295.4c-0.2,0-0.8,0.3-0.5,0.4C253.7,295.9,254.4,295.5,254,295.4z"/>
		<path class="st1" d="M191.9,267.6c0.5,0.4,1,1,1.3,0.8C192.7,268,192.2,267.4,191.9,267.6z"/>
		<path class="st1" d="M267,287.7c-0.2,0-0.6,0.5-0.3,0.5C266.9,288.2,267.3,287.7,267,287.7z"/>
		<path class="st1" d="M268,287.5c0.1,0.2,0.5,0.1,0.4-0.2C268.3,287.1,267.9,287.1,268,287.5z"/>
		<polygon class="st1" points="270.1,286.3 270.4,286.8 271.2,286.3 270.9,285.8 		"/>
		<path class="st1" d="M184.4,259.4c-0.2-0.3-1.2-2.4-1-1.1c0.8,1.3,1.8,3.5,3.4,3.4C186.7,261.1,185.3,260.4,184.4,259.4z"/>
		<path class="st1" d="M153.1,213.1c0-0.2-0.5-0.6-0.5-0.3C152.6,213,153.1,213.4,153.1,213.1z"/>
		<path class="st1" d="M155.5,214.7c-0.8-1.6-1.7-3.2-2.6-4.6C153.6,211.4,154.4,213,155.5,214.7z"/>
		<path class="st1" d="M151.9,207.2c-0.1-0.4-0.2-1-0.3-1.5C151.6,206.2,151.7,206.7,151.9,207.2z"/>
		<path class="st1" d="M155.1,207C153.5,206.2,155.2,208.9,155.1,207L155.1,207z"/>
		<path class="st1" d="M153.5,201.9c0-0.2-0.4-0.6-0.5-0.3C153,201.8,153.5,202.2,153.5,201.9z"/>
		<path class="st1" d="M154,208.7c0,0.2,0.5,0.6,0.5,0.3C154.5,208.8,154,208.4,154,208.7z"/>
		<path class="st1" d="M151.9,207.2c0.1,0.4,0.1,0.7-0.1,0.7c-0.1,0-0.2-0.1-0.5-0.5l0,0l1.6,2.7C152.4,209,152.1,208.1,151.9,207.2
			z"/>
		<path class="st1" d="M151.9,202.8c-0.4-0.7-0.8-1-1.2-1C151.1,202.5,151.5,202.8,151.9,202.8z"/>
		<polygon class="st1" points="150.8,206.6 151.3,207.3 150.3,205.6 		"/>
		<path class="st1" d="M151.5,199.3c0,0.2,0.4,0.6,0.5,0.3C152,199.4,151.6,199,151.5,199.3z"/>
		<path class="st1" d="M151.4,200.4c0,0.2,0.5,0.6,0.5,0.3C151.9,200.5,151.4,200.1,151.4,200.4z"/>
		<path class="st1" d="M152.3,202.1c0.1-0.1,0.1-0.5-0.2-0.4C151.9,201.7,151.9,202.2,152.3,202.1z"/>
		<path class="st1" d="M149.5,205.8c0.2,0.3,0.4,0.8,0.7,0.7C149.9,206.2,149.7,205.6,149.5,205.8z"/>
		<path class="st1" d="M153.7,202.9c0,0.2,0.4,0.6,0.5,0.3C154.2,203,153.7,202.6,153.7,202.9z"/>
		<path class="st1" d="M161.6,221.2c0.3,0.4,0.1,0.9,0.5,0.8C162.4,221.8,162,221.1,161.6,221.2z"/>
		<path class="st1" d="M160.3,215.9c-0.7-0.8-1.5-3.4-2.2-2.5C157.9,213.2,159.7,216.7,160.3,215.9z"/>
		<path class="st1" d="M187.5,263c0.9,1,2.2,3.3,4.2,4C190,265.8,188.8,262.6,187.5,263z"/>
		<path class="st1" d="M189.5,270.3c0.6,0.6,1.1,0.7,1.5,0.5C190.4,270.4,189.7,269.7,189.5,270.3z"/>
		<path class="st1" d="M160.1,214.3c0.1,0.3,0.3,1.9,1,1.6C160.4,215.3,161,214.1,160.1,214.3z"/>
		<path class="st1" d="M153,223.8c1.3,2.1,3,4.1,3.8,6.3c0.9-2.1-2.6-4.7-3.6-6.5C153.2,223.6,153,223.8,153,223.8z"/>
		<path class="st1" d="M155.9,206.5c-0.2-0.3-0.5-0.8-0.7-0.7C155.4,206.1,155.6,206.6,155.9,206.5z"/>
		<path class="st1" d="M157.1,230.5c1.1,1.4,2.5,4.2,3.7,4.6C160,233.4,158.3,230.2,157.1,230.5z"/>
		<path class="st1" d="M156.9,210.8c-0.1,0.1-0.1,0.5,0.2,0.4C157.3,211.1,157.3,210.7,156.9,210.8z"/>
		<path class="st1" d="M157.9,212.4c0.1-0.1,0.1-0.5-0.2-0.4C157.5,212.1,157.5,212.5,157.9,212.4z"/>
	</g>
</g>
</svg>
