<?xml version="1.0" encoding="utf-8"?>
<!-- Generator: Adobe Illustrator 22.0.1, SVG Export Plug-In . SVG Version: 6.00 Build 0)  -->
<svg version="1.1" xmlns="http://www.w3.org/2000/svg" xmlns:xlink="http://www.w3.org/1999/xlink" x="0px" y="0px"
	 viewBox="0 0 753.1 400" style="enable-background:new 0 0 753.1 400;" xml:space="preserve">
<style type="text/css">
	.st0{display:none;}
	.st1{display:inline;}
	.st2{fill:#FFFFFF;}
</style>
<g id="Solid" class="st0">
	<g class="st1">
		<path d="M268.3,186.2h7c12.5,0,22-4.7,22-18.6c0-12-9.6-17.7-21-17.7h-8V186.2z M254.8,137.5h20.2c19.7,0,36.2,8.4,36.2,30.8
			c0,19.8-16.2,30.4-34.4,30.4h-22.1V137.5z"/>
		<polygon points="419,137.5 460.1,137.5 460.1,149.9 432.5,149.9 432.5,162.4 458,162.4 458,174.9 432.5,174.9 432.5,198.7 
			419,198.7 		"/>
		<polygon points="124.2,222.5 124.2,209.3 317.3,209.3 338.4,87.2 364,222.4 392.2,115 408.2,209.2 628.9,209.2 628.9,222.5 
			397.1,222.5 389.4,178.5 361.9,283.4 339,162.6 328.6,222.5 		"/>
		<path d="M145.4,261.5h3.3c5.9,0,10.3-2.1,10.3-8.1c0-5.2-4.5-7.7-9.9-7.7h-3.7V261.5z M139,240.3h9.5c9.3,0,17,3.7,17,13.4
			c0,8.6-7.6,13.2-16.2,13.2H139V240.3z"/>
		<path d="M189.8,248.1l-3.5,8.3h7L189.8,248.1z M187.3,240.3h5.2l12.5,26.6h-7.1l-2.5-5.6h-11.2l-2.4,5.6h-7L187.3,240.3z"/>
		<polygon points="216.2,240.3 222.6,240.3 222.6,251.4 233.7,240.3 242,240.3 229.2,252.7 243.1,267 234.2,267 222.6,254.3 
			222.6,267 216.2,267 		"/>
		<path d="M265.7,262.2c5.4,0,8.9-3.6,8.9-8.6c0-5-3.5-8.6-8.9-8.6c-5.4,0-8.9,3.6-8.9,8.6C256.7,258.6,260.3,262.2,265.7,262.2
			 M265.7,239.7c9,0,15.5,5.5,15.5,14c0,8.5-6.5,14-15.5,14c-9,0-15.5-5.5-15.5-14C250.2,245.1,256.7,239.7,265.7,239.7"/>
		<polygon points="298.3,245.6 290.1,245.6 290.1,240.3 312.8,240.3 312.8,245.6 304.6,245.6 304.6,267 298.3,267 		"/>
		<path d="M332.2,248.1l-3.5,8.3h7L332.2,248.1z M329.8,240.3h5.2l12.5,26.6h-7.1l-2.5-5.6h-11.2l-2.4,5.6h-7L329.8,240.3z"/>
		<polygon points="384.2,240.3 393.8,240.3 400.4,257.7 400.5,257.7 407.1,240.3 416.7,240.3 416.7,267 410.3,267 410.3,246.6 
			410.2,246.6 402.7,267 397.9,267 390.6,246.6 390.5,246.6 390.5,267 384.2,267 		"/>
		<polygon points="433.2,240.3 452.7,240.3 452.7,245.8 439.5,245.8 439.5,250.7 452,250.7 452,256.1 439.5,256.1 439.5,261.5 
			453.5,261.5 453.5,267 433.2,267 		"/>
		<path d="M472.9,261.5h3.3c5.9,0,10.3-2.1,10.3-8.1c0-5.2-4.5-7.7-9.9-7.7h-3.7V261.5z M466.6,240.3h9.5c9.3,0,17,3.7,17,13.4
			c0,8.6-7.6,13.2-16.2,13.2h-10.3V240.3z"/>
		<rect x="505.3" y="240.4" width="6.3" height="26.6"/>
		<path d="M544.3,247.3c-1.3-1.4-3.1-2.1-5.4-2.1c-4.8,0-8.3,3.6-8.3,8.6c0,5,3.5,8.6,8.1,8.6c2.6,0,4.6-1.1,5.9-2.9l5.3,3.7
			c-2.4,3.2-6.5,4.6-10.4,4.6c-9,0-15.5-5.5-15.5-14c0-8.6,6.5-14,15.5-14c3.2,0,7.3,1.1,9.7,3.9L544.3,247.3z"/>
		<path d="M573.2,248.1l-3.5,8.3h7L573.2,248.1z M570.8,240.3h5.2l12.5,26.6h-7.1l-2.5-5.6h-11.2l-2.4,5.6h-7L570.8,240.3z"/>
		<polygon points="599.7,240.3 606,240.3 606,261.5 617.7,261.5 617.7,267 599.7,267 		"/>
		<polygon points="203.2,285.5 222.5,285.5 222.5,290.9 209.5,290.9 209.5,296.3 221.5,296.3 221.5,301.7 209.5,301.7 209.5,312.1 
			203.2,312.1 		"/>
		<path d="M249,307.3c5.4,0,8.9-3.6,8.9-8.6c0-5-3.5-8.6-8.9-8.6c-5.4,0-8.9,3.6-8.9,8.6C240.1,303.7,243.7,307.3,249,307.3
			 M249,284.8c9,0,15.5,5.5,15.5,14c0,8.6-6.5,14-15.5,14c-9,0-15.5-5.5-15.5-14C233.5,290.3,240.1,284.8,249,284.8"/>
		<path d="M301.1,301.8c0,6.3-4.1,11-12.1,11c-8,0-12.1-4.7-12.1-11v-16.3h6.3v16.1c0,3.3,2.4,5.7,5.8,5.7c3.3,0,5.8-2.5,5.8-5.7
			v-16.1h6.3V301.8z"/>
		<polygon points="315.8,285.5 324.4,285.5 336.6,303.9 336.7,303.9 336.7,285.5 343.1,285.5 343.1,312.1 334.8,312.1 322.2,293.1 
			322.2,293.1 322.2,312.1 315.8,312.1 		"/>
		<path d="M364.1,306.7h3.3c5.9,0,10.3-2.1,10.3-8.2c0-5.2-4.5-7.7-9.9-7.7h-3.7V306.7z M357.8,285.5h9.5c9.3,0,17,3.7,17,13.4
			c0,8.6-7.6,13.2-16.2,13.2h-10.3V285.5z"/>
		<path d="M408.5,293.2l-3.5,8.3h7L408.5,293.2z M406.1,285.5h5.2l12.5,26.6h-7.1l-2.5-5.7H403l-2.4,5.7h-7L406.1,285.5z"/>
		<polygon points="436.6,290.6 428.4,290.6 428.4,285.5 451.1,285.5 451.1,290.6 442.9,290.6 442.9,312.1 436.6,312.1 		"/>
		<rect x="462.2" y="285.5" width="6.3" height="26.6"/>
		<path d="M496.4,307.3c5.4,0,8.9-3.6,8.9-8.6c0-5-3.5-8.6-8.9-8.6c-5.4,0-8.9,3.6-8.9,8.6C487.4,303.7,491,307.3,496.4,307.3
			 M496.4,284.8c9,0,15.5,5.5,15.5,14c0,8.6-6.5,14-15.5,14c-9,0-15.5-5.5-15.5-14C480.9,290.3,487.4,284.8,496.4,284.8"/>
		<polygon points="524.2,285.5 532.8,285.5 545,303.9 545.1,303.9 545.1,285.5 551.4,285.5 551.4,312.1 543.2,312.1 530.6,293.1 
			530.5,293.1 530.5,312.1 524.2,312.1 		"/>
	</g>
</g>
<g id="Reverse">
	<g>
		<path class="st2" d="M268.3,186.2h7c12.5,0,22-4.7,22-18.6c0-12-9.6-17.7-21-17.7h-8V186.2z M254.8,137.5h20.2
			c19.7,0,36.2,8.4,36.2,30.8c0,19.8-16.2,30.4-34.4,30.4h-22.1V137.5z"/>
		<polygon class="st2" points="419,137.5 460.1,137.5 460.1,149.9 432.5,149.9 432.5,162.4 458,162.4 458,174.9 432.5,174.9 
			432.5,198.7 419,198.7 		"/>
		<polygon class="st2" points="124.2,222.5 124.2,209.3 317.3,209.3 338.4,87.2 364,222.4 392.2,115 408.2,209.2 628.9,209.2 
			628.9,222.5 397.1,222.5 389.4,178.5 361.9,283.4 339,162.6 328.6,222.5 		"/>
		<path class="st2" d="M145.4,261.5h3.3c5.9,0,10.3-2.1,10.3-8.1c0-5.2-4.5-7.7-9.9-7.7h-3.7V261.5z M139,240.3h9.5
			c9.3,0,17,3.7,17,13.4c0,8.6-7.6,13.2-16.2,13.2H139V240.3z"/>
		<path class="st2" d="M189.8,248.1l-3.5,8.3h7L189.8,248.1z M187.3,240.3h5.2l12.5,26.6h-7.1l-2.5-5.6h-11.2l-2.4,5.6h-7
			L187.3,240.3z"/>
		<polygon class="st2" points="216.2,240.3 222.6,240.3 222.6,251.4 233.7,240.3 242,240.3 229.2,252.7 243.1,267 234.2,267 
			222.6,254.3 222.6,267 216.2,267 		"/>
		<path class="st2" d="M265.7,262.2c5.4,0,8.9-3.6,8.9-8.6c0-5-3.5-8.6-8.9-8.6c-5.4,0-8.9,3.6-8.9,8.6
			C256.7,258.6,260.3,262.2,265.7,262.2 M265.7,239.7c9,0,15.5,5.5,15.5,14c0,8.5-6.5,14-15.5,14c-9,0-15.5-5.5-15.5-14
			C250.2,245.1,256.7,239.7,265.7,239.7"/>
		<polygon class="st2" points="298.3,245.6 290.1,245.6 290.1,240.3 312.8,240.3 312.8,245.6 304.6,245.6 304.6,267 298.3,267 		"/>
		<path class="st2" d="M332.2,248.1l-3.5,8.3h7L332.2,248.1z M329.8,240.3h5.2l12.5,26.6h-7.1l-2.5-5.6h-11.2l-2.4,5.6h-7
			L329.8,240.3z"/>
		<polygon class="st2" points="384.2,240.3 393.8,240.3 400.4,257.7 400.5,257.7 407.1,240.3 416.7,240.3 416.7,267 410.3,267 
			410.3,246.6 410.2,246.6 402.7,267 397.9,267 390.6,246.6 390.5,246.6 390.5,267 384.2,267 		"/>
		<polygon class="st2" points="433.2,240.3 452.7,240.3 452.7,245.8 439.5,245.8 439.5,250.7 452,250.7 452,256.1 439.5,256.1 
			439.5,261.5 453.5,261.5 453.5,267 433.2,267 		"/>
		<path class="st2" d="M472.9,261.5h3.3c5.9,0,10.3-2.1,10.3-8.1c0-5.2-4.5-7.7-9.9-7.7h-3.7V261.5z M466.6,240.3h9.5
			c9.3,0,17,3.7,17,13.4c0,8.6-7.6,13.2-16.2,13.2h-10.3V240.3z"/>
		<rect x="505.3" y="240.4" class="st2" width="6.3" height="26.6"/>
		<path class="st2" d="M544.3,247.3c-1.3-1.4-3.1-2.1-5.4-2.1c-4.8,0-8.3,3.6-8.3,8.6c0,5,3.5,8.6,8.1,8.6c2.6,0,4.6-1.1,5.9-2.9
			l5.3,3.7c-2.4,3.2-6.5,4.6-10.4,4.6c-9,0-15.5-5.5-15.5-14c0-8.6,6.5-14,15.5-14c3.2,0,7.3,1.1,9.7,3.9L544.3,247.3z"/>
		<path class="st2" d="M573.2,248.1l-3.5,8.3h7L573.2,248.1z M570.8,240.3h5.2l12.5,26.6h-7.1l-2.5-5.6h-11.2l-2.4,5.6h-7
			L570.8,240.3z"/>
		<polygon class="st2" points="599.7,240.3 606,240.3 606,261.5 617.7,261.5 617.7,267 599.7,267 		"/>
		<polygon class="st2" points="203.2,285.5 222.5,285.5 222.5,290.9 209.5,290.9 209.5,296.3 221.5,296.3 221.5,301.7 209.5,301.7 
			209.5,312.1 203.2,312.1 		"/>
		<path class="st2" d="M249,307.3c5.4,0,8.9-3.6,8.9-8.6c0-5-3.5-8.6-8.9-8.6c-5.4,0-8.9,3.6-8.9,8.6
			C240.1,303.7,243.7,307.3,249,307.3 M249,284.8c9,0,15.5,5.5,15.5,14c0,8.6-6.5,14-15.5,14c-9,0-15.5-5.5-15.5-14
			C233.5,290.3,240.1,284.8,249,284.8"/>
		<path class="st2" d="M301.1,301.8c0,6.3-4.1,11-12.1,11c-8,0-12.1-4.7-12.1-11v-16.3h6.3v16.1c0,3.3,2.4,5.7,5.8,5.7
			c3.3,0,5.8-2.5,5.8-5.7v-16.1h6.3V301.8z"/>
		<polygon class="st2" points="315.8,285.5 324.4,285.5 336.6,303.9 336.7,303.9 336.7,285.5 343.1,285.5 343.1,312.1 334.8,312.1 
			322.2,293.1 322.2,293.1 322.2,312.1 315.8,312.1 		"/>
		<path class="st2" d="M364.1,306.7h3.3c5.9,0,10.3-2.1,10.3-8.2c0-5.2-4.5-7.7-9.9-7.7h-3.7V306.7z M357.8,285.5h9.5
			c9.3,0,17,3.7,17,13.4c0,8.6-7.6,13.2-16.2,13.2h-10.3V285.5z"/>
		<path class="st2" d="M408.5,293.2l-3.5,8.3h7L408.5,293.2z M406.1,285.5h5.2l12.5,26.6h-7.1l-2.5-5.7H403l-2.4,5.7h-7L406.1,285.5
			z"/>
		<polygon class="st2" points="436.6,290.6 428.4,290.6 428.4,285.5 451.1,285.5 451.1,290.6 442.9,290.6 442.9,312.1 436.6,312.1 
					"/>
		<rect x="462.2" y="285.5" class="st2" width="6.3" height="26.6"/>
		<path class="st2" d="M496.4,307.3c5.4,0,8.9-3.6,8.9-8.6c0-5-3.5-8.6-8.9-8.6c-5.4,0-8.9,3.6-8.9,8.6
			C487.4,303.7,491,307.3,496.4,307.3 M496.4,284.8c9,0,15.5,5.5,15.5,14c0,8.6-6.5,14-15.5,14c-9,0-15.5-5.5-15.5-14
			C480.9,290.3,487.4,284.8,496.4,284.8"/>
		<polygon class="st2" points="524.2,285.5 532.8,285.5 545,303.9 545.1,303.9 545.1,285.5 551.4,285.5 551.4,312.1 543.2,312.1 
			530.6,293.1 530.5,293.1 530.5,312.1 524.2,312.1 		"/>
	</g>
</g>
</svg>
