<?xml version="1.0" encoding="utf-8"?>
<!-- Generator: Adobe Illustrator 22.0.1, SVG Export Plug-In . SVG Version: 6.00 Build 0)  -->
<svg version="1.1" id="Layer_1" xmlns="http://www.w3.org/2000/svg" xmlns:xlink="http://www.w3.org/1999/xlink" x="0px" y="0px"
	 viewBox="0 0 832.4 63.1" style="enable-background:new 0 0 832.4 63.1;" xml:space="preserve">
<style type="text/css">
	.st0{fill:#FFFFFF;}
</style>
<path class="st0" d="M48.1,51.2h12.1V15.3H48.1V51.2z M136.9,16.8c-1-0.8-2.1-1.4-3.3-1.8c-1.2-0.4-2.5-0.6-3.8-0.6
	c-1.8,0-3.4,0.4-4.8,1.1c-1.4,0.7-2.8,1.7-4,3.1v-3.3h-12.1v35.9h12.1V31.5c0-1.4,0.2-2.6,0.7-3.6c0.5-0.9,1.4-1.4,2.7-1.4
	c1.5,0,2.5,0.5,2.9,1.4c0.5,0.9,0.7,2.1,0.7,3.6v19.7h12.1V24.8c0-1.8-0.3-3.4-0.9-4.8C138.7,18.7,137.9,17.6,136.9,16.8z
	 M167.6,15.3v-0.1h0.1c-0.1,0-0.6,0-1.5-0.1c-1.7-0.1-3.3-0.3-4.7-0.4c-1.4-0.1-2.7-0.2-3.7-0.2c-1.8,0-3.5,0.3-5.3,0.9
	c-1.8,0.6-3.4,1.6-5,2.9c-1.5,1.3-2.8,3.1-3.7,5.2c-0.9,2.2-1.4,4.8-1.4,7.8c0,1.8,0.3,3.6,0.9,5.5c0.6,1.9,1.6,3.6,2.9,5.2
	c1.3,1.6,3,2.8,5.1,3.8c2.1,0.9,4.5,1.4,7.3,1.4c1.5,0,2.8-0.1,3.7-0.4v1.7c0,1.2-0.4,2.2-1.3,2.9c-0.9,0.7-2,1.1-3.3,1.1
	c-1.8,0-3.7-0.4-5.5-1.2c-1.8-0.8-3.4-1.9-4.5-3.3l-6,8.9c2.4,2.1,4.9,3.8,7.5,4.9c2.6,1.2,5.3,1.7,8.2,1.7c2.9,0,5.4-0.4,7.6-1.3
	c2.2-0.9,4-2,5.4-3.4c1.4-1.4,2.4-3,3.1-4.8c0.7-1.8,1-3.5,1-5.3c0-2.2-0.3-3.9-0.9-5.2c-0.6-1.3-1.3-2.4-2.1-3.3
	c0.9-0.8,1.7-2.1,2.4-3.7c0.7-1.6,1-3.4,1-5.2c0-2.5-0.4-4.7-1.2-6.7c-0.8-2-1.5-3.3-2.3-3.9l3.6-5.4H167.6z M161.4,33.9
	c-0.9,0.9-1.9,1.4-3.1,1.4c-1.2,0-2.2-0.5-3.1-1.4c-0.9-0.9-1.3-2-1.3-3.2c0-1.2,0.4-2.3,1.3-3.2c0.9-0.9,1.9-1.4,3.1-1.4
	c1.2,0,2.2,0.5,3.1,1.4c0.9,0.9,1.3,2,1.3,3.2C162.8,31.9,162.3,33,161.4,33.9z M30.7,37.9c-0.6,0.3-1.4,0.6-2.3,0.8
	c-0.9,0.2-1.6,0.3-2.3,0.3c-1.8,0-3.4-0.3-5-1c-1.5-0.6-2.9-1.6-4.1-2.7c-1.2-1.2-2.1-2.5-2.7-4.1c-0.6-1.5-1-3.2-1-5
	c0-1.8,0.3-3.4,1-5c0.6-1.5,1.6-2.9,2.7-4.1c1.2-1.2,2.5-2.1,4.1-2.7c1.5-0.6,3.2-1,5-1c2.2,0,4.2,0.3,6,0.9
	c1.8,0.6,3.6,1.5,5.3,2.7L43,4.4c-0.7-0.5-1.7-1-2.9-1.6c-1.2-0.5-2.6-1-4.2-1.5c-1.5-0.4-3.1-0.8-4.6-1C29.9,0.1,28.5,0,27.3,0
	c-4,0-7.7,0.6-11.1,1.9C12.9,3.2,10,5.1,7.5,7.5c-2.4,2.4-4.3,5.2-5.6,8.4C0.6,19.1,0,22.5,0,26.2c0,4.2,0.7,7.9,2,11.2
	c1.3,3.3,3.2,6,5.7,8.3c2.5,2.2,5.4,3.9,8.7,5.1c3.3,1.1,7,1.7,10.9,1.7c2.5,0,5.4-0.2,8.6-0.7c3.2-0.5,5.8-1.1,7.8-2V25.5h-13V37.9
	z M93.3,12.1h12.1V1.2H93.3V12.1z M48.1,12.1h12.1V1.2H48.1V12.1z M76.8,35.5h-0.1l-3.2-20.2H60.8l8.3,35.9h15.3l8.3-35.9H80
	L76.8,35.5z M93.3,51.2h12.1V15.3H93.3V51.2z M395.9,17c-1-2.9-2.5-5.6-4.5-8c-2-2.4-4.5-4.3-7.5-5.7c-3-1.4-6.4-2.1-10.3-2.1h-11.9
	v49.9h10.3c3.7,0,7.2-0.6,10.3-1.9c3.1-1.3,5.8-3.1,8-5.4c2.2-2.3,4-5,5.2-8.1c1.2-3.1,1.8-6.4,1.8-9.9
	C397.4,22.9,396.9,20,395.9,17z M383.8,29.2c-0.2,1.1-0.6,2.2-1.2,3.3c-0.6,1.1-1.6,2.1-2.8,2.9c-1.3,0.9-2.9,1.4-4.8,1.7V14.4
	c1.8,0.2,3.3,0.6,4.5,1.4c1.2,0.7,2.2,1.7,2.8,2.7c0.7,1.1,1.1,2.2,1.4,3.4c0.3,1.2,0.4,2.5,0.4,3.8C384.1,27,384,28.1,383.8,29.2z
	 M422.9,17.3c-2.1-1.4-5.7-2.1-10.9-2.1c-1.8,0-4.4,0.1-8,0.3c-0.4,0-1,0.1-1.9,0.1l-1.5,8.5c0.1,0,0.6-0.1,1.4-0.2
	c1.2-0.2,2.3-0.4,3.1-0.5c0.8-0.1,1.9-0.1,3.2-0.1c2.6,0,4.4,0.3,5.2,1c0.9,0.6,1.3,1.9,1.3,3.7c-0.6-0.3-1.3-0.5-2.3-0.7
	c-0.9-0.2-2-0.3-3-0.3c-3.8,0-6.9,1.2-9.1,3.6c-2.2,2.4-3.3,5.3-3.3,8.6c0,3.9,1.1,7,3.2,9.2c2.1,2.3,4.8,3.4,7.9,3.4
	c2.1,0,3.8-0.4,5.2-1.2c1.4-0.8,2.2-1.6,2.6-2.3h0.1v2.6h10.4V26.6c0-2.4-0.3-4.3-0.9-5.8C425.2,19.3,424.2,18.2,422.9,17.3z
	 M415.1,41.2c-0.7,0.7-1.6,1.1-2.6,1.1c-1,0-1.9-0.4-2.6-1.1c-0.7-0.7-1.1-1.6-1.1-2.6c0-1,0.4-1.9,1.1-2.6c0.7-0.7,1.6-1.1,2.6-1.1
	c1,0,1.9,0.4,2.6,1.1c0.7,0.7,1.1,1.6,1.1,2.6C416.2,39.6,415.8,40.5,415.1,41.2z M347,30.5c-0.8-0.8-1.4-1.4-1.8-1.9
	c-0.4-0.5-0.6-0.9-0.6-1.4c0-0.7,0.3-1.3,0.8-1.8c0.5-0.4,1.2-0.7,1.9-0.7c1.5,0,2.8,0.4,4.1,1.2V14.7c-1.8-0.2-4.1-0.3-7-0.3
	c-3.8,0-6.9,0.9-9.1,2.7c-2.2,1.8-3.3,4.5-3.3,8.2c0,2.3,0.5,4.2,1.4,5.7c0.9,1.5,2.1,2.9,3.7,4.4c0.8,0.8,1.4,1.4,1.8,1.9
	c0.4,0.5,0.6,0.9,0.6,1.5c0,0.8-0.3,1.4-0.9,1.7c-0.6,0.3-1.4,0.5-2.3,0.5c-0.7,0-1.4-0.1-2-0.3c-0.6-0.2-1.1-0.4-1.6-0.6v11.2
	c1.7,0.4,3,0.6,4,0.7c1,0.1,1.8,0.1,2.6,0.1c4.4,0,7.8-0.9,10-2.8c2.2-1.8,3.3-4.5,3.3-8c0-2.3-0.5-4.3-1.5-5.8
	C350,33.8,348.7,32.2,347,30.5z M209.6,18.7h-10.8V1.3h-13v49.9h13v-19h10.8v19h13V1.3h-13V18.7z M449.1,15.3L445,32.7h-0.1
	l-5.1-17.4h-13.3l12.5,34l-4.2,14.1h13l14.4-48.1H449.1z M329.7,39.1c-1.6,0-2.6-0.3-2.9-0.9c-0.4-0.6-0.6-1.5-0.6-2.7v-9.8h4.4
	V15.3h-4.4V3.9l-12.1,6.9v4.4h-2.5v10.4h2.5v16.4c0,2.2,0.3,4,1,5.2c0.6,1.2,1.6,2.1,2.9,2.7c1.3,0.6,2.8,0.9,4.4,1
	c1.7,0.1,4.1,0.2,7.3,0.2l1.8-12.3h-0.1C331,39,330.4,39.1,329.7,39.1z M303.3,18.9h-0.1v-3.6H291v35.9h12.1V33.8
	c0-2.3,0.5-3.9,1.6-4.9c1.1-1,3.2-1.5,6.3-1.5V15.3c-2.1,0-3.8,0.3-4.9,0.8C304.9,16.5,304,17.5,303.3,18.9z M251.6,39.4
	c-2.1,1-4.2,1.6-6.1,1.6c-0.8,0-1.6-0.1-2.4-0.3c-0.8-0.2-1.4-0.4-1.7-0.7l18.1-12.8c-0.5-1.6-1-3-1.6-4.3c-0.6-1.3-1.5-2.6-2.7-3.9
	c-1.2-1.3-2.7-2.4-4.6-3.2c-1.9-0.8-4.3-1.2-7-1.2c-2.1,0-4.3,0.4-6.5,1.1c-2.2,0.8-4.2,1.9-6.1,3.5c-1.9,1.6-3.4,3.6-4.5,6
	c-1.1,2.4-1.7,5.1-1.7,8.2c0,3.5,0.6,6.4,1.8,8.9c1.2,2.5,2.8,4.4,4.6,5.9c1.9,1.4,3.8,2.5,5.9,3.1c2,0.6,3.8,0.9,5.5,0.9
	c3.3,0,6.1-0.4,8.5-1.3c2.4-0.9,4.5-1.9,6.5-3.1h0.1l-0.8-11.8C255.5,37.1,253.8,38.3,251.6,39.4z M236.5,33.4v-0.2
	c-0.2-0.8-0.3-1.4-0.3-1.7c0-2.1,0.6-3.7,1.8-4.9c1.2-1.2,2.6-1.8,4.3-1.8c0.7,0,1.4,0.1,2.3,0.3c0.8,0.2,1.4,0.5,1.7,0.9
	L236.5,33.4z M283.7,17.3c-2.1-1.4-5.7-2.1-10.9-2.1c-1.8,0-4.4,0.1-8,0.3c-0.4,0-1,0.1-1.9,0.1l-1.5,8.5c0.1,0,0.6-0.1,1.4-0.2
	c1.2-0.2,2.3-0.4,3.1-0.5c0.8-0.1,1.9-0.1,3.2-0.1c2.6,0,4.4,0.3,5.2,1c0.9,0.6,1.3,1.9,1.3,3.7c-0.6-0.3-1.3-0.5-2.3-0.7
	c-0.9-0.2-2-0.3-3-0.3c-3.8,0-6.9,1.2-9.1,3.6c-2.2,2.4-3.3,5.3-3.3,8.6c0,3.9,1.1,7,3.2,9.2c2.1,2.3,4.8,3.4,7.9,3.4
	c2.1,0,3.8-0.4,5.2-1.2c1.4-0.8,2.2-1.6,2.6-2.3h0.1v2.6h10.4V26.6c0-2.4-0.3-4.3-0.9-5.8C286,19.3,285,18.2,283.7,17.3z
	 M275.8,41.2c-0.7,0.7-1.6,1.1-2.6,1.1c-1,0-1.9-0.4-2.6-1.1c-0.7-0.7-1.1-1.6-1.1-2.6c0-1,0.4-1.9,1.1-2.6c0.7-0.7,1.6-1.1,2.6-1.1
	c1,0,1.9,0.4,2.6,1.1c0.7,0.7,1.1,1.6,1.1,2.6C276.9,39.6,276.5,40.5,275.8,41.2z"/>
<g>
	<path class="st0" d="M512.1,1.3h26.6l2,13.1h-15.7v5.2h10.2v13.1h-10.2v18.3h-13V1.3z"/>
	<path class="st0" d="M542.7,1.3h26.6l2,13.1h-15.7v5.2h10.2v13.1h-10.2v5.2h17.4l-3.4,13.1h-27V1.3z"/>
	<path class="st0" d="M577.2,1.3H597c9.9,0,14.4,6.5,14.4,13.8c0,7.6-4.6,9.7-6.4,10.7c1.1,0.7,6.7,3.2,6.7,11.3
		c0,4.9-3.4,13.9-15.7,13.9h-18.7V1.3z M590.2,20.6h3.1c1.4,0,5,0,5-4.2c0-4.1-3.6-4.1-5-4.1h-3.1V20.6z M590.2,39.9h3.3
		c4,0,4.8-2.9,4.8-4.6c0-3.7-3.2-4.3-5.2-4.3h-2.9V39.9z"/>
	<path class="st0" d="M648.8,2.9c9.6,0,15.1,6.6,15.1,13.7c0,3.2-0.4,7.5-5.2,10.7c3.5,2,5.2,6.6,5.2,10.5c0,6.3-4.3,14.1-15.1,14.1
		s-15.1-7.8-15.1-14.1c0-3.9,1.7-8.5,5.2-10.5c-4.8-3.2-5.2-7.5-5.2-10.7C633.7,9.5,639.2,2.9,648.8,2.9z M648.8,22.4
		c2.4,0,4.3-1.9,4.3-4.3s-1.9-4.3-4.3-4.3s-4.3,1.9-4.3,4.3S646.4,22.4,648.8,22.4z M648.8,40.4c2.4,0,4.3-1.9,4.3-4.3
		s-1.9-4.3-4.3-4.3s-4.3,1.9-4.3,4.3S646.4,40.4,648.8,40.4z"/>
	<path class="st0" d="M683.9,38.4l-6.5,24.1h-10.8l5.8-24.1H683.9z"/>
	<path class="st0" d="M714.6,31.7c-6.1-2.4-10.3-5.9-10.3-12.9c0-9.2,6.5-15.9,16.6-15.9c9.5,0,15.7,6.6,15.7,14
		c0,5.9-2.1,9.5-6.4,15.9l-4,6.1h11.5v12h-32.7L720,29.1c3-4.3,4.8-7.7,4.8-10.3c0-2.9-1.9-4.9-4.6-4.9c-1.4,0-4.2,0.7-4.2,4.3
		c0,2.1,1.4,3.9,3.3,4.5L714.6,31.7z"/>
	<path class="st0" d="M757.3,2.9c8.8,0,16.6,7.9,16.6,24.5c0,16.6-7.8,24.5-16.6,24.5s-16.6-7.9-16.6-24.5
		C740.7,10.8,748.5,2.9,757.3,2.9z M761.9,27.3c0-1.7,0-11.9-4.6-11.9s-4.6,10.1-4.6,11.9c0,1.9,0,12,4.6,12S761.9,29.2,761.9,27.3z
		"/>
	<path class="st0" d="M796.2,50.9h-12V19.5c-1.7,1.2-5.6,1.9-7.7,2.2V9.1c4.1-0.9,6.9-3.4,7.7-5.2h12V50.9z"/>
	<path class="st0" d="M817.3,2.9c9.6,0,15.1,6.6,15.1,13.7c0,3.2-0.4,7.5-5.2,10.7c3.5,2,5.2,6.6,5.2,10.5c0,6.3-4.3,14.1-15.1,14.1
		c-10.8,0-15.1-7.8-15.1-14.1c0-3.9,1.7-8.5,5.2-10.5c-4.8-3.2-5.2-7.5-5.2-10.7C802.2,9.5,807.7,2.9,817.3,2.9z M817.3,22.4
		c2.4,0,4.3-1.9,4.3-4.3s-1.9-4.3-4.3-4.3S813,15.6,813,18S814.9,22.4,817.3,22.4z M817.3,40.4c2.4,0,4.3-1.9,4.3-4.3
		s-1.9-4.3-4.3-4.3s-4.3,1.9-4.3,4.3S814.9,40.4,817.3,40.4z"/>
</g>
<circle class="st0" cx="485" cy="31.5" r="9"/>
</svg>
