<?xml version="1.0" encoding="utf-8"?>
<!-- Generator: Adobe Illustrator 22.0.1, SVG Export Plug-In . SVG Version: 6.00 Build 0)  -->
<svg version="1.1" id="Solid" xmlns="http://www.w3.org/2000/svg" xmlns:xlink="http://www.w3.org/1999/xlink" x="0px" y="0px"
	 viewBox="0 0 82 75.8" style="enable-background:new 0 0 82 75.8;" xml:space="preserve">
<style type="text/css">
	.st0{fill:#E82C2A;}
</style>
<title>hand_heart</title>
<path class="st0" d="M40.6,17.2c-2.5,4.2-13,13.6-16.6,16.1C20.4,30.8,9.8,21.4,7.4,17.2c-1-1.4-1.5-3.1-1.5-4.8
	c0-4.7,3.8-8.4,8.4-8.4c3.4,0,6.5,1.9,8,4.9c0.5,1,1.7,1.3,2.6,0.9c0.4-0.2,0.7-0.5,0.9-0.9c1.5-3,4.6-4.9,7.9-4.9
	c4.7,0,8.4,3.8,8.5,8.4C42.1,14.1,41.6,15.7,40.6,17.2 M33.7,0C30,0,26.4,1.7,24,4.5C21.6,1.7,18,0,14.3,0C7.5,0,2,5.5,2,12.3
	c0,2.4,0.7,4.7,2,6.8c3,5.2,16,16.6,19.1,18.2c0.5,0.3,1.2,0.3,1.7,0C28,35.7,41,24.3,44,19.1c1.3-2,2-4.4,2-6.8
	C46,5.5,40.5,0,33.7,0"/>
<path class="st0" d="M29.3,19.4c-0.9-0.6-2.1-0.3-2.7,0.6c-0.9,1.4-2.8,1.9-4.3,0.9c-0.4-0.2-0.7-0.5-0.9-0.9
	c-0.6-0.9-1.7-1.2-2.7-0.7s-1.2,1.7-0.7,2.7c0,0.1,0.1,0.1,0.1,0.2c2.2,3.2,6.5,4,9.7,1.9c0.8-0.5,1.4-1.2,1.9-2
	C30.4,21.1,30.2,19.9,29.3,19.4"/>
<path class="st0" d="M80,48.7H69.6L69,47.8c-1.2-2.1-2.8-4-4.7-5.5c-0.2-0.1-4.3-3.1-8.3-3.1H33.2c-1.1,0-2,0.8-2.1,1.9
	c0,0.4,0.1,0.7,0.2,1c4.6,9.2,9.7,10,15.4,10h2.4c-0.7,1.7-2.4,3.8-6.4,3.8h-2.3c-2.8-0.2-5.5-1.1-7.9-2.5
	c-2.9-2.3-6.6-5.3-10.1-8.1c-2.5-2-4.9-4-7-5.6C9,34.5,2.9,37.5,0.6,39.8c-0.8,0.8-0.8,2,0,2.8c0,0,0,0,0,0l28.5,28.5
	c3,3,11.6,4.4,13.4,4.6h0.3H80c1.1,0,2-0.9,2-2v-23C82,49.7,81.2,48.7,80,48.7C80.1,48.7,80,48.7,80,48.7z M32,68.2L5.2,41.5
	c1.7-0.8,4.5-1.3,7.8,1.3c2,1.7,4.5,3.6,6.9,5.6c3.6,2.9,7.2,5.9,10.2,8.2c3.1,2,6.7,3.2,10.4,3.4h2.3c8.3,0,10.8-6.4,11-9.8
	c0.1-1.1-0.8-2.1-1.9-2.1c0,0-0.1,0-0.1,0h-5c-4.1,0-7.1-0.4-10-4.8H56c2.2,0,5,1.7,5.8,2.3c1.5,1.2,2.8,2.7,3.7,4.4
	c0.3,0.4,0.6,0.9,0.9,1.3v20.4H42.8C39.2,71.2,33.5,69.8,32,68.2L32,68.2z M78,71.7h-7.5v-19h7.4L78,71.7z"/>
</svg>
