<?xml version="1.0" encoding="utf-8"?>
<!-- Generator: Adobe Illustrator 22.0.1, SVG Export Plug-In . SVG Version: 6.00 Build 0)  -->
<svg version="1.1" xmlns="http://www.w3.org/2000/svg" xmlns:xlink="http://www.w3.org/1999/xlink" x="0px" y="0px"
	 viewBox="0 0 753.1 400" style="enable-background:new 0 0 753.1 400;" xml:space="preserve">
<style type="text/css">
	.st0{display:none;}
	.st1{display:inline;}
	.st2{fill:#356FA1;}
	.st3{fill:#E54D4C;}
	.st4{fill:#336AA2;}
	.st5{fill:#FFFFFF;}
</style>
<g id="Solid" class="st0">
	<g class="st1">
		<g>
			<rect x="242.2" y="247.2" class="st2" width="13.8" height="45.4"/>
			<rect x="242.2" y="230.6" class="st2" width="13.8" height="11.7"/>
			<path class="st2" d="M301.1,251.3c-1.3-1.7-3-3-5.2-3.9c-2.2-0.9-4.9-1.4-8.2-1.4c-2.7,0-5.3,0.6-7.8,1.8
				c-1.9,0.9-3.5,2.2-4.8,3.8v-4.4h-13.2v45.4h13.8v-23.8c0-4.2,0.7-7.2,2-9c1.3-1.7,3.4-2.5,6.3-2.5c2.6,0,4.3,0.7,5.2,2.2
				c1,1.6,1.5,4.2,1.5,7.6v25.5h13.8v-27.7c0-2.7-0.2-5.3-0.7-7.6C303.3,255,302.4,253,301.1,251.3z"/>
			<path class="st2" d="M346.3,268.4c-1.4-1-2.9-1.8-4.7-2.4c-1.7-0.6-3.4-1.1-5.2-1.5c-1.7-0.4-3.4-0.8-5-1.1
				c-1.6-0.3-3-0.7-4.2-1.1c-1.1-0.4-2.1-0.9-2.8-1.5c-0.6-0.5-0.9-1.1-0.9-1.9c0-0.7,0.2-1.2,0.5-1.6c0.4-0.4,0.8-0.7,1.3-1
				c0.6-0.2,1.2-0.4,1.9-0.5c0.8-0.1,1.5-0.1,2.1-0.1c2,0,3.7,0.4,5.1,1.1c1.3,0.7,2,2,2.1,3.9l0.1,0.9h13.2l-0.1-1
				c-0.2-2.8-1-5.2-2.2-7.1c-1.2-1.9-2.8-3.4-4.6-4.5c-1.8-1.1-3.9-1.9-6.2-2.4c-4.5-0.9-9.5-0.9-14.1,0c-2.3,0.4-4.5,1.2-6.4,2.3
				c-1.9,1.1-3.5,2.7-4.7,4.6c-1.2,1.9-1.8,4.4-1.8,7.4c0,2.1,0.4,3.9,1.3,5.3c0.9,1.4,2,2.6,3.4,3.6c1.4,0.9,2.9,1.7,4.7,2.2
				c1.7,0.5,3.4,1,5.2,1.4c4.2,0.9,7.5,1.8,9.9,2.7c2,0.8,3,1.8,3,3.2c0,0.9-0.2,1.6-0.6,2.1c-0.4,0.6-1,1.1-1.6,1.4
				c-0.7,0.4-1.4,0.7-2.3,0.8c-1.9,0.4-3.8,0.4-5.6-0.1c-1-0.2-1.9-0.6-2.6-1.2c-0.7-0.5-1.3-1.2-1.8-2c-0.4-0.8-0.7-1.7-0.7-2.9
				v-0.9h-13.3l0,1c0.1,3.1,0.8,5.7,2.1,7.7c1.3,2,2.9,3.7,4.9,5c2,1.2,4.2,2.1,6.7,2.6c2.5,0.5,5,0.8,7.6,0.8c2.5,0,5-0.2,7.5-0.7
				c2.5-0.5,4.7-1.4,6.7-2.6c2-1.3,3.6-2.9,4.8-5c1.2-2.1,1.9-4.7,1.9-7.7c0-2.2-0.4-4-1.3-5.6C348.8,270.7,347.7,269.4,346.3,268.4
				z"/>
			<path class="st2" d="M375,234.1h-13.8v13.1h-7.3v9.9h7.3v24.8c0,2.3,0.4,4.3,1.2,5.8c0.8,1.5,1.9,2.7,3.3,3.5
				c1.4,0.8,2.9,1.3,4.7,1.6c1.7,0.3,3.5,0.4,5.4,0.4c1.2,0,2.4,0,3.7-0.1c1.3-0.1,2.4-0.2,3.5-0.3l0.8-0.1v-11.2l-1.1,0.2
				c-0.5,0.1-1.1,0.2-1.7,0.2c-0.6,0.1-1.2,0.1-1.9,0.1c-2.3,0-3.1-0.5-3.4-0.7c-0.3-0.3-0.7-1.1-0.7-3.4V257h8.8v-9.9H375V234.1z"
				/>
			<rect x="388" y="247.2" class="st2" width="13.8" height="45.4"/>
			<rect x="388" y="230.6" class="st2" width="13.8" height="11.7"/>
			<path class="st2" d="M426.4,234.1h-13.8v13.1h-7.3v9.9h7.3v24.8c0,2.3,0.4,4.3,1.2,5.8c0.8,1.5,1.9,2.7,3.3,3.5
				c1.4,0.8,2.9,1.3,4.7,1.6c1.7,0.3,3.5,0.4,5.4,0.4c1.2,0,2.4,0,3.7-0.1c1.3-0.1,2.4-0.2,3.5-0.3l0.8-0.1v-11.2l-1.1,0.2
				c-0.5,0.1-1.1,0.2-1.7,0.2c-0.6,0.1-1.2,0.1-1.9,0.1c-2.3,0-3.1-0.5-3.4-0.7c-0.3-0.3-0.7-1.1-0.7-3.4V257h8.8v-9.9h-8.8V234.1z"
				/>
			<path class="st2" d="M468,271c0,4.2-0.7,7.2-2,9c-1.3,1.7-3.4,2.5-6.3,2.5c-2.6,0-4.3-0.7-5.2-2.2c-1-1.6-1.5-4.2-1.5-7.6v-25.5
				h-13.8v27.7c0,2.8,0.2,5.3,0.7,7.6c0.5,2.3,1.4,4.4,2.7,6c1.3,1.7,3,3,5.2,3.9c2.2,0.9,4.9,1.3,8.2,1.3c2.6,0,5.3-0.6,7.8-1.8
				c1.9-0.9,3.5-2.1,4.8-3.8v4.4h13.2v-45.4H468V271z"/>
			<path class="st2" d="M506.1,234.1h-13.8v13.1H485v9.9h7.3v24.8c0,2.3,0.4,4.3,1.2,5.8c0.8,1.5,1.9,2.7,3.3,3.5
				c1.4,0.8,2.9,1.3,4.7,1.6c1.7,0.3,3.5,0.4,5.4,0.4c1.2,0,2.4,0,3.7-0.1c1.3-0.1,2.4-0.2,3.5-0.3l0.8-0.1v-11.2l-1.1,0.2
				c-0.5,0.1-1.1,0.2-1.7,0.2c-0.6,0.1-1.2,0.1-1.9,0.1c-2.3,0-3.1-0.5-3.4-0.7c-0.3-0.3-0.7-1.1-0.7-3.4V257h8.8v-9.9h-8.8V234.1z"
				/>
			<path class="st2" d="M561,262.9c-0.8-3.2-2.2-6.1-4-8.6c-1.8-2.5-4.2-4.6-7.1-6c-2.9-1.5-6.3-2.3-10.1-2.3
				c-3.4,0-6.6,0.6-9.4,1.8c-2.8,1.2-5.3,2.9-7.3,5.1c-2,2.1-3.6,4.7-4.8,7.6c-1.1,2.9-1.7,6.1-1.7,9.4c0,3.5,0.5,6.7,1.6,9.6
				c1.1,2.9,2.6,5.5,4.6,7.6c2,2.1,4.5,3.8,7.3,4.9c2.9,1.1,6.1,1.7,9.6,1.7c5.1,0,9.5-1.2,13.1-3.5c3.7-2.4,6.4-6.3,8.1-11.7
				l0.4-1.2H549l-0.2,0.7c-0.3,1.1-1.3,2.3-2.8,3.3c-1.6,1.1-3.5,1.6-5.7,1.6c-3.1,0-5.5-0.8-7.1-2.4c-1.5-1.4-2.3-3.7-2.6-6.8h31.3
				l0.1-0.9C562.1,269.4,561.8,266.1,561,262.9z M535.1,257.7c1.1-0.6,2.6-0.9,4.3-0.9c2.6,0,4.6,0.7,5.9,2.1c1.1,1.2,2,3.1,2.5,5.4
				h-17.3c0.1-0.5,0.2-1.1,0.4-1.7c0.3-0.9,0.8-1.9,1.4-2.7C533.1,259.1,534,258.3,535.1,257.7z"/>
		</g>
		<path class="st3" d="M261.3,165.5c0,6.7-5.4,12.1-12.1,12.1c-6.7,0-12.1-5.4-12.1-12.1c0-6.7,5.4-12.1,12.1-12.1
			C255.9,153.4,261.3,158.8,261.3,165.5"/>
		<g>
			<path class="st2" d="M263.6,180.9h13.9v6h0.2c2.6-4.4,7.2-7.2,12.5-7.2c5.5,0,10.3,1.8,12.7,7.1c3.4-4.6,7.7-7.1,13.6-7.1
				c13.9,0,15.4,10.5,15.4,18.8v26.1h-14.3v-25.7c0-4.7-2.3-7.5-6-7.5c-6.1,0-6.7,4.7-6.7,11.8v21.4h-14.3v-24.8
				c0-5.1-1.5-8.3-5.4-8.3c-5.1,0-7.3,2.9-7.3,11.9v21.3h-14.3V180.9z"/>
		</g>
		<rect x="242.2" y="180.9" class="st4" width="14.3" height="43.7"/>
		<path class="st2" d="M352.4,202.2c0,7.6,2.2,12.6,8.7,12.6c6.4,0,8.6-6.6,8.6-12.6c0-5.6-2.2-11.7-8.5-11.7
			C357.2,190.5,352.4,193.2,352.4,202.2 M338.6,180.9h13.6v5h0.2c2.8-4.1,7-6.3,12-6.3c13.7,0,19.5,11.8,19.5,24.1
			c0,11.4-6.1,22.1-18.4,22.1c-5.4,0-9.5-2-12.5-6h-0.2v19.3h-14.3V180.9z"/>
		<path class="st2" d="M406.5,216.9c6.8,0,9.1-3.9,8.7-12.9c-2,1.3-5.7,1.5-8.8,2.4c-3.2,0.8-5.9,2.1-5.9,5.6
			C400.6,215.5,403.3,216.9,406.5,216.9 M388,194.3c0.3-5.7,2.9-9.4,6.8-11.7c3.9-2.2,8.9-3,13.9-3c10.3,0,20.3,2.3,20.3,14.6v19.1
			c0,3.7,0,7.7,1.7,11.2h-14.4c-0.5-1.3-0.7-2.7-0.8-4.1c-3.7,3.9-9.2,5.4-14.4,5.4c-8.3,0-14.9-4.2-14.9-13.2
			c0-14.2,15.5-13.1,25.4-15.1c2.4-0.5,3.8-1.3,3.8-4c0-3.3-4-4.5-6.9-4.5c-4,0-6.5,1.8-7.1,5.5H388z"/>
		<path class="st2" d="M464,196.8c-0.1-3.7-3.4-6.3-7-6.3c-8,0-9.3,6.8-9.3,12.9c0,5.6,2.4,11.4,8.5,11.4c5,0,7.5-2.9,8.2-7.5h13.9
			c-1.3,11.7-10.3,18.4-21.9,18.4c-13.1,0-22.9-9-22.9-22.4c0-13.9,8.8-23.8,22.9-23.8c10.8,0,20.5,5.7,21.5,17.2H464z"/>
		<path class="st2" d="M508.8,190.1H500V210c0,3.5,2,4.2,5.1,4.2c1.2,0,2.4-0.2,3.7-0.2v10.5c-2.6,0.1-5.2,0.4-7.8,0.4
			c-12.2,0-15.3-3.5-15.3-15.4v-19.4h-7.2v-9.3h7.2v-13.2H500v13.2h8.8V190.1z"/>
		<path class="st2" d="M263.6,180.9h13.9v6h0.2c2.6-4.4,7.2-7.2,12.5-7.2c5.5,0,10.3,1.8,12.7,7.1c3.4-4.6,7.7-7.1,13.6-7.1
			c13.9,0,15.4,10.5,15.4,18.8v26.1h-14.3v-25.7c0-4.7-2.3-7.5-6-7.5c-6.1,0-6.7,4.7-6.7,11.8v21.4h-14.3v-24.8
			c0-5.1-1.5-8.3-5.4-8.3c-5.1,0-7.3,2.9-7.3,11.9v21.3h-14.3V180.9z"/>
		<rect x="242.2" y="180.9" class="st4" width="14.3" height="43.7"/>
		<path class="st2" d="M235.2,212c-20-6-34.5-24.6-34.5-46.5c0-26.8,21.7-48.6,48.6-48.6c26.8,0,48.6,21.7,48.6,48.6
			c0,2.7-0.2,5.4-0.7,8c2.6,0.7,4.7,1.8,6.3,3c1.4-0.9,2.8-1.7,4.3-2.3c0.4-2.8,0.6-5.7,0.6-8.7c0-32.7-26.5-59.2-59.2-59.2
			c-32.7,0-59.2,26.5-59.2,59.2c0,27.9,19.3,51.2,45.2,57.5V212z"/>
		<path class="st2" d="M235.2,185.3c-6.2-4.4-10.3-11.6-10.3-19.8c0-13.4,10.9-24.3,24.3-24.3c13.4,0,24.3,10.9,24.3,24.3
			c0,2.9-0.5,5.7-1.5,8.3h5.5h5.4c0.6-0.2,1.2-0.4,1.8-0.6c0.5-2.5,0.8-5.1,0.8-7.8c0-20.1-16.3-36.4-36.4-36.4
			c-20.1,0-36.4,16.3-36.4,36.4c0,15.1,9.2,28.1,22.4,33.6V185.3z"/>
	</g>
</g>
<g id="Solid_copy" class="st0">
	<g class="st1">
		<g>
			<rect x="242.2" y="247.2" width="13.8" height="45.4"/>
			<rect x="242.2" y="230.6" width="13.8" height="11.7"/>
			<path d="M301.1,251.3c-1.3-1.7-3-3-5.2-3.9c-2.2-0.9-4.9-1.4-8.2-1.4c-2.7,0-5.3,0.6-7.8,1.8c-1.9,0.9-3.5,2.2-4.8,3.8v-4.4
				h-13.2v45.4h13.8v-23.8c0-4.2,0.7-7.2,2-9c1.3-1.7,3.4-2.5,6.3-2.5c2.6,0,4.3,0.7,5.2,2.2c1,1.6,1.5,4.2,1.5,7.6v25.5h13.8v-27.7
				c0-2.7-0.2-5.3-0.7-7.6C303.3,255,302.4,253,301.1,251.3z"/>
			<path d="M346.3,268.4c-1.4-1-2.9-1.8-4.7-2.4c-1.7-0.6-3.4-1.1-5.2-1.5c-1.7-0.4-3.4-0.8-5-1.1c-1.6-0.3-3-0.7-4.2-1.1
				c-1.1-0.4-2.1-0.9-2.8-1.5c-0.6-0.5-0.9-1.1-0.9-1.9c0-0.7,0.2-1.2,0.5-1.6c0.4-0.4,0.8-0.7,1.3-1c0.6-0.2,1.2-0.4,1.9-0.5
				c0.8-0.1,1.5-0.1,2.1-0.1c2,0,3.7,0.4,5.1,1.1c1.3,0.7,2,2,2.1,3.9l0.1,0.9h13.2l-0.1-1c-0.2-2.8-1-5.2-2.2-7.1
				c-1.2-1.9-2.8-3.4-4.6-4.5c-1.8-1.1-3.9-1.9-6.2-2.4c-4.5-0.9-9.5-0.9-14.1,0c-2.3,0.4-4.5,1.2-6.4,2.3c-1.9,1.1-3.5,2.7-4.7,4.6
				c-1.2,1.9-1.8,4.4-1.8,7.4c0,2.1,0.4,3.9,1.3,5.3c0.9,1.4,2,2.6,3.4,3.6c1.4,0.9,2.9,1.7,4.7,2.2c1.7,0.5,3.4,1,5.2,1.4
				c4.2,0.9,7.5,1.8,9.9,2.7c2,0.8,3,1.8,3,3.2c0,0.9-0.2,1.6-0.6,2.1c-0.4,0.6-1,1.1-1.6,1.4c-0.7,0.4-1.4,0.7-2.3,0.8
				c-1.9,0.4-3.8,0.4-5.6-0.1c-1-0.2-1.9-0.6-2.6-1.2c-0.7-0.5-1.3-1.2-1.8-2c-0.4-0.8-0.7-1.7-0.7-2.9v-0.9h-13.3l0,1
				c0.1,3.1,0.8,5.7,2.1,7.7c1.3,2,2.9,3.7,4.9,5c2,1.2,4.2,2.1,6.7,2.6c2.5,0.5,5,0.8,7.6,0.8c2.5,0,5-0.2,7.5-0.7
				c2.5-0.5,4.7-1.4,6.7-2.6c2-1.3,3.6-2.9,4.8-5c1.2-2.1,1.9-4.7,1.9-7.7c0-2.2-0.4-4-1.3-5.6C348.8,270.7,347.7,269.4,346.3,268.4
				z"/>
			<path d="M375,234.1h-13.8v13.1h-7.3v9.9h7.3v24.8c0,2.3,0.4,4.3,1.2,5.8c0.8,1.5,1.9,2.7,3.3,3.5c1.4,0.8,2.9,1.3,4.7,1.6
				c1.7,0.3,3.5,0.4,5.4,0.4c1.2,0,2.4,0,3.7-0.1c1.3-0.1,2.4-0.2,3.5-0.3l0.8-0.1v-11.2l-1.1,0.2c-0.5,0.1-1.1,0.2-1.7,0.2
				c-0.6,0.1-1.2,0.1-1.9,0.1c-2.3,0-3.1-0.5-3.4-0.7c-0.3-0.3-0.7-1.1-0.7-3.4V257h8.8v-9.9H375V234.1z"/>
			<rect x="388" y="247.2" width="13.8" height="45.4"/>
			<rect x="388" y="230.6" width="13.8" height="11.7"/>
			<path d="M426.4,234.1h-13.8v13.1h-7.3v9.9h7.3v24.8c0,2.3,0.4,4.3,1.2,5.8c0.8,1.5,1.9,2.7,3.3,3.5c1.4,0.8,2.9,1.3,4.7,1.6
				c1.7,0.3,3.5,0.4,5.4,0.4c1.2,0,2.4,0,3.7-0.1c1.3-0.1,2.4-0.2,3.5-0.3l0.8-0.1v-11.2l-1.1,0.2c-0.5,0.1-1.1,0.2-1.7,0.2
				c-0.6,0.1-1.2,0.1-1.9,0.1c-2.3,0-3.1-0.5-3.4-0.7c-0.3-0.3-0.7-1.1-0.7-3.4V257h8.8v-9.9h-8.8V234.1z"/>
			<path d="M468,271c0,4.2-0.7,7.2-2,9c-1.3,1.7-3.4,2.5-6.3,2.5c-2.6,0-4.3-0.7-5.2-2.2c-1-1.6-1.5-4.2-1.5-7.6v-25.5h-13.8v27.7
				c0,2.8,0.2,5.3,0.7,7.6c0.5,2.3,1.4,4.4,2.7,6c1.3,1.7,3,3,5.2,3.9c2.2,0.9,4.9,1.3,8.2,1.3c2.6,0,5.3-0.6,7.8-1.8
				c1.9-0.9,3.5-2.1,4.8-3.8v4.4h13.2v-45.4H468V271z"/>
			<path d="M506.1,234.1h-13.8v13.1H485v9.9h7.3v24.8c0,2.3,0.4,4.3,1.2,5.8c0.8,1.5,1.9,2.7,3.3,3.5c1.4,0.8,2.9,1.3,4.7,1.6
				c1.7,0.3,3.5,0.4,5.4,0.4c1.2,0,2.4,0,3.7-0.1c1.3-0.1,2.4-0.2,3.5-0.3l0.8-0.1v-11.2l-1.1,0.2c-0.5,0.1-1.1,0.2-1.7,0.2
				c-0.6,0.1-1.2,0.1-1.9,0.1c-2.3,0-3.1-0.5-3.4-0.7c-0.3-0.3-0.7-1.1-0.7-3.4V257h8.8v-9.9h-8.8V234.1z"/>
			<path d="M561,262.9c-0.8-3.2-2.2-6.1-4-8.6c-1.8-2.5-4.2-4.6-7.1-6c-2.9-1.5-6.3-2.3-10.1-2.3c-3.4,0-6.6,0.6-9.4,1.8
				c-2.8,1.2-5.3,2.9-7.3,5.1c-2,2.1-3.6,4.7-4.8,7.6c-1.1,2.9-1.7,6.1-1.7,9.4c0,3.5,0.5,6.7,1.6,9.6c1.1,2.9,2.6,5.5,4.6,7.6
				c2,2.1,4.5,3.8,7.3,4.9c2.9,1.1,6.1,1.7,9.6,1.7c5.1,0,9.5-1.2,13.1-3.5c3.7-2.4,6.4-6.3,8.1-11.7l0.4-1.2H549l-0.2,0.7
				c-0.3,1.1-1.3,2.3-2.8,3.3c-1.6,1.1-3.5,1.6-5.7,1.6c-3.1,0-5.5-0.8-7.1-2.4c-1.5-1.4-2.3-3.7-2.6-6.8h31.3l0.1-0.9
				C562.1,269.4,561.8,266.1,561,262.9z M535.1,257.7c1.1-0.6,2.6-0.9,4.3-0.9c2.6,0,4.6,0.7,5.9,2.1c1.1,1.2,2,3.1,2.5,5.4h-17.3
				c0.1-0.5,0.2-1.1,0.4-1.7c0.3-0.9,0.8-1.9,1.4-2.7C533.1,259.1,534,258.3,535.1,257.7z"/>
		</g>
		<path d="M261.3,165.5c0,6.7-5.4,12.1-12.1,12.1c-6.7,0-12.1-5.4-12.1-12.1c0-6.7,5.4-12.1,12.1-12.1
			C255.9,153.4,261.3,158.8,261.3,165.5"/>
		<g>
			<path d="M263.6,180.9h13.9v6h0.2c2.6-4.4,7.2-7.2,12.5-7.2c5.5,0,10.3,1.8,12.7,7.1c3.4-4.6,7.7-7.1,13.6-7.1
				c13.9,0,15.4,10.5,15.4,18.8v26.1h-14.3v-25.7c0-4.7-2.3-7.5-6-7.5c-6.1,0-6.7,4.7-6.7,11.8v21.4h-14.3v-24.8
				c0-5.1-1.5-8.3-5.4-8.3c-5.1,0-7.3,2.9-7.3,11.9v21.3h-14.3V180.9z"/>
		</g>
		<rect x="242.2" y="180.9" width="14.3" height="43.7"/>
		<path d="M352.4,202.2c0,7.6,2.2,12.6,8.7,12.6c6.4,0,8.6-6.6,8.6-12.6c0-5.6-2.2-11.7-8.5-11.7
			C357.2,190.5,352.4,193.2,352.4,202.2 M338.6,180.9h13.6v5h0.2c2.8-4.1,7-6.3,12-6.3c13.7,0,19.5,11.8,19.5,24.1
			c0,11.4-6.1,22.1-18.4,22.1c-5.4,0-9.5-2-12.5-6h-0.2v19.3h-14.3V180.9z"/>
		<path d="M406.5,216.9c6.8,0,9.1-3.9,8.7-12.9c-2,1.3-5.7,1.5-8.8,2.4c-3.2,0.8-5.9,2.1-5.9,5.6
			C400.6,215.5,403.3,216.9,406.5,216.9 M388,194.3c0.3-5.7,2.9-9.4,6.8-11.7c3.9-2.2,8.9-3,13.9-3c10.3,0,20.3,2.3,20.3,14.6v19.1
			c0,3.7,0,7.7,1.7,11.2h-14.4c-0.5-1.3-0.7-2.7-0.8-4.1c-3.7,3.9-9.2,5.4-14.4,5.4c-8.3,0-14.9-4.2-14.9-13.2
			c0-14.2,15.5-13.1,25.4-15.1c2.4-0.5,3.8-1.3,3.8-4c0-3.3-4-4.5-6.9-4.5c-4,0-6.5,1.8-7.1,5.5H388z"/>
		<path d="M464,196.8c-0.1-3.7-3.4-6.3-7-6.3c-8,0-9.3,6.8-9.3,12.9c0,5.6,2.4,11.4,8.5,11.4c5,0,7.5-2.9,8.2-7.5h13.9
			c-1.3,11.7-10.3,18.4-21.9,18.4c-13.1,0-22.9-9-22.9-22.4c0-13.9,8.8-23.8,22.9-23.8c10.8,0,20.5,5.7,21.5,17.2H464z"/>
		<path d="M508.8,190.1H500V210c0,3.5,2,4.2,5.1,4.2c1.2,0,2.4-0.2,3.7-0.2v10.5c-2.6,0.1-5.2,0.4-7.8,0.4
			c-12.2,0-15.3-3.5-15.3-15.4v-19.4h-7.2v-9.3h7.2v-13.2H500v13.2h8.8V190.1z"/>
		<path d="M263.6,180.9h13.9v6h0.2c2.6-4.4,7.2-7.2,12.5-7.2c5.5,0,10.3,1.8,12.7,7.1c3.4-4.6,7.7-7.1,13.6-7.1
			c13.9,0,15.4,10.5,15.4,18.8v26.1h-14.3v-25.7c0-4.7-2.3-7.5-6-7.5c-6.1,0-6.7,4.7-6.7,11.8v21.4h-14.3v-24.8
			c0-5.1-1.5-8.3-5.4-8.3c-5.1,0-7.3,2.9-7.3,11.9v21.3h-14.3V180.9z"/>
		<rect x="242.2" y="180.9" width="14.3" height="43.7"/>
		<path d="M235.2,212c-20-6-34.5-24.6-34.5-46.5c0-26.8,21.7-48.6,48.6-48.6c26.8,0,48.6,21.7,48.6,48.6c0,2.7-0.2,5.4-0.7,8
			c2.6,0.7,4.7,1.8,6.3,3c1.4-0.9,2.8-1.7,4.3-2.3c0.4-2.8,0.6-5.7,0.6-8.7c0-32.7-26.5-59.2-59.2-59.2c-32.7,0-59.2,26.5-59.2,59.2
			c0,27.9,19.3,51.2,45.2,57.5V212z"/>
		<path d="M235.2,185.3c-6.2-4.4-10.3-11.6-10.3-19.8c0-13.4,10.9-24.3,24.3-24.3c13.4,0,24.3,10.9,24.3,24.3c0,2.9-0.5,5.7-1.5,8.3
			h5.5h5.4c0.6-0.2,1.2-0.4,1.8-0.6c0.5-2.5,0.8-5.1,0.8-7.8c0-20.1-16.3-36.4-36.4-36.4c-20.1,0-36.4,16.3-36.4,36.4
			c0,15.1,9.2,28.1,22.4,33.6V185.3z"/>
	</g>
</g>
<g id="Reverse">
	<g>
		<g>
			<rect x="242.2" y="247.2" class="st5" width="13.8" height="45.4"/>
			<rect x="242.2" y="230.6" class="st5" width="13.8" height="11.7"/>
			<path class="st5" d="M301.1,251.3c-1.3-1.7-3-3-5.2-3.9c-2.2-0.9-4.9-1.4-8.2-1.4c-2.7,0-5.3,0.6-7.8,1.8
				c-1.9,0.9-3.5,2.2-4.8,3.8v-4.4h-13.2v45.4h13.8v-23.8c0-4.2,0.7-7.2,2-9c1.3-1.7,3.4-2.5,6.3-2.5c2.6,0,4.3,0.7,5.2,2.2
				c1,1.6,1.5,4.2,1.5,7.6v25.5h13.8v-27.7c0-2.7-0.2-5.3-0.7-7.6C303.3,255,302.4,253,301.1,251.3z"/>
			<path class="st5" d="M346.3,268.4c-1.4-1-2.9-1.8-4.7-2.4c-1.7-0.6-3.4-1.1-5.2-1.5c-1.7-0.4-3.4-0.8-5-1.1
				c-1.6-0.3-3-0.7-4.2-1.1c-1.1-0.4-2.1-0.9-2.8-1.5c-0.6-0.5-0.9-1.1-0.9-1.9c0-0.7,0.2-1.2,0.5-1.6c0.4-0.4,0.8-0.7,1.3-1
				c0.6-0.2,1.2-0.4,1.9-0.5c0.8-0.1,1.5-0.1,2.1-0.1c2,0,3.7,0.4,5.1,1.1c1.3,0.7,2,2,2.1,3.9l0.1,0.9h13.2l-0.1-1
				c-0.2-2.8-1-5.2-2.2-7.1c-1.2-1.9-2.8-3.4-4.6-4.5c-1.8-1.1-3.9-1.9-6.2-2.4c-4.5-0.9-9.5-0.9-14.1,0c-2.3,0.4-4.5,1.2-6.4,2.3
				c-1.9,1.1-3.5,2.7-4.7,4.6c-1.2,1.9-1.8,4.4-1.8,7.4c0,2.1,0.4,3.9,1.3,5.3c0.9,1.4,2,2.6,3.4,3.6c1.4,0.9,2.9,1.7,4.7,2.2
				c1.7,0.5,3.4,1,5.2,1.4c4.2,0.9,7.5,1.8,9.9,2.7c2,0.8,3,1.8,3,3.2c0,0.9-0.2,1.6-0.6,2.1c-0.4,0.6-1,1.1-1.6,1.4
				c-0.7,0.4-1.4,0.7-2.3,0.8c-1.9,0.4-3.8,0.4-5.6-0.1c-1-0.2-1.9-0.6-2.6-1.2c-0.7-0.5-1.3-1.2-1.8-2c-0.4-0.8-0.7-1.7-0.7-2.9
				v-0.9h-13.3l0,1c0.1,3.1,0.8,5.7,2.1,7.7c1.3,2,2.9,3.7,4.9,5c2,1.2,4.2,2.1,6.7,2.6c2.5,0.5,5,0.8,7.6,0.8c2.5,0,5-0.2,7.5-0.7
				c2.5-0.5,4.7-1.4,6.7-2.6c2-1.3,3.6-2.9,4.8-5c1.2-2.1,1.9-4.7,1.9-7.7c0-2.2-0.4-4-1.3-5.6C348.8,270.7,347.7,269.4,346.3,268.4
				z"/>
			<path class="st5" d="M375,234.1h-13.8v13.1h-7.3v9.9h7.3v24.8c0,2.3,0.4,4.3,1.2,5.8c0.8,1.5,1.9,2.7,3.3,3.5
				c1.4,0.8,2.9,1.3,4.7,1.6c1.7,0.3,3.5,0.4,5.4,0.4c1.2,0,2.4,0,3.7-0.1c1.3-0.1,2.4-0.2,3.5-0.3l0.8-0.1v-11.2l-1.1,0.2
				c-0.5,0.1-1.1,0.2-1.7,0.2c-0.6,0.1-1.2,0.1-1.9,0.1c-2.3,0-3.1-0.5-3.4-0.7c-0.3-0.3-0.7-1.1-0.7-3.4V257h8.8v-9.9H375V234.1z"
				/>
			<rect x="388" y="247.2" class="st5" width="13.8" height="45.4"/>
			<rect x="388" y="230.6" class="st5" width="13.8" height="11.7"/>
			<path class="st5" d="M426.4,234.1h-13.8v13.1h-7.3v9.9h7.3v24.8c0,2.3,0.4,4.3,1.2,5.8c0.8,1.5,1.9,2.7,3.3,3.5
				c1.4,0.8,2.9,1.3,4.7,1.6c1.7,0.3,3.5,0.4,5.4,0.4c1.2,0,2.4,0,3.7-0.1c1.3-0.1,2.4-0.2,3.5-0.3l0.8-0.1v-11.2l-1.1,0.2
				c-0.5,0.1-1.1,0.2-1.7,0.2c-0.6,0.1-1.2,0.1-1.9,0.1c-2.3,0-3.1-0.5-3.4-0.7c-0.3-0.3-0.7-1.1-0.7-3.4V257h8.8v-9.9h-8.8V234.1z"
				/>
			<path class="st5" d="M468,271c0,4.2-0.7,7.2-2,9c-1.3,1.7-3.4,2.5-6.3,2.5c-2.6,0-4.3-0.7-5.2-2.2c-1-1.6-1.5-4.2-1.5-7.6v-25.5
				h-13.8v27.7c0,2.8,0.2,5.3,0.7,7.6c0.5,2.3,1.4,4.4,2.7,6c1.3,1.7,3,3,5.2,3.9c2.2,0.9,4.9,1.3,8.2,1.3c2.6,0,5.3-0.6,7.8-1.8
				c1.9-0.9,3.5-2.1,4.8-3.8v4.4h13.2v-45.4H468V271z"/>
			<path class="st5" d="M506.1,234.1h-13.8v13.1H485v9.9h7.3v24.8c0,2.3,0.4,4.3,1.2,5.8c0.8,1.5,1.9,2.7,3.3,3.5
				c1.4,0.8,2.9,1.3,4.7,1.6c1.7,0.3,3.5,0.4,5.4,0.4c1.2,0,2.4,0,3.7-0.1c1.3-0.1,2.4-0.2,3.5-0.3l0.8-0.1v-11.2l-1.1,0.2
				c-0.5,0.1-1.1,0.2-1.7,0.2c-0.6,0.1-1.2,0.1-1.9,0.1c-2.3,0-3.1-0.5-3.4-0.7c-0.3-0.3-0.7-1.1-0.7-3.4V257h8.8v-9.9h-8.8V234.1z"
				/>
			<path class="st5" d="M561,262.9c-0.8-3.2-2.2-6.1-4-8.6c-1.8-2.5-4.2-4.6-7.1-6c-2.9-1.5-6.3-2.3-10.1-2.3
				c-3.4,0-6.6,0.6-9.4,1.8c-2.8,1.2-5.3,2.9-7.3,5.1c-2,2.1-3.6,4.7-4.8,7.6c-1.1,2.9-1.7,6.1-1.7,9.4c0,3.5,0.5,6.7,1.6,9.6
				c1.1,2.9,2.6,5.5,4.6,7.6c2,2.1,4.5,3.8,7.3,4.9c2.9,1.1,6.1,1.7,9.6,1.7c5.1,0,9.5-1.2,13.1-3.5c3.7-2.4,6.4-6.3,8.1-11.7
				l0.4-1.2H549l-0.2,0.7c-0.3,1.1-1.3,2.3-2.8,3.3c-1.6,1.1-3.5,1.6-5.7,1.6c-3.1,0-5.5-0.8-7.1-2.4c-1.5-1.4-2.3-3.7-2.6-6.8h31.3
				l0.1-0.9C562.1,269.4,561.8,266.1,561,262.9z M535.1,257.7c1.1-0.6,2.6-0.9,4.3-0.9c2.6,0,4.6,0.7,5.9,2.1c1.1,1.2,2,3.1,2.5,5.4
				h-17.3c0.1-0.5,0.2-1.1,0.4-1.7c0.3-0.9,0.8-1.9,1.4-2.7C533.1,259.1,534,258.3,535.1,257.7z"/>
		</g>
		<path class="st5" d="M261.3,165.5c0,6.7-5.4,12.1-12.1,12.1c-6.7,0-12.1-5.4-12.1-12.1c0-6.7,5.4-12.1,12.1-12.1
			C255.9,153.4,261.3,158.8,261.3,165.5"/>
		<g>
			<path class="st5" d="M263.6,180.9h13.9v6h0.2c2.6-4.4,7.2-7.2,12.5-7.2c5.5,0,10.3,1.8,12.7,7.1c3.4-4.6,7.7-7.1,13.6-7.1
				c13.9,0,15.4,10.5,15.4,18.8v26.1h-14.3v-25.7c0-4.7-2.3-7.5-6-7.5c-6.1,0-6.7,4.7-6.7,11.8v21.4h-14.3v-24.8
				c0-5.1-1.5-8.3-5.4-8.3c-5.1,0-7.3,2.9-7.3,11.9v21.3h-14.3V180.9z"/>
		</g>
		<rect x="242.2" y="180.9" class="st5" width="14.3" height="43.7"/>
		<path class="st5" d="M352.4,202.2c0,7.6,2.2,12.6,8.7,12.6c6.4,0,8.6-6.6,8.6-12.6c0-5.6-2.2-11.7-8.5-11.7
			C357.2,190.5,352.4,193.2,352.4,202.2 M338.6,180.9h13.6v5h0.2c2.8-4.1,7-6.3,12-6.3c13.7,0,19.5,11.8,19.5,24.1
			c0,11.4-6.1,22.1-18.4,22.1c-5.4,0-9.5-2-12.5-6h-0.2v19.3h-14.3V180.9z"/>
		<path class="st5" d="M406.5,216.9c6.8,0,9.1-3.9,8.7-12.9c-2,1.3-5.7,1.5-8.8,2.4c-3.2,0.8-5.9,2.1-5.9,5.6
			C400.6,215.5,403.3,216.9,406.5,216.9 M388,194.3c0.3-5.7,2.9-9.4,6.8-11.7c3.9-2.2,8.9-3,13.9-3c10.3,0,20.3,2.3,20.3,14.6v19.1
			c0,3.7,0,7.7,1.7,11.2h-14.4c-0.5-1.3-0.7-2.7-0.8-4.1c-3.7,3.9-9.2,5.4-14.4,5.4c-8.3,0-14.9-4.2-14.9-13.2
			c0-14.2,15.5-13.1,25.4-15.1c2.4-0.5,3.8-1.3,3.8-4c0-3.3-4-4.5-6.9-4.5c-4,0-6.5,1.8-7.1,5.5H388z"/>
		<path class="st5" d="M464,196.8c-0.1-3.7-3.4-6.3-7-6.3c-8,0-9.3,6.8-9.3,12.9c0,5.6,2.4,11.4,8.5,11.4c5,0,7.5-2.9,8.2-7.5h13.9
			c-1.3,11.7-10.3,18.4-21.9,18.4c-13.1,0-22.9-9-22.9-22.4c0-13.9,8.8-23.8,22.9-23.8c10.8,0,20.5,5.7,21.5,17.2H464z"/>
		<path class="st5" d="M508.8,190.1H500V210c0,3.5,2,4.2,5.1,4.2c1.2,0,2.4-0.2,3.7-0.2v10.5c-2.6,0.1-5.2,0.4-7.8,0.4
			c-12.2,0-15.3-3.5-15.3-15.4v-19.4h-7.2v-9.3h7.2v-13.2H500v13.2h8.8V190.1z"/>
		<path class="st5" d="M263.6,180.9h13.9v6h0.2c2.6-4.4,7.2-7.2,12.5-7.2c5.5,0,10.3,1.8,12.7,7.1c3.4-4.6,7.7-7.1,13.6-7.1
			c13.9,0,15.4,10.5,15.4,18.8v26.1h-14.3v-25.7c0-4.7-2.3-7.5-6-7.5c-6.1,0-6.7,4.7-6.7,11.8v21.4h-14.3v-24.8
			c0-5.1-1.5-8.3-5.4-8.3c-5.1,0-7.3,2.9-7.3,11.9v21.3h-14.3V180.9z"/>
		<rect x="242.2" y="180.9" class="st5" width="14.3" height="43.7"/>
		<path class="st5" d="M235.2,212c-20-6-34.5-24.6-34.5-46.5c0-26.8,21.7-48.6,48.6-48.6c26.8,0,48.6,21.7,48.6,48.6
			c0,2.7-0.2,5.4-0.7,8c2.6,0.7,4.7,1.8,6.3,3c1.4-0.9,2.8-1.7,4.3-2.3c0.4-2.8,0.6-5.7,0.6-8.7c0-32.7-26.5-59.2-59.2-59.2
			c-32.7,0-59.2,26.5-59.2,59.2c0,27.9,19.3,51.2,45.2,57.5V212z"/>
		<path class="st5" d="M235.2,185.3c-6.2-4.4-10.3-11.6-10.3-19.8c0-13.4,10.9-24.3,24.3-24.3c13.4,0,24.3,10.9,24.3,24.3
			c0,2.9-0.5,5.7-1.5,8.3h5.5h5.4c0.6-0.2,1.2-0.4,1.8-0.6c0.5-2.5,0.8-5.1,0.8-7.8c0-20.1-16.3-36.4-36.4-36.4
			c-20.1,0-36.4,16.3-36.4,36.4c0,15.1,9.2,28.1,22.4,33.6V185.3z"/>
	</g>
</g>
</svg>
