<?xml version="1.0" encoding="utf-8"?>
<!-- Generator: Adobe Illustrator 22.0.1, SVG Export Plug-In . SVG Version: 6.00 Build 0)  -->
<svg version="1.1" xmlns="http://www.w3.org/2000/svg" xmlns:xlink="http://www.w3.org/1999/xlink" x="0px" y="0px"
	 viewBox="0 0 753.1 400" style="enable-background:new 0 0 753.1 400;" xml:space="preserve">
<style type="text/css">
	.st0{display:none;}
	.st1{display:inline;}
	.st2{fill:#FFFFFF;}
</style>
<g id="Solid" class="st0">
	<g class="st1">
		<path d="M171.7,160.9l0.4-0.7l-9.5-25.7c-0.5-1.5-1-1.5-1.5,0l-8.8,25.7l0.3,0.7H171.7z M161.3,122.9c1.2-3.2,1.6-3.7,2.2-3.7
			c0.6,0,1,0.4,2.2,3.4c1.5,3.6,17.2,42.9,23.3,57.4c3.6,8.4,6.5,10,8.6,10.6c1.5,0.5,3,0.6,4,0.6c0.6,0,1,0.1,1,0.6
			c0,0.6-0.9,0.7-2,0.7c-1.5,0-8.8,0-15.7-0.2c-1.9-0.1-3-0.1-3-0.7l0.7-0.7c0.6-0.2,1.2-1,0.6-2.5l-9.3-23.4l-0.9-0.6h-21.5l-1,0.7
			l-6,16.8c-0.9,2.4-1.4,4.7-1.4,6.4c0,1.9,2.1,2.8,3.8,2.8h1c0.7,0,1,0.2,1,0.6c0,0.6-0.6,0.7-1.5,0.7c-2.4,0-6.7-0.3-7.8-0.3
			c-1.1,0-6.6,0.3-11.3,0.3c-1.3,0-1.9-0.2-1.9-0.7l0.9-0.6c0.7,0,2.1-0.1,2.9-0.2c4.6-0.6,6.6-4.2,8.4-8.9L161.3,122.9z"/>
		<path d="M212.2,169.9c0,11.5,0.2,16.2,1.7,17.5c1.4,1.3,4.6,1.9,11.3,1.9c4.4,0,8.2-0.1,10.2-2.4c1.1-1.2,1.7-2.9,2-4.4
			c0.1-0.5,0.4-1,0.9-1c0.4,0,0.6,0.3,0.6,1.2c0,0.8-0.6,5.5-1.2,7.8c-0.6,1.9-0.9,2.1-5.4,2.1c-6.1,0-10.8-0.1-14.7-0.2
			c-3.8-0.1-6.7-0.2-9.2-0.2c-0.4,0-1.8,0-3.5,0.1c-1.7,0.1-3.6,0.2-4.9,0.2c-0.9,0-1.3-0.2-1.3-0.6l0.7-0.7c0.8,0,1.8-0.2,2.6-0.3
			c1.6-0.4,1.8-1.9,2.2-4.1c0.5-3.2,0.5-9.3,0.5-16.9V156c0-12.1,0-14.3-0.2-16.8c-0.2-2.6-0.7-3.9-3.5-4.3
			c-0.7-0.1-2.1-0.2-2.9-0.2l-0.7-0.6c0-0.5,0.4-0.6,1.3-0.6c3.8,0,9.1,0.2,9.6,0.2c0.4,0,6.7-0.2,9.3-0.2c0.9,0,1.3,0.2,1.3,0.6
			l-0.7,0.6c-0.6,0-1.8,0.1-2.8,0.2c-2.5,0.5-3,1.6-3.2,4.4c-0.1,2.5-0.1,4.7-0.1,16.8V169.9z"/>
		<path d="M248.7,156c0-12.1,0-14.3-0.2-16.8c-0.2-2.6-0.7-3.9-3.5-4.3c-0.7-0.1-2.1-0.2-2.9-0.2l-0.7-0.6c0-0.5,0.4-0.6,1.4-0.6
			c3.8,0,9.3,0.2,9.8,0.2c0.6,0,18.3,0.1,20.2,0c1.6-0.1,3.2-0.4,3.9-0.5l1.2-0.4l0.4,0.7c0,0.6-0.5,1.5-0.7,3.7
			c-0.1,0.7-0.3,4.2-0.5,5.2l-0.8,0.8c-0.5,0-0.7-0.3-0.7-1c0-0.6-0.1-1.8-0.5-2.8c-0.6-1.2-1.5-1.8-6.1-2.4
			c-1.5-0.2-11.3-0.3-12.2-0.3c-0.4,0-0.5,0.3-0.5,0.8v21.2c0,0.6,0,0.8,0.5,0.8c1.1,0,12.2,0,14.1-0.2c2-0.2,3.3-0.3,4.1-1.1
			c0.6-0.6,1-1,1.2-1l0.5,0.6c0,0.4-0.5,1.7-0.7,4.3c-0.2,1.5-0.4,4.4-0.4,5c0,0.7-0.2,1.5-0.8,1.5l-0.6-0.7c0-0.7,0-1.5-0.4-2.5
			c-0.3-1.1-1.1-2-4.3-2.4c-2.3-0.3-11.4-0.3-12.8-0.3l-0.6,0.6v6.5c0,2.6-0.1,11.7,0,13.3c0.2,5.2,1.7,6.2,10.1,6.2
			c2.2,0,6.3,0,8.5-0.8c2.2-0.9,3.4-2.3,3.9-5.4c0.2-0.9,0.4-1.2,0.9-1.2s0.6,0.6,0.6,1.2c0,0.6-0.7,5.9-1.2,7.5c-0.6,2-1.4,2-4.7,2
			c-6.4,0-11.3-0.2-14.7-0.3c-3.6-0.2-5.8-0.2-7-0.2c-0.2,0-1.8,0-3.6,0.1c-1.6,0.1-3.6,0.2-4.9,0.2c-0.9,0-1.4-0.2-1.4-0.6l0.7-0.7
			c0.8,0,1.8-0.2,2.6-0.3c1.6-0.3,1.8-1.9,2.2-4.1c0.5-3.2,0.5-9.3,0.5-16.9V156z"/>
		<path d="M308.3,162.3l-13.5-20.9c-1.9-3-3.5-5.2-6.4-6.1c-1.3-0.3-3.1-0.6-3.6-0.6L284,134c0-0.3,0.4-0.5,1.5-0.5
			c2.4,0,9.2,0.2,9.9,0.2c0.8,0,5.4-0.2,8.3-0.2c1.2,0,1.5,0.2,1.5,0.5l-0.8,0.7c-0.6,0-1.6,0-2.3,0.2c-0.8,0.1-1.1,0.6-1.1,1.2
			c0,0.7,0.4,1.7,0.9,2.5c3.6,6.1,6.7,11.8,11.2,18.4c2.5-3.4,11.4-16.4,12.2-18.1c0.7-1.1,0.9-1.8,0.9-2.8c0-0.5-0.6-1-1.4-1.2
			c-0.9-0.2-1.8-0.2-2.3-0.2l-0.8-0.7c0-0.3,0.4-0.5,1.4-0.5c3.2,0,6.7,0.2,7.5,0.2c0.8,0,4.2-0.2,7.1-0.2c1,0,1.4,0.2,1.4,0.5
			c0,0.3-0.3,0.7-0.9,0.7c-0.7,0-1.9,0.1-2.9,0.4c-2.4,0.7-3.9,2.8-6.3,6.1l-13.6,18.9c1.6,2.4,16.1,25,17.9,27.1
			c1.3,1.6,2.3,2.8,4.8,3.4c1.2,0.3,2.4,0.5,2.9,0.5l0.7,0.7c0,0.3-0.4,0.6-1.2,0.6c-5.2,0-9.2,0-13.9-0.2c-2.2-0.1-2.6-0.3-2.6-0.7
			l0.5-0.6c0.5-0.1,1.3-0.9,0.5-2.2c-4.6-7.6-9.2-15.1-14.3-23l-13,20.4c-0.8,1.3-1.1,2.7-1.1,3.5c0,0.7,0.6,1.1,1.4,1.3l1.5,0.2
			l0.8,0.7c0,0.4-0.5,0.6-1.1,0.6c-2,0-7.6-0.3-8.4-0.3c-0.7,0-4.9,0.3-7.7,0.3c-0.7,0-0.8-0.3-0.8-0.6l0.7-0.7
			c0.7,0,1.9-0.2,3.2-0.5c2.5-0.6,4.2-2.1,6.9-6L308.3,162.3z"/>
		<path d="M370.6,191.1c-1.4-0.6-1.5-1-1.5-3.6c0-4.7,0.4-8.6,0.5-10.1c0.1-1.1,0.3-1.5,0.8-1.5c0.6,0,0.7,0.3,0.7,1
			c0,0.9,0,2.2,0.3,3.5c1.5,7,8.1,9.7,14.8,9.7c9.6,0,14.3-6.6,14.3-12.7c0-6.6-2.9-10.4-11.5-17.2l-4.5-3.5
			c-10.6-8.3-13-14.2-13-20.7c0-10.2,8-17.1,20.7-17.1c3.9,0,6.8,0.4,9.3,1c1.9,0.4,2.7,0.5,3.5,0.5c0.8,0,1,0.2,1,0.7
			c0,0.5-0.4,3.6-0.4,10.1c0,1.5-0.2,2.2-0.7,2.2c-0.6,0-0.7-0.5-0.8-1.2c-0.1-1.1-0.7-3.7-1.3-4.7c-0.6-1.1-3.3-5.1-12.5-5.1
			c-6.9,0-12.3,4.1-12.3,11c0,5.4,2.6,8.8,12.2,16l2.8,2.1c11.8,8.8,14.6,14.7,14.6,22.3c0,3.9-1.6,11.1-8.5,15.8
			c-4.3,2.9-9.7,4-15.1,4C379.3,193.7,374.7,193,370.6,191.1"/>
		<path d="M438,169.7c0,7.5,0,13.7,0.4,16.9c0.3,2.3,0.7,3.7,3.3,4.1c1.2,0.2,3.1,0.3,3.8,0.3c0.6,0,0.7,0.4,0.7,0.7
			c0,0.3-0.4,0.6-1.4,0.6c-4.6,0-10-0.3-10.5-0.3c-0.4,0-6.3,0.3-8.8,0.3c-1,0-1.4-0.2-1.4-0.6l0.7-0.6c0.8,0,1.7-0.2,2.5-0.4
			c1.7-0.3,2.2-1.9,2.5-4.2c0.4-3.2,0.4-9.3,0.4-16.9V137l-12.2,0.2c-5.3,0.1-7.3,0.7-8.6,2.5c-1,1.4-1.1,1.9-1.3,2.5
			c-0.2,0.7-0.5,0.7-0.9,0.7l-0.6-0.6c0-0.8,1.7-7.8,1.8-8.4l0.9-1.5c0.6,0,1.4,0.7,3.7,0.9c2.4,0.3,5.7,0.4,6.6,0.4h31.9
			c2.8,0,4.7-0.2,6.1-0.4c1.3-0.2,2-0.3,2.4-0.3l0.4,0.9c0,2.4-0.3,8-0.3,8.9c0,0.7-0.4,1-0.8,1c-0.4,0-0.6-0.3-0.7-1.4l-0.1-0.8
			c-0.3-2.4-2.1-4.1-10.2-4.3L438,137V169.7z"/>
		<path d="M471,156c0-12.1,0-14.3-0.2-16.8c-0.2-2.6-0.7-3.9-3.5-4.3c-0.7-0.1-2.1-0.2-2.9-0.2l-0.7-0.6c0-0.5,0.4-0.6,1.3-0.6
			c3.9,0,9.3,0.2,9.8,0.2c0.6,0,18.3,0.1,20.2,0c1.6-0.1,3.2-0.4,3.9-0.5l1.1-0.4l0.4,0.7c0,0.6-0.5,1.5-0.7,3.7
			c-0.1,0.7-0.3,4.2-0.5,5.2l-0.8,0.8c-0.5,0-0.7-0.3-0.7-1c0-0.6-0.1-1.8-0.5-2.8c-0.6-1.2-1.4-1.8-6.1-2.4
			c-1.4-0.2-11.3-0.3-12.2-0.3c-0.4,0-0.5,0.3-0.5,0.8v21.2c0,0.6,0,0.8,0.5,0.8c1.1,0,12.2,0,14.1-0.2c2-0.2,3.3-0.3,4.1-1.1
			c0.6-0.6,1-1,1.3-1l0.5,0.6c0,0.4-0.5,1.7-0.7,4.3c-0.2,1.5-0.4,4.4-0.4,5c0,0.7-0.2,1.5-0.8,1.5l-0.6-0.7c0-0.7,0-1.5-0.4-2.5
			c-0.3-1.1-1.1-2-4.3-2.4c-2.3-0.3-11.3-0.3-12.8-0.3l-0.6,0.6v6.5c0,2.6-0.1,11.7,0,13.3c0.2,5.2,1.7,6.2,10.1,6.2
			c2.2,0,6.3,0,8.5-0.8c2.2-0.9,3.4-2.3,3.8-5.4c0.2-0.9,0.4-1.2,0.9-1.2c0.5,0,0.6,0.6,0.6,1.2c0,0.6-0.7,5.9-1.2,7.5
			c-0.6,2-1.4,2-4.7,2c-6.3,0-11.2-0.2-14.7-0.3c-3.6-0.2-5.8-0.2-7-0.2c-0.2,0-1.8,0-3.6,0.1c-1.6,0.1-3.6,0.2-4.9,0.2
			c-0.9,0-1.3-0.2-1.3-0.6l0.7-0.7c0.8,0,1.8-0.2,2.6-0.3c1.6-0.3,1.8-1.9,2.2-4.1c0.5-3.2,0.5-9.3,0.5-16.9V156z"/>
		<path d="M524.1,162.6l0.6,1c1.2,0.6,5.6,1.2,9.3,1.2c2,0,4.3-0.1,6.4-1.4c2.9-1.9,5.1-6,5.1-11.9c0-9.7-5.6-15.3-14.6-15.3
			c-2.5,0-5.2,0.2-6.1,0.5l-0.7,0.9V162.6z M516.8,156c0-12.1,0-14.3-0.2-16.8c-0.2-2.6-0.7-3.9-3.5-4.3c-0.7-0.1-2.1-0.2-2.9-0.2
			l-0.7-0.6c0-0.5,0.4-0.6,1.3-0.6c3.9,0,9.5,0.2,10,0.2c0.9,0,8-0.2,10.6-0.2c5.4,0,11.4,0.5,15.8,3.4c2.1,1.5,5.9,5.2,5.9,10.6
			c0,5.7-2.5,11.3-10.4,17.7c6.9,8.3,12.8,15.3,17.7,20.2c4.5,4.4,7.3,5.2,9.4,5.5c1.6,0.2,2.5,0.2,3,0.2l0.8,0.7
			c0,0.5-0.5,0.6-2,0.6h-5.3c-4.8,0-6.9-0.5-9-1.5c-3.7-1.9-6.7-5.6-11.5-11.5c-3.6-4.2-7.3-9.2-9.1-11.4c-0.4-0.3-0.6-0.5-1.2-0.5
			l-10.8-0.2l-0.6,0.6v1.9c0,7.5,0,13.6,0.4,16.8c0.3,2.3,0.8,3.7,3.4,4.1c1.2,0.2,3,0.3,3.7,0.3c0.6,0,0.7,0.4,0.7,0.7
			c0,0.3-0.4,0.6-1.4,0.6c-4.6,0-10-0.3-10.4-0.3c-0.1,0-5.8,0.3-8.4,0.3c-0.9,0-1.4-0.2-1.4-0.6l0.7-0.7c0.8,0,1.8-0.2,2.6-0.3
			c1.6-0.4,1.8-1.9,2.2-4.1c0.5-3.2,0.5-9.3,0.5-16.9V156z"/>
		<path d="M573.1,181.7c0.2,6.4,0.9,8.3,3.1,8.9c1.5,0.4,3.3,0.5,4,0.5l0.6,0.7c0,0.5-0.6,0.6-1.5,0.6c-4.6,0-7.8-0.3-8.5-0.3
			c-0.7,0-4.1,0.3-7.8,0.3c-0.8,0-1.3-0.1-1.3-0.6l0.6-0.7c0.7,0,2.1-0.1,3.3-0.5c2-0.6,2.3-2.6,2.3-9.7v-44.6
			c0-3.1,0.5-3.9,1.1-3.9c0.9,0,2.3,1.6,3.1,2.4c1.3,1.3,13,13.8,25.5,26.6c8,8.3,16.6,17.5,19.1,20.1l-0.8-39
			c-0.1-5.1-0.5-6.8-3-7.3c-1.5-0.3-3.3-0.4-3.9-0.4c-0.6,0-0.6-0.5-0.6-0.7c0-0.5,0.6-0.5,1.6-0.5c3.7,0,7.5,0.2,8.4,0.2
			c0.9,0,3.6-0.2,6.9-0.2c0.8,0,1.5,0.1,1.5,0.5c0,0.3-0.4,0.7-0.9,0.7c-0.4,0-1,0-1.9,0.2c-2.7,0.5-2.8,2.1-2.8,6.8l-0.2,45.6
			c0,5.1-0.1,5.6-0.6,5.6c-0.8,0-1.6-0.7-6.1-4.8c-0.8-0.7-12.5-12.2-21-21.1c-9.3-9.8-18.4-19.3-20.9-22.1L573.1,181.7z"/>
		<path d="M572.5,239.4h0.1c0.7,0.7,5,5.6,9.2,9.8c4,4,9,9.1,11.4,11.4l1.3,0.8c0.3,0,0.5-0.3,0.5-1.2l0.4-24.5c0-2.1,0.3-3,1.4-3.3
			l1.2-0.1l0.7-0.3l-0.9-0.4c-1.9,0-3.4,0.1-3.8,0.1c-0.8,0-2.7-0.1-4.7-0.1c-0.6,0-1,0.1-1,0.4l0.6,0.3c0.5,0,1.5,0,2,0.2
			c0.9,0.4,1.3,1.1,1.3,3.5l0.4,17.4h-0.2c-0.7-0.6-5.9-6.2-8.5-8.8c-5.7-5.6-11.5-11.9-12-12.4c-0.7-0.7-1-1.2-1.4-1.2
			c-0.4,0-0.5,0.5-0.5,1.3l-0.3,23c0,3.4-0.2,4.5-1.2,4.8c-0.5,0.2-1.2,0.2-1.7,0.2l-0.6,0.3l0.9,0.4c2,0,3.8-0.1,4.2-0.1
			c0.7,0,2.3,0.1,4.8,0.1c0.5,0,0.9-0.1,0.9-0.4l-0.7-0.3c-0.6,0-1.4,0-2-0.2c-0.8-0.3-1.3-1.3-1.4-4.3L572.5,239.4z M550.1,259.5
			c-7.4,0-11.9-6.4-11.9-14.5c0-9.6,5.1-12.1,9.5-12.1c6.4,0,11.4,5.3,11.4,14.1C559.1,258.2,552.8,259.5,550.1,259.5 M548.5,261.5
			c9.8,0,16-7,16-15.9c0-8.9-6-14.5-15.7-14.5c-11.6,0-16,8.6-16,15.2C532.9,253.2,537.4,261.5,548.5,261.5 M521.9,249.7
			c0,3.8,0,6.8-0.2,8.4c-0.1,1.1-0.3,1.8-1.1,2c-0.3,0.1-0.8,0.1-1.4,0.1l-0.6,0.3l0.8,0.4c1.6,0,4-0.1,4.9-0.1c1,0,3.5,0.1,6,0.1
			l0.7-0.4l-0.6-0.3c-0.6,0-1.4-0.1-2-0.1c-1.2-0.2-1.4-0.8-1.6-1.9c-0.2-1.7-0.2-4.7-0.2-8.5v-6.8c0-5.9,0-7,0.1-8.2
			c0.1-1.4,0.4-2,1.4-2.2l1.2-0.1l0.6-0.4c0-0.2-0.3-0.3-0.8-0.3c-1.5,0-3.8,0.1-4.7,0.1c-1.1,0-3.6-0.1-5-0.1
			c-0.6,0-0.9,0.1-0.9,0.3l0.6,0.4l1.4,0.1c0.9,0.2,1.2,0.9,1.3,2.2c0.1,1.2,0.1,2.3,0.1,8.2V249.7z M501.5,249.7
			c0,3.6,0,6.6-0.2,8.3c-0.1,1.1-0.3,2-1.1,2.1c-0.3,0.1-0.8,0.1-1.4,0.1l-0.6,0.3l0.8,0.4c1.6,0,4-0.1,4.9-0.1
			c1.1,0,3.5,0.1,6.1,0.1l0.7-0.4l-0.6-0.3c-0.6,0-1.4-0.1-2-0.1c-1.2-0.2-1.4-1-1.5-2.1c-0.2-1.7-0.2-4.7-0.2-8.3v-15.9l4.9,0.1
			c3.5,0.1,4.5,1.2,4.6,2.2l0,0.4c0,0.6,0.1,0.8,0.4,0.8l0.3-0.6c0-1,0.1-3.7,0.1-4.5c0-0.6,0-0.8-0.3-0.8c-0.2,0-0.5,0.1-1.1,0.2
			c-0.6,0.1-1.4,0.2-2.7,0.2h-15.3c-1.3,0-2.7-0.1-3.9-0.2c-1-0.1-1.4-0.5-1.7-0.5l-0.5,0.7c-0.1,0.3-0.8,3.8-0.8,4.4l0.3,0.6
			l0.4-0.5c0.1-0.3,0.3-0.8,0.7-1.4c0.6-0.9,1.5-1.1,3.8-1.1l5.8-0.2V249.7z M476,248.9l-0.2-0.3l3.6-9.6l0.2-0.3l0.2,0.3l3.5,9.6
			l-0.2,0.2H476z M483.9,250.8l0.4,0.3l3.1,8.2l-0.3,0.9l-0.5,0.3c0,0.3,0.5,0.3,1.2,0.3c3.1,0.1,5.9,0.1,7.3,0.1
			c1.4,0,1.8-0.1,1.8-0.4l-0.5-0.3c-0.5,0-1,0-1.6-0.1c-0.8-0.2-1.9-0.7-3.4-4.2c-2.5-5.9-8.7-21.7-9.6-23.9c-0.4-0.9-0.6-1.2-1-1.2
			c-0.4,0-0.6,0.5-1.1,1.6l-9.7,24.3c-0.8,2-1.5,3.3-3.3,3.5l-1.2,0.1l-0.5,0.3c0,0.3,0.2,0.4,0.7,0.4c2,0,4.1-0.1,4.6-0.1
			c1.2,0,2.9,0.1,4.1,0.1l0.7-0.4l-0.6-0.3h-0.6c-1.2,0-1.5-0.5-1.5-1.2c0-0.4,0.2-1.4,0.6-2.4l2.1-5.5l0.4-0.3H483.9z M444.2,242.2
			c0-3,0-6.4,0-7.8l0.5-0.7c0.3-0.2,1.7-0.3,2.5-0.3c3,0,7.4,0.5,11,3.9c1.7,1.6,3.7,4.7,3.7,9.7c0,4-0.8,7.5-3.3,9.6
			c-2.3,2-5,2.8-8.9,2.8c-3.1,0-4.6-0.8-5.1-1.6c-0.3-0.4-0.4-2-0.4-2.9c0-0.7-0.1-3.7-0.1-7.8V242.2z M439.3,249.7
			c0,3.6,0,6.6-0.2,8.3c-0.2,1.1-0.3,2-1.1,2.1c-0.3,0.1-0.8,0.1-1.4,0.1l-0.6,0.3c0,0.3,0.3,0.4,0.8,0.4c0.8,0,1.8-0.1,2.7-0.1
			c0.9-0.1,1.8-0.1,2.2-0.1c1,0,2.3,0.1,3.8,0.2c1.5,0.1,3.1,0.2,4.5,0.2c7.2,0,11.2-2.8,13-4.6c2.2-2.2,4.2-6,4.2-10.8
			c0-4.6-1.8-7.8-3.8-9.9c-4.2-4.4-10.7-4.4-15.5-4.4c-2.3,0-4.8,0.1-6,0.1c-1.1,0-3.5-0.1-5.6-0.1c-0.6,0-0.9,0.1-0.9,0.4l0.7,0.3
			c0.5,0,1.2,0,1.5,0.1c1.3,0.3,1.6,0.9,1.7,2.2c0.1,1.2,0.1,2.3,0.1,8.2V249.7z M406.3,239.4h0.1c0.7,0.7,5,5.6,9.2,9.8
			c4,4,9,9.1,11.4,11.4l1.3,0.8c0.4,0,0.5-0.3,0.5-1.2l0.4-24.5c0-2.1,0.4-3,1.4-3.3l1.2-0.1l0.7-0.3l-0.9-0.4
			c-1.9,0-3.4,0.1-3.8,0.1c-0.8,0-2.7-0.1-4.7-0.1c-0.6,0-1,0.1-1,0.4l0.6,0.3c0.6,0,1.5,0,2.1,0.2c0.9,0.4,1.3,1.1,1.3,3.5
			l0.4,17.4h-0.2c-0.7-0.6-5.9-6.2-8.5-8.8c-5.7-5.6-11.5-11.9-12-12.4c-0.7-0.7-1-1.2-1.4-1.2c-0.4,0-0.5,0.5-0.5,1.3l-0.4,23
			c0,3.4-0.2,4.5-1.2,4.8c-0.6,0.2-1.2,0.2-1.7,0.2l-0.6,0.3c0,0.3,0.3,0.4,0.9,0.4c2,0,3.8-0.1,4.2-0.1c0.7,0,2.3,0.1,4.8,0.1
			c0.6,0,0.9-0.1,0.9-0.4l-0.7-0.3c-0.6,0-1.4,0-2-0.2c-0.8-0.3-1.3-1.3-1.4-4.3L406.3,239.4z M371.8,248.5c0,5.6,1.5,8.4,3.5,10.2
			c2.8,2.5,6.6,2.7,8.6,2.7c2.5,0,5.3-0.5,8.1-2.8c3.3-2.8,3.7-7.4,3.7-11.7v-4.2c0-5.9,0-7,0.1-8.2c0.1-1.4,0.4-2,1.4-2.2l1.1-0.1
			l0.7-0.3c0-0.3-0.3-0.4-0.8-0.4c-1.5,0-4,0.1-4.4,0.1c0,0-2.5-0.1-4.5-0.1c-0.6,0-0.8,0.1-0.8,0.4l0.7,0.3l1.4,0.1
			c1.3,0.3,1.6,0.9,1.7,2.2c0.1,1.2,0.1,2.3,0.1,8.2v4.8c0,4-0.1,7.5-2.2,9.6c-1.5,1.5-3.6,2.1-5.4,2.1c-1.3,0-3.1-0.2-4.9-1.6
			c-1.9-1.6-3-3.9-3-9.6v-5.4c0-5.9,0-7,0.1-8.2c0.1-1.4,0.4-2,1.4-2.2l1.1-0.1l0.6-0.3c0-0.3-0.3-0.4-0.9-0.4
			c-1.4,0-3.8,0.1-4.8,0.1c-1.2,0-3.6-0.1-5.6-0.1c-0.6,0-0.9,0.1-0.9,0.4l0.7,0.3c0.5,0,1.2,0,1.5,0.1c1.3,0.3,1.6,0.9,1.7,2.2
			c0.1,1.2,0.1,2.3,0.1,8.2V248.5z M352.5,259.5c-7.4,0-11.9-6.4-11.9-14.5c0-9.6,5.1-12.1,9.5-12.1c6.4,0,11.4,5.3,11.4,14.1
			C361.5,258.2,355.2,259.5,352.5,259.5 M350.9,261.5c9.8,0,16-7,16-15.9c0-8.9-6-14.5-15.7-14.5c-11.6,0-16,8.6-16,15.2
			C335.3,253.2,339.8,261.5,350.9,261.5 M322.2,246.5l0.3-0.3c0.7,0,4.8,0,5.7,0.1c1.2,0.2,1.8,0.9,2,1.4l0.2,1.2l0.3,0.6l0.4-0.7
			c0-0.3,0.1-2.1,0.2-2.8c0.1-1.2,0.3-2.2,0.3-2.4l-0.2-0.3l-0.5,0.4c-0.4,0.5-0.9,0.6-1.7,0.7c-0.5,0.1-1.1,0.1-1.7,0.1h-5
			l-0.3-0.3v-9.7l0.4-0.5l6,0.1c1.5,0,2.3,0.6,2.6,1.1c0.2,0.6,0.2,1.2,0.2,1.5l0.4,0.6l0.4-0.5l0.2-3.2c0.1-1,0.3-1.5,0.3-1.7
			l-0.3-0.3l-0.6,0.2c-0.4,0.1-0.9,0.1-1.6,0.2c-0.9,0-8.8,0-10.2,0c-0.5,0-1.4,0-2.4-0.1c-1,0-2.1-0.1-3.1-0.1
			c-0.6,0-0.9,0.1-0.9,0.4l0.7,0.3c0.5,0,1.2,0,1.5,0.1c1.3,0.3,1.6,0.9,1.7,2.2c0.1,1.2,0.1,2.3,0.1,8.2v6.8c0,3.7,0,6.6-0.2,8.3
			c-0.2,1.1-0.4,2-1.1,2.1c-0.3,0.1-0.8,0.1-1.4,0.1l-0.6,0.3c0,0.3,0.3,0.4,0.8,0.4c1.5,0,3.9-0.1,4.9-0.1c1,0,3.5,0.1,5.9,0.1
			c0.6,0,0.8-0.1,0.8-0.4l-0.7-0.3c-0.5,0-1.4-0.1-1.9-0.1c-1.2-0.2-1.4-1-1.5-2.1c-0.2-1.6-0.2-4.6-0.2-8.3V246.5z M287.9,254.1
			c0,0.6,0,2.3-0.1,3.9c-0.1,1.1-0.4,2-1.2,2.1c-0.3,0.1-0.8,0.1-1.4,0.1l-0.6,0.3c0,0.3,0.3,0.4,0.8,0.4c1.4,0,3.9-0.1,4.8-0.1
			c1,0,3.5,0.1,5.9,0.1l0.8-0.4l-0.6-0.3c-0.5,0-1.4-0.1-1.9-0.1c-1.2-0.2-1.5-1-1.6-2.1c-0.1-1.6-0.1-3.3-0.1-3.9v-3.2
			c0-1.3,0-2.5,0.6-3.9c0.7-1.7,6.1-10.8,7.4-12.3c0.8-1.1,1.3-1.5,2.1-1.9c0.6-0.3,1.3-0.5,1.7-0.5l0.7-0.4l-0.7-0.3
			c-0.7,0-3.3,0.1-4.1,0.1c-1.1,0-2.4-0.1-3.7-0.1l-0.7,0.4l0.7,0.3c0.7,0.2,0.8,0.6,0.8,1c0,0.5-0.2,1.1-0.5,2
			c-0.6,1.2-5.4,9.7-5.8,10.7c-0.6-1.1-6.1-10.4-6.6-11.6c-0.3-0.6-0.5-1-0.5-1.4l0.5-0.7c0.6-0.2,0.9-0.2,0.9-0.4l-0.6-0.4
			c-1.7,0-3.3,0.1-4.1,0.1c-1.3,0-4.2-0.1-4.9-0.1l-0.7,0.4l0.6,0.3l1.6,0.5c0.7,0.4,1.7,1.4,2.7,2.8c1.4,2,6.5,10.5,6.8,11.1
			c0.5,1.1,0.9,2,0.9,4.1V254.1z M268.5,242.9c0-5.9,0-7,0.1-8.2c0.1-1.4,0.4-2,1.4-2.2l1.5-0.1l0.7-0.3c0-0.3-0.3-0.4-0.8-0.4
			c-1.5,0-4.3,0.1-5.3,0.1c-1.1,0-3.5-0.1-5.3-0.1c-0.6,0-0.9,0.1-0.9,0.4l0.7,0.3l1.3,0.1c1.3,0.3,1.6,0.9,1.7,2.2
			c0.1,1.2,0.1,2.3,0.1,8.2v6.8c0,3.6,0,6.6-0.2,8.3c-0.2,1.1-0.3,2-1.1,2.1c-0.3,0.1-0.8,0.1-1.4,0.1l-0.6,0.3
			c0,0.3,0.3,0.4,0.8,0.4c0.8,0,1.8-0.1,2.7-0.1c0.9-0.1,1.8-0.1,2.2-0.1c1.6,0,3,0.1,4.7,0.1c1.7,0.1,3.7,0.1,6.5,0.1
			c2,0,2.2-0.2,2.4-1.1c0.3-1.1,0.6-4,0.6-4.4l-0.3-0.7l-0.4,0.6c-0.1,0.7-0.5,1.8-1,2.3c-1,1.1-2.5,1.1-4.5,1.1c-3,0-4-0.2-4.7-0.8
			c-0.8-0.7-0.8-3.4-0.8-8.3V242.9z M248.1,249.7c0,3.8,0,6.8-0.2,8.4c-0.1,1.1-0.4,1.8-1.1,2c-0.4,0.1-0.8,0.1-1.4,0.1l-0.6,0.3
			c0,0.3,0.3,0.4,0.8,0.4c1.5,0,4-0.1,4.9-0.1c1.1,0,3.5,0.1,6,0.1l0.7-0.4l-0.6-0.3c-0.6,0-1.4-0.1-2-0.1c-1.2-0.2-1.4-0.8-1.5-1.9
			c-0.2-1.7-0.2-4.7-0.2-8.5v-6.8c0-5.9,0-7,0.1-8.2c0.1-1.4,0.4-2,1.4-2.2l1.2-0.1l0.6-0.4c0-0.2-0.3-0.3-0.8-0.3
			c-1.5,0-3.7,0.1-4.7,0.1c-1.1,0-3.6-0.1-5-0.1c-0.6,0-0.9,0.1-0.9,0.3l0.6,0.4l1.4,0.1c0.8,0.2,1.2,0.9,1.3,2.2
			c0.1,1.2,0.1,2.3,0.1,8.2V249.7z M207.2,257c-0.2,1.3-0.5,2.8-1.6,3c-0.6,0.1-0.9,0.1-1.2,0.1l-0.6,0.3l0.7,0.4
			c1.2,0,3.1-0.1,3.8-0.1c0.7,0,2.4,0.1,4.1,0.1c0.6,0,0.9-0.1,0.9-0.4l-0.6-0.3c-0.4,0-0.9,0-1.6-0.2c-0.7-0.2-1.2-0.5-1.2-1.2
			c0-0.6,0-1.1,0.1-1.8l2-15.4h0.2c1.4,2.9,3.7,7.8,4,8.6c0.5,1.1,3.5,7,4.5,8.8c0.6,1.1,1,1.9,1.4,1.9c0.3,0,0.5-0.3,1.4-2.1
			l8.5-17.6h0.2l2.3,17.1c0.1,1.1,0,1.6-0.2,1.7l-0.4,0.4c0,0.2,0.2,0.3,1.1,0.5c1.5,0.1,6.9,0.2,7.9,0.2c0.5,0,1-0.1,1-0.4
			l-0.6-0.3c-0.5,0-1.3,0-2.4-0.3c-1.2-0.4-1.5-1.5-1.9-3.9l-3.5-23.9c-0.1-0.8-0.3-1.2-0.7-1.2c-0.3,0-0.5,0.3-0.8,1l-10.5,22.1
			L212.7,232c-0.5-1-0.7-1.2-1.1-1.2c-0.3,0-0.5,0.3-0.6,1L207.2,257z M185.9,248.9l-0.2-0.3l3.6-9.6l0.2-0.3l0.2,0.3l3.5,9.6
			l-0.2,0.2H185.9z M193.8,250.8l0.4,0.3l3.1,8.2l-0.4,0.9l-0.6,0.3c0,0.3,0.5,0.3,1.2,0.3c3.1,0.1,5.9,0.1,7.3,0.1
			c1.4,0,1.8-0.1,1.8-0.4l-0.5-0.3c-0.5,0-1,0-1.6-0.1c-0.8-0.2-1.9-0.7-3.4-4.2c-2.5-5.9-8.7-21.7-9.6-23.9c-0.4-0.9-0.6-1.2-1-1.2
			c-0.4,0-0.6,0.5-1.1,1.6l-9.7,24.3c-0.8,2-1.5,3.3-3.3,3.5l-1.2,0.1l-0.5,0.3l0.7,0.4c2,0,4.1-0.1,4.6-0.1c1.2,0,2.9,0.1,4.1,0.1
			l0.7-0.4l-0.6-0.3h-0.6c-1.2,0-1.6-0.5-1.6-1.2c0-0.4,0.2-1.4,0.6-2.4l2.1-5.5l0.3-0.3H193.8z M167.1,246.5l0.3-0.3
			c0.7,0,4.8,0,5.7,0.1c1.2,0.2,1.8,0.9,2,1.4l0.2,1.2l0.3,0.6l0.4-0.7c0-0.3,0.1-2.1,0.2-2.8c0.1-1.2,0.3-2.2,0.3-2.4l-0.2-0.3
			l-0.5,0.4c-0.4,0.5-0.9,0.6-1.7,0.7c-0.5,0.1-1.1,0.1-1.8,0.1h-5l-0.3-0.3v-9.7l0.4-0.5l6,0.1c1.5,0,2.3,0.6,2.6,1.1
			c0.2,0.6,0.2,1.2,0.2,1.5l0.4,0.6l0.4-0.5l0.2-3.2c0.1-1,0.3-1.5,0.3-1.7l-0.3-0.3l-0.6,0.2c-0.4,0.1-0.9,0.1-1.6,0.2
			c-0.9,0-8.8,0-10.2,0c-0.5,0-1.4,0-2.4-0.1c-1,0-2.1-0.1-3.1-0.1c-0.6,0-0.9,0.1-0.9,0.4l0.7,0.3c0.5,0,1.2,0,1.5,0.1
			c1.3,0.3,1.6,0.9,1.7,2.2c0.1,1.2,0.1,2.3,0.1,8.2v6.8c0,3.7,0,6.6-0.2,8.3c-0.2,1.1-0.3,2-1.1,2.1c-0.4,0.1-0.8,0.1-1.4,0.1
			l-0.6,0.3c0,0.3,0.3,0.4,0.8,0.4c1.5,0,3.9-0.1,4.9-0.1c1,0,3.5,0.1,5.9,0.1c0.6,0,0.8-0.1,0.8-0.4l-0.6-0.3
			c-0.6,0-1.4-0.1-1.9-0.1c-1.2-0.2-1.4-1-1.5-2.1c-0.2-1.6-0.2-4.6-0.2-8.3V246.5z M623.1,280.9h-494v-68.1h494V280.9z"/>
	</g>
</g>
<g id="Reverse">
	<g>
		<path class="st2" d="M171.7,160.9l0.4-0.7l-9.5-25.7c-0.5-1.5-1-1.5-1.5,0l-8.8,25.7l0.3,0.7H171.7z M161.3,122.9
			c1.2-3.2,1.6-3.7,2.2-3.7c0.6,0,1,0.4,2.2,3.4c1.5,3.6,17.2,42.9,23.3,57.4c3.6,8.4,6.5,10,8.6,10.6c1.5,0.5,3,0.6,4,0.6
			c0.6,0,1,0.1,1,0.6c0,0.6-0.9,0.7-2,0.7c-1.5,0-8.8,0-15.7-0.2c-1.9-0.1-3-0.1-3-0.7l0.7-0.7c0.6-0.2,1.2-1,0.6-2.5l-9.3-23.4
			l-0.9-0.6h-21.5l-1,0.7l-6,16.8c-0.9,2.4-1.4,4.7-1.4,6.4c0,1.9,2.1,2.8,3.8,2.8h1c0.7,0,1,0.2,1,0.6c0,0.6-0.6,0.7-1.5,0.7
			c-2.4,0-6.7-0.3-7.8-0.3c-1.1,0-6.6,0.3-11.3,0.3c-1.3,0-1.9-0.2-1.9-0.7l0.9-0.6c0.7,0,2.1-0.1,2.9-0.2c4.6-0.6,6.6-4.2,8.4-8.9
			L161.3,122.9z"/>
		<path class="st2" d="M212.2,169.9c0,11.5,0.2,16.2,1.7,17.5c1.4,1.3,4.6,1.9,11.3,1.9c4.4,0,8.2-0.1,10.2-2.4
			c1.1-1.2,1.7-2.9,2-4.4c0.1-0.5,0.4-1,0.9-1c0.4,0,0.6,0.3,0.6,1.2c0,0.8-0.6,5.5-1.2,7.8c-0.6,1.9-0.9,2.1-5.4,2.1
			c-6.1,0-10.8-0.1-14.7-0.2c-3.8-0.1-6.7-0.2-9.2-0.2c-0.4,0-1.8,0-3.5,0.1c-1.7,0.1-3.6,0.2-4.9,0.2c-0.9,0-1.3-0.2-1.3-0.6
			l0.7-0.7c0.8,0,1.8-0.2,2.6-0.3c1.6-0.4,1.8-1.9,2.2-4.1c0.5-3.2,0.5-9.3,0.5-16.9V156c0-12.1,0-14.3-0.2-16.8
			c-0.2-2.6-0.7-3.9-3.5-4.3c-0.7-0.1-2.1-0.2-2.9-0.2l-0.7-0.6c0-0.5,0.4-0.6,1.3-0.6c3.8,0,9.1,0.2,9.6,0.2c0.4,0,6.7-0.2,9.3-0.2
			c0.9,0,1.3,0.2,1.3,0.6l-0.7,0.6c-0.6,0-1.8,0.1-2.8,0.2c-2.5,0.5-3,1.6-3.2,4.4c-0.1,2.5-0.1,4.7-0.1,16.8V169.9z"/>
		<path class="st2" d="M248.7,156c0-12.1,0-14.3-0.2-16.8c-0.2-2.6-0.7-3.9-3.5-4.3c-0.7-0.1-2.1-0.2-2.9-0.2l-0.7-0.6
			c0-0.5,0.4-0.6,1.4-0.6c3.8,0,9.3,0.2,9.8,0.2c0.6,0,18.3,0.1,20.2,0c1.6-0.1,3.2-0.4,3.9-0.5l1.2-0.4l0.4,0.7
			c0,0.6-0.5,1.5-0.7,3.7c-0.1,0.7-0.3,4.2-0.5,5.2l-0.8,0.8c-0.5,0-0.7-0.3-0.7-1c0-0.6-0.1-1.8-0.5-2.8c-0.6-1.2-1.5-1.8-6.1-2.4
			c-1.5-0.2-11.3-0.3-12.2-0.3c-0.4,0-0.5,0.3-0.5,0.8v21.2c0,0.6,0,0.8,0.5,0.8c1.1,0,12.2,0,14.1-0.2c2-0.2,3.3-0.3,4.1-1.1
			c0.6-0.6,1-1,1.2-1l0.5,0.6c0,0.4-0.5,1.7-0.7,4.3c-0.2,1.5-0.4,4.4-0.4,5c0,0.7-0.2,1.5-0.8,1.5l-0.6-0.7c0-0.7,0-1.5-0.4-2.5
			c-0.3-1.1-1.1-2-4.3-2.4c-2.3-0.3-11.4-0.3-12.8-0.3l-0.6,0.6v6.5c0,2.6-0.1,11.7,0,13.3c0.2,5.2,1.7,6.2,10.1,6.2
			c2.2,0,6.3,0,8.5-0.8c2.2-0.9,3.4-2.3,3.9-5.4c0.2-0.9,0.4-1.2,0.9-1.2s0.6,0.6,0.6,1.2c0,0.6-0.7,5.9-1.2,7.5c-0.6,2-1.4,2-4.7,2
			c-6.4,0-11.3-0.2-14.7-0.3c-3.6-0.2-5.8-0.2-7-0.2c-0.2,0-1.8,0-3.6,0.1c-1.6,0.1-3.6,0.2-4.9,0.2c-0.9,0-1.4-0.2-1.4-0.6l0.7-0.7
			c0.8,0,1.8-0.2,2.6-0.3c1.6-0.3,1.8-1.9,2.2-4.1c0.5-3.2,0.5-9.3,0.5-16.9V156z"/>
		<path class="st2" d="M308.3,162.3l-13.5-20.9c-1.9-3-3.5-5.2-6.4-6.1c-1.3-0.3-3.1-0.6-3.6-0.6L284,134c0-0.3,0.4-0.5,1.5-0.5
			c2.4,0,9.2,0.2,9.9,0.2c0.8,0,5.4-0.2,8.3-0.2c1.2,0,1.5,0.2,1.5,0.5l-0.8,0.7c-0.6,0-1.6,0-2.3,0.2c-0.8,0.1-1.1,0.6-1.1,1.2
			c0,0.7,0.4,1.7,0.9,2.5c3.6,6.1,6.7,11.8,11.2,18.4c2.5-3.4,11.4-16.4,12.2-18.1c0.7-1.1,0.9-1.8,0.9-2.8c0-0.5-0.6-1-1.4-1.2
			c-0.9-0.2-1.8-0.2-2.3-0.2l-0.8-0.7c0-0.3,0.4-0.5,1.4-0.5c3.2,0,6.7,0.2,7.5,0.2c0.8,0,4.2-0.2,7.1-0.2c1,0,1.4,0.2,1.4,0.5
			c0,0.3-0.3,0.7-0.9,0.7c-0.7,0-1.9,0.1-2.9,0.4c-2.4,0.7-3.9,2.8-6.3,6.1l-13.6,18.9c1.6,2.4,16.1,25,17.9,27.1
			c1.3,1.6,2.3,2.8,4.8,3.4c1.2,0.3,2.4,0.5,2.9,0.5l0.7,0.7c0,0.3-0.4,0.6-1.2,0.6c-5.2,0-9.2,0-13.9-0.2c-2.2-0.1-2.6-0.3-2.6-0.7
			l0.5-0.6c0.5-0.1,1.3-0.9,0.5-2.2c-4.6-7.6-9.2-15.1-14.3-23l-13,20.4c-0.8,1.3-1.1,2.7-1.1,3.5c0,0.7,0.6,1.1,1.4,1.3l1.5,0.2
			l0.8,0.7c0,0.4-0.5,0.6-1.1,0.6c-2,0-7.6-0.3-8.4-0.3c-0.7,0-4.9,0.3-7.7,0.3c-0.7,0-0.8-0.3-0.8-0.6l0.7-0.7
			c0.7,0,1.9-0.2,3.2-0.5c2.5-0.6,4.2-2.1,6.9-6L308.3,162.3z"/>
		<path class="st2" d="M370.6,191.1c-1.4-0.6-1.5-1-1.5-3.6c0-4.7,0.4-8.6,0.5-10.1c0.1-1.1,0.3-1.5,0.8-1.5c0.6,0,0.7,0.3,0.7,1
			c0,0.9,0,2.2,0.3,3.5c1.5,7,8.1,9.7,14.8,9.7c9.6,0,14.3-6.6,14.3-12.7c0-6.6-2.9-10.4-11.5-17.2l-4.5-3.5
			c-10.6-8.3-13-14.2-13-20.7c0-10.2,8-17.1,20.7-17.1c3.9,0,6.8,0.4,9.3,1c1.9,0.4,2.7,0.5,3.5,0.5c0.8,0,1,0.2,1,0.7
			c0,0.5-0.4,3.6-0.4,10.1c0,1.5-0.2,2.2-0.7,2.2c-0.6,0-0.7-0.5-0.8-1.2c-0.1-1.1-0.7-3.7-1.3-4.7c-0.6-1.1-3.3-5.1-12.5-5.1
			c-6.9,0-12.3,4.1-12.3,11c0,5.4,2.6,8.8,12.2,16l2.8,2.1c11.8,8.8,14.6,14.7,14.6,22.3c0,3.9-1.6,11.1-8.5,15.8
			c-4.3,2.9-9.7,4-15.1,4C379.3,193.7,374.7,193,370.6,191.1"/>
		<path class="st2" d="M438,169.7c0,7.5,0,13.7,0.4,16.9c0.3,2.3,0.7,3.7,3.3,4.1c1.2,0.2,3.1,0.3,3.8,0.3c0.6,0,0.7,0.4,0.7,0.7
			c0,0.3-0.4,0.6-1.4,0.6c-4.6,0-10-0.3-10.5-0.3c-0.4,0-6.3,0.3-8.8,0.3c-1,0-1.4-0.2-1.4-0.6l0.7-0.6c0.8,0,1.7-0.2,2.5-0.4
			c1.7-0.3,2.2-1.9,2.5-4.2c0.4-3.2,0.4-9.3,0.4-16.9V137l-12.2,0.2c-5.3,0.1-7.3,0.7-8.6,2.5c-1,1.4-1.1,1.9-1.3,2.5
			c-0.2,0.7-0.5,0.7-0.9,0.7l-0.6-0.6c0-0.8,1.7-7.8,1.8-8.4l0.9-1.5c0.6,0,1.4,0.7,3.7,0.9c2.4,0.3,5.7,0.4,6.6,0.4h31.9
			c2.8,0,4.7-0.2,6.1-0.4c1.3-0.2,2-0.3,2.4-0.3l0.4,0.9c0,2.4-0.3,8-0.3,8.9c0,0.7-0.4,1-0.8,1c-0.4,0-0.6-0.3-0.7-1.4l-0.1-0.8
			c-0.3-2.4-2.1-4.1-10.2-4.3L438,137V169.7z"/>
		<path class="st2" d="M471,156c0-12.1,0-14.3-0.2-16.8c-0.2-2.6-0.7-3.9-3.5-4.3c-0.7-0.1-2.1-0.2-2.9-0.2l-0.7-0.6
			c0-0.5,0.4-0.6,1.3-0.6c3.9,0,9.3,0.2,9.8,0.2c0.6,0,18.3,0.1,20.2,0c1.6-0.1,3.2-0.4,3.9-0.5l1.1-0.4l0.4,0.7
			c0,0.6-0.5,1.5-0.7,3.7c-0.1,0.7-0.3,4.2-0.5,5.2l-0.8,0.8c-0.5,0-0.7-0.3-0.7-1c0-0.6-0.1-1.8-0.5-2.8c-0.6-1.2-1.4-1.8-6.1-2.4
			c-1.4-0.2-11.3-0.3-12.2-0.3c-0.4,0-0.5,0.3-0.5,0.8v21.2c0,0.6,0,0.8,0.5,0.8c1.1,0,12.2,0,14.1-0.2c2-0.2,3.3-0.3,4.1-1.1
			c0.6-0.6,1-1,1.3-1l0.5,0.6c0,0.4-0.5,1.7-0.7,4.3c-0.2,1.5-0.4,4.4-0.4,5c0,0.7-0.2,1.5-0.8,1.5l-0.6-0.7c0-0.7,0-1.5-0.4-2.5
			c-0.3-1.1-1.1-2-4.3-2.4c-2.3-0.3-11.3-0.3-12.8-0.3l-0.6,0.6v6.5c0,2.6-0.1,11.7,0,13.3c0.2,5.2,1.7,6.2,10.1,6.2
			c2.2,0,6.3,0,8.5-0.8c2.2-0.9,3.4-2.3,3.8-5.4c0.2-0.9,0.4-1.2,0.9-1.2c0.5,0,0.6,0.6,0.6,1.2c0,0.6-0.7,5.9-1.2,7.5
			c-0.6,2-1.4,2-4.7,2c-6.3,0-11.2-0.2-14.7-0.3c-3.6-0.2-5.8-0.2-7-0.2c-0.2,0-1.8,0-3.6,0.1c-1.6,0.1-3.6,0.2-4.9,0.2
			c-0.9,0-1.3-0.2-1.3-0.6l0.7-0.7c0.8,0,1.8-0.2,2.6-0.3c1.6-0.3,1.8-1.9,2.2-4.1c0.5-3.2,0.5-9.3,0.5-16.9V156z"/>
		<path class="st2" d="M524.1,162.6l0.6,1c1.2,0.6,5.6,1.2,9.3,1.2c2,0,4.3-0.1,6.4-1.4c2.9-1.9,5.1-6,5.1-11.9
			c0-9.7-5.6-15.3-14.6-15.3c-2.5,0-5.2,0.2-6.1,0.5l-0.7,0.9V162.6z M516.8,156c0-12.1,0-14.3-0.2-16.8c-0.2-2.6-0.7-3.9-3.5-4.3
			c-0.7-0.1-2.1-0.2-2.9-0.2l-0.7-0.6c0-0.5,0.4-0.6,1.3-0.6c3.9,0,9.5,0.2,10,0.2c0.9,0,8-0.2,10.6-0.2c5.4,0,11.4,0.5,15.8,3.4
			c2.1,1.5,5.9,5.2,5.9,10.6c0,5.7-2.5,11.3-10.4,17.7c6.9,8.3,12.8,15.3,17.7,20.2c4.5,4.4,7.3,5.2,9.4,5.5c1.6,0.2,2.5,0.2,3,0.2
			l0.8,0.7c0,0.5-0.5,0.6-2,0.6h-5.3c-4.8,0-6.9-0.5-9-1.5c-3.7-1.9-6.7-5.6-11.5-11.5c-3.6-4.2-7.3-9.2-9.1-11.4
			c-0.4-0.3-0.6-0.5-1.2-0.5l-10.8-0.2l-0.6,0.6v1.9c0,7.5,0,13.6,0.4,16.8c0.3,2.3,0.8,3.7,3.4,4.1c1.2,0.2,3,0.3,3.7,0.3
			c0.6,0,0.7,0.4,0.7,0.7c0,0.3-0.4,0.6-1.4,0.6c-4.6,0-10-0.3-10.4-0.3c-0.1,0-5.8,0.3-8.4,0.3c-0.9,0-1.4-0.2-1.4-0.6l0.7-0.7
			c0.8,0,1.8-0.2,2.6-0.3c1.6-0.4,1.8-1.9,2.2-4.1c0.5-3.2,0.5-9.3,0.5-16.9V156z"/>
		<path class="st2" d="M573.1,181.7c0.2,6.4,0.9,8.3,3.1,8.9c1.5,0.4,3.3,0.5,4,0.5l0.6,0.7c0,0.5-0.6,0.6-1.5,0.6
			c-4.6,0-7.8-0.3-8.5-0.3c-0.7,0-4.1,0.3-7.8,0.3c-0.8,0-1.3-0.1-1.3-0.6l0.6-0.7c0.7,0,2.1-0.1,3.3-0.5c2-0.6,2.3-2.6,2.3-9.7
			v-44.6c0-3.1,0.5-3.9,1.1-3.9c0.9,0,2.3,1.6,3.1,2.4c1.3,1.3,13,13.8,25.5,26.6c8,8.3,16.6,17.5,19.1,20.1l-0.8-39
			c-0.1-5.1-0.5-6.8-3-7.3c-1.5-0.3-3.3-0.4-3.9-0.4c-0.6,0-0.6-0.5-0.6-0.7c0-0.5,0.6-0.5,1.6-0.5c3.7,0,7.5,0.2,8.4,0.2
			c0.9,0,3.6-0.2,6.9-0.2c0.8,0,1.5,0.1,1.5,0.5c0,0.3-0.4,0.7-0.9,0.7c-0.4,0-1,0-1.9,0.2c-2.7,0.5-2.8,2.1-2.8,6.8l-0.2,45.6
			c0,5.1-0.1,5.6-0.6,5.6c-0.8,0-1.6-0.7-6.1-4.8c-0.8-0.7-12.5-12.2-21-21.1c-9.3-9.8-18.4-19.3-20.9-22.1L573.1,181.7z"/>
		<path class="st2" d="M572.5,239.4h0.1c0.7,0.7,5,5.6,9.2,9.8c4,4,9,9.1,11.4,11.4l1.3,0.8c0.3,0,0.5-0.3,0.5-1.2l0.4-24.5
			c0-2.1,0.3-3,1.4-3.3l1.2-0.1l0.7-0.3l-0.9-0.4c-1.9,0-3.4,0.1-3.8,0.1c-0.8,0-2.7-0.1-4.7-0.1c-0.6,0-1,0.1-1,0.4l0.6,0.3
			c0.5,0,1.5,0,2,0.2c0.9,0.4,1.3,1.1,1.3,3.5l0.4,17.4h-0.2c-0.7-0.6-5.9-6.2-8.5-8.8c-5.7-5.6-11.5-11.9-12-12.4
			c-0.7-0.7-1-1.2-1.4-1.2c-0.4,0-0.5,0.5-0.5,1.3l-0.3,23c0,3.4-0.2,4.5-1.2,4.8c-0.5,0.2-1.2,0.2-1.7,0.2l-0.6,0.3l0.9,0.4
			c2,0,3.8-0.1,4.2-0.1c0.7,0,2.3,0.1,4.8,0.1c0.5,0,0.9-0.1,0.9-0.4l-0.7-0.3c-0.6,0-1.4,0-2-0.2c-0.8-0.3-1.3-1.3-1.4-4.3
			L572.5,239.4z M550.1,259.5c-7.4,0-11.9-6.4-11.9-14.5c0-9.6,5.1-12.1,9.5-12.1c6.4,0,11.4,5.3,11.4,14.1
			C559.1,258.2,552.8,259.5,550.1,259.5 M548.5,261.5c9.8,0,16-7,16-15.9c0-8.9-6-14.5-15.7-14.5c-11.6,0-16,8.6-16,15.2
			C532.9,253.2,537.4,261.5,548.5,261.5 M521.9,249.7c0,3.8,0,6.8-0.2,8.4c-0.1,1.1-0.3,1.8-1.1,2c-0.3,0.1-0.8,0.1-1.4,0.1
			l-0.6,0.3l0.8,0.4c1.6,0,4-0.1,4.9-0.1c1,0,3.5,0.1,6,0.1l0.7-0.4l-0.6-0.3c-0.6,0-1.4-0.1-2-0.1c-1.2-0.2-1.4-0.8-1.6-1.9
			c-0.2-1.7-0.2-4.7-0.2-8.5v-6.8c0-5.9,0-7,0.1-8.2c0.1-1.4,0.4-2,1.4-2.2l1.2-0.1l0.6-0.4c0-0.2-0.3-0.3-0.8-0.3
			c-1.5,0-3.8,0.1-4.7,0.1c-1.1,0-3.6-0.1-5-0.1c-0.6,0-0.9,0.1-0.9,0.3l0.6,0.4l1.4,0.1c0.9,0.2,1.2,0.9,1.3,2.2
			c0.1,1.2,0.1,2.3,0.1,8.2V249.7z M501.5,249.7c0,3.6,0,6.6-0.2,8.3c-0.1,1.1-0.3,2-1.1,2.1c-0.3,0.1-0.8,0.1-1.4,0.1l-0.6,0.3
			l0.8,0.4c1.6,0,4-0.1,4.9-0.1c1.1,0,3.5,0.1,6.1,0.1l0.7-0.4l-0.6-0.3c-0.6,0-1.4-0.1-2-0.1c-1.2-0.2-1.4-1-1.5-2.1
			c-0.2-1.7-0.2-4.7-0.2-8.3v-15.9l4.9,0.1c3.5,0.1,4.5,1.2,4.6,2.2l0,0.4c0,0.6,0.1,0.8,0.4,0.8l0.3-0.6c0-1,0.1-3.7,0.1-4.5
			c0-0.6,0-0.8-0.3-0.8c-0.2,0-0.5,0.1-1.1,0.2c-0.6,0.1-1.4,0.2-2.7,0.2h-15.3c-1.3,0-2.7-0.1-3.9-0.2c-1-0.1-1.4-0.5-1.7-0.5
			l-0.5,0.7c-0.1,0.3-0.8,3.8-0.8,4.4l0.3,0.6l0.4-0.5c0.1-0.3,0.3-0.8,0.7-1.4c0.6-0.9,1.5-1.1,3.8-1.1l5.8-0.2V249.7z M476,248.9
			l-0.2-0.3l3.6-9.6l0.2-0.3l0.2,0.3l3.5,9.6l-0.2,0.2H476z M483.9,250.8l0.4,0.3l3.1,8.2l-0.3,0.9l-0.5,0.3c0,0.3,0.5,0.3,1.2,0.3
			c3.1,0.1,5.9,0.1,7.3,0.1c1.4,0,1.8-0.1,1.8-0.4l-0.5-0.3c-0.5,0-1,0-1.6-0.1c-0.8-0.2-1.9-0.7-3.4-4.2
			c-2.5-5.9-8.7-21.7-9.6-23.9c-0.4-0.9-0.6-1.2-1-1.2c-0.4,0-0.6,0.5-1.1,1.6l-9.7,24.3c-0.8,2-1.5,3.3-3.3,3.5l-1.2,0.1l-0.5,0.3
			c0,0.3,0.2,0.4,0.7,0.4c2,0,4.1-0.1,4.6-0.1c1.2,0,2.9,0.1,4.1,0.1l0.7-0.4l-0.6-0.3h-0.6c-1.2,0-1.5-0.5-1.5-1.2
			c0-0.4,0.2-1.4,0.6-2.4l2.1-5.5l0.4-0.3H483.9z M444.2,242.2c0-3,0-6.4,0-7.8l0.5-0.7c0.3-0.2,1.7-0.3,2.5-0.3c3,0,7.4,0.5,11,3.9
			c1.7,1.6,3.7,4.7,3.7,9.7c0,4-0.8,7.5-3.3,9.6c-2.3,2-5,2.8-8.9,2.8c-3.1,0-4.6-0.8-5.1-1.6c-0.3-0.4-0.4-2-0.4-2.9
			c0-0.7-0.1-3.7-0.1-7.8V242.2z M439.3,249.7c0,3.6,0,6.6-0.2,8.3c-0.2,1.1-0.3,2-1.1,2.1c-0.3,0.1-0.8,0.1-1.4,0.1l-0.6,0.3
			c0,0.3,0.3,0.4,0.8,0.4c0.8,0,1.8-0.1,2.7-0.1c0.9-0.1,1.8-0.1,2.2-0.1c1,0,2.3,0.1,3.8,0.2c1.5,0.1,3.1,0.2,4.5,0.2
			c7.2,0,11.2-2.8,13-4.6c2.2-2.2,4.2-6,4.2-10.8c0-4.6-1.8-7.8-3.8-9.9c-4.2-4.4-10.7-4.4-15.5-4.4c-2.3,0-4.8,0.1-6,0.1
			c-1.1,0-3.5-0.1-5.6-0.1c-0.6,0-0.9,0.1-0.9,0.4l0.7,0.3c0.5,0,1.2,0,1.5,0.1c1.3,0.3,1.6,0.9,1.7,2.2c0.1,1.2,0.1,2.3,0.1,8.2
			V249.7z M406.3,239.4h0.1c0.7,0.7,5,5.6,9.2,9.8c4,4,9,9.1,11.4,11.4l1.3,0.8c0.4,0,0.5-0.3,0.5-1.2l0.4-24.5c0-2.1,0.4-3,1.4-3.3
			l1.2-0.1l0.7-0.3l-0.9-0.4c-1.9,0-3.4,0.1-3.8,0.1c-0.8,0-2.7-0.1-4.7-0.1c-0.6,0-1,0.1-1,0.4l0.6,0.3c0.6,0,1.5,0,2.1,0.2
			c0.9,0.4,1.3,1.1,1.3,3.5l0.4,17.4h-0.2c-0.7-0.6-5.9-6.2-8.5-8.8c-5.7-5.6-11.5-11.9-12-12.4c-0.7-0.7-1-1.2-1.4-1.2
			c-0.4,0-0.5,0.5-0.5,1.3l-0.4,23c0,3.4-0.2,4.5-1.2,4.8c-0.6,0.2-1.2,0.2-1.7,0.2l-0.6,0.3c0,0.3,0.3,0.4,0.9,0.4
			c2,0,3.8-0.1,4.2-0.1c0.7,0,2.3,0.1,4.8,0.1c0.6,0,0.9-0.1,0.9-0.4l-0.7-0.3c-0.6,0-1.4,0-2-0.2c-0.8-0.3-1.3-1.3-1.4-4.3
			L406.3,239.4z M371.8,248.5c0,5.6,1.5,8.4,3.5,10.2c2.8,2.5,6.6,2.7,8.6,2.7c2.5,0,5.3-0.5,8.1-2.8c3.3-2.8,3.7-7.4,3.7-11.7v-4.2
			c0-5.9,0-7,0.1-8.2c0.1-1.4,0.4-2,1.4-2.2l1.1-0.1l0.7-0.3c0-0.3-0.3-0.4-0.8-0.4c-1.5,0-4,0.1-4.4,0.1c0,0-2.5-0.1-4.5-0.1
			c-0.6,0-0.8,0.1-0.8,0.4l0.7,0.3l1.4,0.1c1.3,0.3,1.6,0.9,1.7,2.2c0.1,1.2,0.1,2.3,0.1,8.2v4.8c0,4-0.1,7.5-2.2,9.6
			c-1.5,1.5-3.6,2.1-5.4,2.1c-1.3,0-3.1-0.2-4.9-1.6c-1.9-1.6-3-3.9-3-9.6v-5.4c0-5.9,0-7,0.1-8.2c0.1-1.4,0.4-2,1.4-2.2l1.1-0.1
			l0.6-0.3c0-0.3-0.3-0.4-0.9-0.4c-1.4,0-3.8,0.1-4.8,0.1c-1.2,0-3.6-0.1-5.6-0.1c-0.6,0-0.9,0.1-0.9,0.4l0.7,0.3
			c0.5,0,1.2,0,1.5,0.1c1.3,0.3,1.6,0.9,1.7,2.2c0.1,1.2,0.1,2.3,0.1,8.2V248.5z M352.5,259.5c-7.4,0-11.9-6.4-11.9-14.5
			c0-9.6,5.1-12.1,9.5-12.1c6.4,0,11.4,5.3,11.4,14.1C361.5,258.2,355.2,259.5,352.5,259.5 M350.9,261.5c9.8,0,16-7,16-15.9
			c0-8.9-6-14.5-15.7-14.5c-11.6,0-16,8.6-16,15.2C335.3,253.2,339.8,261.5,350.9,261.5 M322.2,246.5l0.3-0.3c0.7,0,4.8,0,5.7,0.1
			c1.2,0.2,1.8,0.9,2,1.4l0.2,1.2l0.3,0.6l0.4-0.7c0-0.3,0.1-2.1,0.2-2.8c0.1-1.2,0.3-2.2,0.3-2.4l-0.2-0.3l-0.5,0.4
			c-0.4,0.5-0.9,0.6-1.7,0.7c-0.5,0.1-1.1,0.1-1.7,0.1h-5l-0.3-0.3v-9.7l0.4-0.5l6,0.1c1.5,0,2.3,0.6,2.6,1.1
			c0.2,0.6,0.2,1.2,0.2,1.5l0.4,0.6l0.4-0.5l0.2-3.2c0.1-1,0.3-1.5,0.3-1.7l-0.3-0.3l-0.6,0.2c-0.4,0.1-0.9,0.1-1.6,0.2
			c-0.9,0-8.8,0-10.2,0c-0.5,0-1.4,0-2.4-0.1c-1,0-2.1-0.1-3.1-0.1c-0.6,0-0.9,0.1-0.9,0.4l0.7,0.3c0.5,0,1.2,0,1.5,0.1
			c1.3,0.3,1.6,0.9,1.7,2.2c0.1,1.2,0.1,2.3,0.1,8.2v6.8c0,3.7,0,6.6-0.2,8.3c-0.2,1.1-0.4,2-1.1,2.1c-0.3,0.1-0.8,0.1-1.4,0.1
			l-0.6,0.3c0,0.3,0.3,0.4,0.8,0.4c1.5,0,3.9-0.1,4.9-0.1c1,0,3.5,0.1,5.9,0.1c0.6,0,0.8-0.1,0.8-0.4l-0.7-0.3
			c-0.5,0-1.4-0.1-1.9-0.1c-1.2-0.2-1.4-1-1.5-2.1c-0.2-1.6-0.2-4.6-0.2-8.3V246.5z M287.9,254.1c0,0.6,0,2.3-0.1,3.9
			c-0.1,1.1-0.4,2-1.2,2.1c-0.3,0.1-0.8,0.1-1.4,0.1l-0.6,0.3c0,0.3,0.3,0.4,0.8,0.4c1.4,0,3.9-0.1,4.8-0.1c1,0,3.5,0.1,5.9,0.1
			l0.8-0.4l-0.6-0.3c-0.5,0-1.4-0.1-1.9-0.1c-1.2-0.2-1.5-1-1.6-2.1c-0.1-1.6-0.1-3.3-0.1-3.9v-3.2c0-1.3,0-2.5,0.6-3.9
			c0.7-1.7,6.1-10.8,7.4-12.3c0.8-1.1,1.3-1.5,2.1-1.9c0.6-0.3,1.3-0.5,1.7-0.5l0.7-0.4l-0.7-0.3c-0.7,0-3.3,0.1-4.1,0.1
			c-1.1,0-2.4-0.1-3.7-0.1l-0.7,0.4l0.7,0.3c0.7,0.2,0.8,0.6,0.8,1c0,0.5-0.2,1.1-0.5,2c-0.6,1.2-5.4,9.7-5.8,10.7
			c-0.6-1.1-6.1-10.4-6.6-11.6c-0.3-0.6-0.5-1-0.5-1.4l0.5-0.7c0.6-0.2,0.9-0.2,0.9-0.4l-0.6-0.4c-1.7,0-3.3,0.1-4.1,0.1
			c-1.3,0-4.2-0.1-4.9-0.1l-0.7,0.4l0.6,0.3l1.6,0.5c0.7,0.4,1.7,1.4,2.7,2.8c1.4,2,6.5,10.5,6.8,11.1c0.5,1.1,0.9,2,0.9,4.1V254.1z
			 M268.5,242.9c0-5.9,0-7,0.1-8.2c0.1-1.4,0.4-2,1.4-2.2l1.5-0.1l0.7-0.3c0-0.3-0.3-0.4-0.8-0.4c-1.5,0-4.3,0.1-5.3,0.1
			c-1.1,0-3.5-0.1-5.3-0.1c-0.6,0-0.9,0.1-0.9,0.4l0.7,0.3l1.3,0.1c1.3,0.3,1.6,0.9,1.7,2.2c0.1,1.2,0.1,2.3,0.1,8.2v6.8
			c0,3.6,0,6.6-0.2,8.3c-0.2,1.1-0.3,2-1.1,2.1c-0.3,0.1-0.8,0.1-1.4,0.1l-0.6,0.3c0,0.3,0.3,0.4,0.8,0.4c0.8,0,1.8-0.1,2.7-0.1
			c0.9-0.1,1.8-0.1,2.2-0.1c1.6,0,3,0.1,4.7,0.1c1.7,0.1,3.7,0.1,6.5,0.1c2,0,2.2-0.2,2.4-1.1c0.3-1.1,0.6-4,0.6-4.4l-0.3-0.7
			l-0.4,0.6c-0.1,0.7-0.5,1.8-1,2.3c-1,1.1-2.5,1.1-4.5,1.1c-3,0-4-0.2-4.7-0.8c-0.8-0.7-0.8-3.4-0.8-8.3V242.9z M248.1,249.7
			c0,3.8,0,6.8-0.2,8.4c-0.1,1.1-0.4,1.8-1.1,2c-0.4,0.1-0.8,0.1-1.4,0.1l-0.6,0.3c0,0.3,0.3,0.4,0.8,0.4c1.5,0,4-0.1,4.9-0.1
			c1.1,0,3.5,0.1,6,0.1l0.7-0.4l-0.6-0.3c-0.6,0-1.4-0.1-2-0.1c-1.2-0.2-1.4-0.8-1.5-1.9c-0.2-1.7-0.2-4.7-0.2-8.5v-6.8
			c0-5.9,0-7,0.1-8.2c0.1-1.4,0.4-2,1.4-2.2l1.2-0.1l0.6-0.4c0-0.2-0.3-0.3-0.8-0.3c-1.5,0-3.7,0.1-4.7,0.1c-1.1,0-3.6-0.1-5-0.1
			c-0.6,0-0.9,0.1-0.9,0.3l0.6,0.4l1.4,0.1c0.8,0.2,1.2,0.9,1.3,2.2c0.1,1.2,0.1,2.3,0.1,8.2V249.7z M207.2,257
			c-0.2,1.3-0.5,2.8-1.6,3c-0.6,0.1-0.9,0.1-1.2,0.1l-0.6,0.3l0.7,0.4c1.2,0,3.1-0.1,3.8-0.1c0.7,0,2.4,0.1,4.1,0.1
			c0.6,0,0.9-0.1,0.9-0.4l-0.6-0.3c-0.4,0-0.9,0-1.6-0.2c-0.7-0.2-1.2-0.5-1.2-1.2c0-0.6,0-1.1,0.1-1.8l2-15.4h0.2
			c1.4,2.9,3.7,7.8,4,8.6c0.5,1.1,3.5,7,4.5,8.8c0.6,1.1,1,1.9,1.4,1.9c0.3,0,0.5-0.3,1.4-2.1l8.5-17.6h0.2l2.3,17.1
			c0.1,1.1,0,1.6-0.2,1.7l-0.4,0.4c0,0.2,0.2,0.3,1.1,0.5c1.5,0.1,6.9,0.2,7.9,0.2c0.5,0,1-0.1,1-0.4l-0.6-0.3c-0.5,0-1.3,0-2.4-0.3
			c-1.2-0.4-1.5-1.5-1.9-3.9l-3.5-23.9c-0.1-0.8-0.3-1.2-0.7-1.2c-0.3,0-0.5,0.3-0.8,1l-10.5,22.1L212.7,232c-0.5-1-0.7-1.2-1.1-1.2
			c-0.3,0-0.5,0.3-0.6,1L207.2,257z M185.9,248.9l-0.2-0.3l3.6-9.6l0.2-0.3l0.2,0.3l3.5,9.6l-0.2,0.2H185.9z M193.8,250.8l0.4,0.3
			l3.1,8.2l-0.4,0.9l-0.6,0.3c0,0.3,0.5,0.3,1.2,0.3c3.1,0.1,5.9,0.1,7.3,0.1c1.4,0,1.8-0.1,1.8-0.4l-0.5-0.3c-0.5,0-1,0-1.6-0.1
			c-0.8-0.2-1.9-0.7-3.4-4.2c-2.5-5.9-8.7-21.7-9.6-23.9c-0.4-0.9-0.6-1.2-1-1.2c-0.4,0-0.6,0.5-1.1,1.6l-9.7,24.3
			c-0.8,2-1.5,3.3-3.3,3.5l-1.2,0.1l-0.5,0.3l0.7,0.4c2,0,4.1-0.1,4.6-0.1c1.2,0,2.9,0.1,4.1,0.1l0.7-0.4l-0.6-0.3h-0.6
			c-1.2,0-1.6-0.5-1.6-1.2c0-0.4,0.2-1.4,0.6-2.4l2.1-5.5l0.3-0.3H193.8z M167.1,246.5l0.3-0.3c0.7,0,4.8,0,5.7,0.1
			c1.2,0.2,1.8,0.9,2,1.4l0.2,1.2l0.3,0.6l0.4-0.7c0-0.3,0.1-2.1,0.2-2.8c0.1-1.2,0.3-2.2,0.3-2.4l-0.2-0.3l-0.5,0.4
			c-0.4,0.5-0.9,0.6-1.7,0.7c-0.5,0.1-1.1,0.1-1.8,0.1h-5l-0.3-0.3v-9.7l0.4-0.5l6,0.1c1.5,0,2.3,0.6,2.6,1.1
			c0.2,0.6,0.2,1.2,0.2,1.5l0.4,0.6l0.4-0.5l0.2-3.2c0.1-1,0.3-1.5,0.3-1.7l-0.3-0.3l-0.6,0.2c-0.4,0.1-0.9,0.1-1.6,0.2
			c-0.9,0-8.8,0-10.2,0c-0.5,0-1.4,0-2.4-0.1c-1,0-2.1-0.1-3.1-0.1c-0.6,0-0.9,0.1-0.9,0.4l0.7,0.3c0.5,0,1.2,0,1.5,0.1
			c1.3,0.3,1.6,0.9,1.7,2.2c0.1,1.2,0.1,2.3,0.1,8.2v6.8c0,3.7,0,6.6-0.2,8.3c-0.2,1.1-0.3,2-1.1,2.1c-0.4,0.1-0.8,0.1-1.4,0.1
			l-0.6,0.3c0,0.3,0.3,0.4,0.8,0.4c1.5,0,3.9-0.1,4.9-0.1c1,0,3.5,0.1,5.9,0.1c0.6,0,0.8-0.1,0.8-0.4l-0.6-0.3
			c-0.6,0-1.4-0.1-1.9-0.1c-1.2-0.2-1.4-1-1.5-2.1c-0.2-1.6-0.2-4.6-0.2-8.3V246.5z M623.1,280.9h-494v-68.1h494V280.9z"/>
	</g>
</g>
</svg>
